{"glyphs":{"0":{"ha":879,"x_min":101,"x_max":776,"o":"m 397 -1 q 173 70 244 -1 q 101 294 101 142 l 101 613 q 173 838 101 767 q 397 907 244 908 l 481 907 q 706 835 635 907 q 776 611 776 764 l 776 294 q 706 70 776 142 q 481 -1 635 -1 l 397 -1 m 481 85 q 605 105 560 85 q 670 170 650 125 q 690 294 690 215 l 690 611 q 670 735 690 690 q 605 801 650 781 q 481 821 560 821 l 397 821 q 273 802 318 822 q 208 737 228 782 q 188 613 188 692 l 188 294 q 208 170 188 215 q 273 105 228 125 q 397 85 318 85 l 481 85 m 436 394 q 392 440 392 394 l 392 469 q 436 513 392 513 l 464 513 q 507 469 507 513 l 507 440 q 496 406 507 418 q 464 394 485 394 l 436 394 z "},"1":{"ha":507,"x_min":92,"x_max":368,"o":"m 331 908 q 368 865 368 908 l 368 43 q 325 0 368 0 q 282 43 282 0 l 282 776 l 163 661 q 133 647 146 647 q 106 661 119 647 q 92 689 92 675 q 108 719 92 706 l 278 888 q 331 908 299 908 z "},"2":{"ha":790,"x_min":72,"x_max":706,"o":"m 131 0 q 98 11 110 0 q 86 43 86 22 q 125 219 86 149 q 226 335 164 289 q 400 446 288 382 q 531 526 492 499 q 594 586 571 553 q 618 667 618 619 q 584 789 618 756 q 463 822 550 822 l 314 822 q 202 797 238 822 q 161 711 167 772 q 117 668 154 668 q 83 680 94 668 q 75 713 72 692 q 143 861 85 814 q 314 908 201 908 l 463 908 q 645 850 586 908 q 704 667 704 792 q 670 545 704 596 q 586 460 636 494 q 442 371 536 425 q 295 281 344 315 q 214 201 246 247 q 175 86 182 154 l 663 86 q 706 43 706 86 q 663 0 706 0 l 131 0 z "},"3":{"ha":849,"x_min":78,"x_max":746,"o":"m 332 0 q 151 51 213 0 q 79 210 89 103 q 89 242 78 231 q 121 254 100 254 q 165 213 161 254 q 210 114 172 142 q 332 86 247 86 l 490 86 q 592 102 556 86 q 644 154 629 118 q 660 254 660 190 q 644 354 660 318 q 592 406 629 390 q 490 422 556 422 l 368 422 q 325 465 325 422 q 368 508 325 508 l 519 510 q 610 548 583 510 q 638 667 638 586 q 604 789 638 756 q 482 822 571 822 l 347 822 q 236 798 271 822 q 194 711 201 774 q 150 668 190 668 q 118 680 129 668 q 108 713 107 692 q 176 861 118 814 q 347 908 235 908 l 482 908 q 665 850 607 908 q 724 667 724 792 q 632 479 724 531 q 718 396 690 451 q 746 254 746 340 q 684 61 746 122 q 490 0 622 0 l 332 0 z "},"4":{"ha":789,"x_min":51,"x_max":738,"o":"m 694 281 q 726 269 715 281 q 738 238 738 257 q 694 194 738 194 l 624 194 l 622 43 q 579 0 622 0 q 536 43 536 0 l 536 194 l 94 194 q 51 238 51 194 q 69 283 51 261 l 525 883 q 549 903 536 899 q 582 908 561 908 q 626 865 626 908 l 624 281 l 694 281 m 165 281 l 538 281 l 539 772 l 165 281 z "},"5":{"ha":857,"x_min":99,"x_max":756,"o":"m 356 0 q 174 51 235 0 q 103 210 113 101 q 144 254 99 254 q 189 211 182 254 q 233 114 194 142 q 356 86 271 86 l 500 86 q 633 124 596 86 q 669 256 669 161 l 669 351 q 633 484 669 447 q 500 521 596 521 l 397 521 q 226 482 275 521 q 185 464 201 464 q 169 467 181 464 l 160 469 q 124 518 124 482 l 124 865 q 167 908 124 908 l 707 908 q 750 865 750 908 q 707 822 750 822 l 210 822 l 210 572 q 397 607 279 607 l 500 607 q 694 545 632 607 q 756 351 756 483 l 756 256 q 694 63 756 125 q 500 0 632 0 l 356 0 z "},"6":{"ha":860,"x_min":101,"x_max":757,"o":"m 357 0 q 163 62 225 0 q 101 254 101 124 l 101 667 q 160 850 101 792 q 343 908 219 908 l 515 908 q 687 861 628 908 q 756 713 746 814 q 746 680 757 692 q 713 668 735 668 q 669 711 674 668 q 628 798 663 774 q 515 822 593 822 l 343 822 q 221 789 254 822 q 188 667 188 756 l 188 525 q 357 604 236 604 l 501 604 q 695 542 633 604 q 757 349 757 481 l 757 256 q 695 62 757 124 q 501 0 633 0 l 357 0 m 501 86 q 634 124 597 86 q 671 256 671 161 l 671 349 q 634 481 671 444 q 501 518 597 518 l 357 518 q 224 481 261 518 q 188 350 188 444 l 188 254 q 224 123 188 160 q 357 86 261 86 l 501 86 z "},"7":{"ha":683,"x_min":51,"x_max":633,"o":"m 244 0 q 201 44 201 0 q 222 271 204 183 q 282 421 239 358 q 406 539 325 483 q 508 656 476 592 q 546 822 540 719 l 94 822 q 51 865 51 822 q 94 908 51 908 l 589 908 q 622 897 610 908 q 633 865 633 886 q 592 631 633 722 q 456 469 550 539 q 354 373 389 422 q 304 249 319 324 q 288 44 289 174 q 244 0 288 0 z "},"8":{"ha":874,"x_min":101,"x_max":771,"o":"m 654 472 q 771 254 771 415 q 709 61 771 122 q 515 0 647 0 l 357 0 q 163 62 225 0 q 101 254 101 124 q 224 474 101 418 q 131 669 131 533 q 190 850 131 792 q 372 908 249 908 l 507 908 q 690 850 631 908 q 749 669 749 792 q 654 472 749 529 m 372 822 q 251 789 285 822 q 217 669 217 756 q 249 544 217 579 q 363 508 282 508 l 522 508 q 633 547 603 508 q 663 669 663 585 q 629 789 663 756 q 507 822 596 822 l 372 822 m 515 86 q 617 102 581 86 q 669 154 654 118 q 685 254 685 190 q 669 354 685 318 q 617 406 654 390 q 515 422 581 422 l 357 422 q 224 385 261 422 q 188 254 188 349 q 224 123 188 160 q 357 86 261 86 l 515 86 z "},"9":{"ha":860,"x_min":103,"x_max":758,"o":"m 503 908 q 697 847 635 908 q 758 654 758 785 l 758 242 q 699 58 758 117 q 517 0 640 0 l 344 0 q 173 47 232 0 q 104 196 114 94 q 114 228 103 217 q 147 240 125 240 q 190 197 186 240 q 232 110 197 135 q 344 86 267 86 l 517 86 q 639 119 606 86 q 672 242 672 153 l 672 383 q 503 304 624 304 l 358 304 q 165 366 226 304 q 103 560 103 428 l 103 653 q 165 847 103 785 q 358 908 226 908 l 503 908 m 358 822 q 226 785 263 822 q 189 653 189 747 l 189 560 q 226 427 189 464 q 358 390 263 390 l 503 390 q 635 427 599 390 q 672 558 672 464 l 672 654 q 635 785 672 749 q 503 822 599 822 l 358 822 z "},"\u0000":{"ha":0,"x_min":0,"x_max":0,"o":""},"\r":{"ha":375,"x_min":0,"x_max":0,"o":""}," ":{"ha":375,"x_min":0,"x_max":0,"o":""},"A":{"ha":875,"x_min":44,"x_max":832,"o":"m 828 61 q 832 40 832 49 q 806 4 832 17 q 785 0 796 0 q 749 28 761 0 l 661 235 l 214 235 l 128 28 q 92 0 117 0 q 71 4 82 0 q 44 40 44 17 q 49 61 44 49 l 388 875 q 436 908 401 908 l 440 908 q 486 875 475 908 l 828 61 m 249 321 l 625 321 l 436 772 l 249 321 z "},"Á":{"ha":875,"x_min":44,"x_max":832,"o":"m 828 61 q 832 40 832 49 q 806 4 832 17 q 785 0 796 0 q 749 28 761 0 l 661 235 l 214 235 l 128 28 q 92 0 117 0 q 71 4 82 0 q 44 40 44 17 q 49 61 44 49 l 388 875 q 436 908 401 908 l 440 908 q 486 875 475 908 l 828 61 m 249 321 l 625 321 l 436 772 l 249 321 m 424 982 q 408 1011 408 993 q 419 1038 408 1026 l 533 1172 q 563 1189 546 1189 q 589 1178 575 1189 q 604 1149 604 1167 q 593 1122 604 1133 l 479 988 q 450 971 467 971 q 424 982 438 971 z "},"Ă":{"ha":875,"x_min":44,"x_max":832,"o":"m 828 61 q 832 40 832 49 q 806 4 832 17 q 785 0 796 0 q 749 28 761 0 l 661 235 l 214 235 l 128 28 q 92 0 117 0 q 71 4 82 0 q 44 40 44 17 q 49 61 44 49 l 388 875 q 436 908 401 908 l 440 908 q 486 875 475 908 l 828 61 m 249 321 l 625 321 l 436 772 l 249 321 m 444 982 q 313 1021 358 982 q 268 1133 268 1060 l 268 1149 q 307 1188 268 1188 q 347 1149 347 1188 l 347 1133 q 369 1074 347 1092 q 447 1056 392 1056 q 526 1074 504 1057 q 549 1133 549 1092 l 549 1156 q 588 1188 549 1188 q 628 1149 628 1188 l 628 1133 q 581 1019 628 1057 q 444 982 533 982 z "},"Ắ":{"ha":875,"x_min":44,"x_max":832,"o":"m 828 61 q 832 40 832 49 q 806 4 832 17 q 785 0 796 0 q 749 28 761 0 l 661 235 l 214 235 l 128 28 q 92 0 117 0 q 71 4 82 0 q 44 40 44 17 q 49 61 44 49 l 388 875 q 436 908 401 908 l 440 908 q 486 875 475 908 l 828 61 m 249 321 l 625 321 l 436 772 l 249 321 m 435 982 q 303 1021 349 982 q 258 1133 258 1060 l 258 1149 q 297 1188 258 1188 q 338 1149 338 1188 l 338 1133 q 360 1074 338 1092 q 438 1056 382 1056 q 517 1074 494 1057 q 539 1133 539 1092 l 539 1156 q 578 1188 539 1188 q 618 1149 618 1188 l 618 1133 q 571 1019 618 1057 q 435 982 524 982 m 394 1182 q 379 1211 379 1193 q 390 1238 379 1226 l 504 1372 q 533 1389 517 1389 q 560 1378 546 1389 q 575 1349 575 1367 q 564 1322 575 1333 l 450 1188 q 421 1171 438 1171 q 394 1182 408 1171 z "},"Ặ":{"ha":875,"x_min":44,"x_max":832,"o":"m 828 61 q 832 40 832 49 q 806 4 832 17 q 785 0 796 0 q 749 28 761 0 l 661 235 l 214 235 l 128 28 q 92 0 117 0 q 71 4 82 0 q 44 40 44 17 q 49 61 44 49 l 388 875 q 436 908 401 908 l 440 908 q 486 875 475 908 l 828 61 m 249 321 l 625 321 l 436 772 l 249 321 m 424 -212 q 379 -167 379 -212 l 379 -137 q 424 -94 379 -94 l 451 -94 q 494 -137 494 -94 l 494 -167 q 483 -201 494 -189 q 451 -212 472 -212 l 424 -212 m 444 982 q 313 1021 358 982 q 268 1133 268 1060 l 268 1149 q 307 1188 268 1188 q 347 1149 347 1188 l 347 1133 q 369 1074 347 1092 q 447 1056 392 1056 q 526 1074 504 1057 q 549 1133 549 1092 l 549 1156 q 588 1188 549 1188 q 628 1149 628 1188 l 628 1133 q 581 1019 628 1057 q 444 982 533 982 z "},"Ằ":{"ha":875,"x_min":44,"x_max":832,"o":"m 828 61 q 832 40 832 49 q 806 4 832 17 q 785 0 796 0 q 749 28 761 0 l 661 235 l 214 235 l 128 28 q 92 0 117 0 q 71 4 82 0 q 44 40 44 17 q 49 61 44 49 l 388 875 q 436 908 401 908 l 440 908 q 486 875 475 908 l 828 61 m 249 321 l 625 321 l 436 772 l 249 321 m 435 982 q 303 1021 349 982 q 258 1133 258 1060 l 258 1149 q 297 1188 258 1188 q 338 1149 338 1188 l 338 1133 q 360 1074 338 1092 q 438 1056 382 1056 q 517 1074 494 1057 q 539 1133 539 1092 l 539 1156 q 578 1188 539 1188 q 618 1149 618 1188 l 618 1133 q 571 1019 618 1057 q 435 982 524 982 m 456 1181 q 429 1169 442 1169 q 400 1186 413 1169 l 286 1321 q 275 1347 275 1332 q 290 1376 275 1365 q 317 1388 304 1388 q 346 1371 333 1388 l 460 1236 q 471 1210 471 1225 q 456 1181 471 1192 z "},"Ẳ":{"ha":875,"x_min":44,"x_max":832,"o":"m 828 61 q 832 40 832 49 q 806 4 832 17 q 785 0 796 0 q 749 28 761 0 l 661 235 l 214 235 l 128 28 q 92 0 117 0 q 71 4 82 0 q 44 40 44 17 q 49 61 44 49 l 388 875 q 436 908 401 908 l 440 908 q 486 875 475 908 l 828 61 m 249 321 l 625 321 l 436 772 l 249 321 m 435 982 q 303 1021 349 982 q 258 1133 258 1060 l 258 1149 q 297 1188 258 1188 q 338 1149 338 1188 l 338 1133 q 360 1074 338 1092 q 438 1056 382 1056 q 517 1074 494 1057 q 539 1133 539 1092 l 539 1156 q 578 1188 539 1188 q 618 1149 618 1188 l 618 1133 q 571 1019 618 1057 q 435 982 524 982 m 438 1143 q 412 1151 419 1143 q 404 1176 404 1158 q 422 1236 404 1215 q 469 1275 440 1257 q 496 1294 490 1288 q 501 1311 501 1300 q 491 1353 501 1343 q 449 1364 481 1364 q 407 1353 417 1364 q 397 1311 397 1343 q 389 1285 397 1293 q 363 1278 381 1278 q 337 1285 344 1278 q 329 1311 329 1293 q 449 1431 329 1431 q 569 1311 569 1431 q 552 1256 569 1275 q 506 1217 535 1236 q 477 1197 483 1204 q 471 1176 471 1189 q 463 1151 471 1158 q 438 1143 456 1143 z "},"Ẵ":{"ha":875,"x_min":44,"x_max":832,"o":"m 828 61 q 832 40 832 49 q 806 4 832 17 q 785 0 796 0 q 749 28 761 0 l 661 235 l 214 235 l 128 28 q 92 0 117 0 q 71 4 82 0 q 44 40 44 17 q 49 61 44 49 l 388 875 q 436 908 401 908 l 440 908 q 486 875 475 908 l 828 61 m 249 321 l 625 321 l 436 772 l 249 321 m 432 982 q 301 1021 346 982 q 256 1133 256 1060 l 256 1149 q 294 1188 256 1188 q 335 1149 335 1188 l 335 1133 q 357 1074 335 1092 q 435 1056 379 1056 q 514 1074 492 1057 q 536 1133 536 1092 l 536 1156 q 575 1188 536 1188 q 615 1149 615 1188 l 615 1133 q 568 1019 615 1057 q 432 982 521 982 m 504 1228 q 464 1240 481 1228 q 421 1275 447 1251 q 397 1299 406 1292 q 378 1306 388 1306 q 353 1295 363 1306 q 332 1257 343 1285 q 288 1232 317 1224 q 265 1244 272 1235 q 257 1265 257 1253 q 260 1279 257 1271 q 308 1356 282 1332 q 374 1379 333 1379 q 417 1366 397 1379 q 460 1329 436 1353 q 483 1309 471 1318 q 503 1300 494 1300 q 522 1309 514 1300 q 539 1342 529 1318 q 582 1369 551 1375 q 606 1359 597 1368 q 614 1338 614 1350 q 611 1322 614 1333 q 504 1228 578 1228 z "},"Â":{"ha":875,"x_min":44,"x_max":832,"o":"m 828 61 q 832 40 832 49 q 806 4 832 17 q 785 0 796 0 q 749 28 761 0 l 661 235 l 214 235 l 128 28 q 92 0 117 0 q 71 4 82 0 q 44 40 44 17 q 49 61 44 49 l 388 875 q 436 908 401 908 l 440 908 q 486 875 475 908 l 828 61 m 249 321 l 625 321 l 436 772 l 249 321 m 268 983 q 240 995 251 983 q 228 1024 228 1007 q 246 1057 228 1046 l 381 1169 q 431 1188 403 1188 l 442 1188 q 492 1169 469 1188 l 626 1057 q 644 1024 644 1046 q 633 995 644 1007 q 604 983 621 983 q 575 994 589 983 l 440 1107 l 432 1107 l 297 994 q 268 983 283 983 z "},"Ấ":{"ha":875,"x_min":44,"x_max":832,"o":"m 828 61 q 832 40 832 49 q 806 4 832 17 q 785 0 796 0 q 749 28 761 0 l 661 235 l 214 235 l 128 28 q 92 0 117 0 q 71 4 82 0 q 44 40 44 17 q 49 61 44 49 l 388 875 q 436 908 401 908 l 440 908 q 486 875 475 908 l 828 61 m 249 321 l 625 321 l 436 772 l 249 321 m 592 1124 q 563 1137 576 1124 q 550 1165 550 1150 q 561 1193 550 1181 l 642 1288 q 672 1303 654 1303 q 701 1290 688 1303 q 714 1261 714 1276 q 703 1233 714 1249 l 622 1140 q 592 1124 608 1124 m 271 983 q 242 995 254 983 q 231 1024 231 1007 q 249 1057 231 1046 l 383 1169 q 433 1188 406 1188 l 444 1188 q 494 1169 472 1188 l 629 1057 q 647 1024 647 1046 q 635 995 647 1007 q 607 983 624 983 q 578 994 592 983 l 443 1107 l 435 1107 l 300 994 q 271 983 286 983 z "},"Ậ":{"ha":875,"x_min":44,"x_max":832,"o":"m 828 61 q 832 40 832 49 q 806 4 832 17 q 785 0 796 0 q 749 28 761 0 l 661 235 l 214 235 l 128 28 q 92 0 117 0 q 71 4 82 0 q 44 40 44 17 q 49 61 44 49 l 388 875 q 436 908 401 908 l 440 908 q 486 875 475 908 l 828 61 m 249 321 l 625 321 l 436 772 l 249 321 m 424 -212 q 379 -167 379 -212 l 379 -137 q 424 -94 379 -94 l 451 -94 q 494 -137 494 -94 l 494 -167 q 483 -201 494 -189 q 451 -212 472 -212 l 424 -212 m 268 983 q 240 995 251 983 q 228 1024 228 1007 q 246 1057 228 1046 l 381 1169 q 431 1188 403 1188 l 442 1188 q 492 1169 469 1188 l 626 1057 q 644 1024 644 1046 q 633 995 644 1007 q 604 983 621 983 q 575 994 589 983 l 440 1107 l 432 1107 l 297 994 q 268 983 283 983 z "},"Ầ":{"ha":875,"x_min":44,"x_max":832,"o":"m 828 61 q 832 40 832 49 q 806 4 832 17 q 785 0 796 0 q 749 28 761 0 l 661 235 l 214 235 l 128 28 q 92 0 117 0 q 71 4 82 0 q 44 40 44 17 q 49 61 44 49 l 388 875 q 436 908 401 908 l 440 908 q 486 875 475 908 l 828 61 m 249 321 l 625 321 l 436 772 l 249 321 m 250 1124 q 219 1140 233 1124 l 139 1233 q 128 1261 128 1247 q 141 1290 128 1276 q 169 1303 154 1303 q 200 1288 188 1303 l 281 1193 q 292 1165 292 1181 q 278 1137 292 1150 q 250 1124 265 1124 m 269 983 q 241 995 253 983 q 229 1024 229 1007 q 247 1057 229 1046 l 382 1169 q 432 1188 404 1188 l 443 1188 q 493 1169 471 1188 l 628 1057 q 646 1024 646 1046 q 634 995 646 1007 q 606 983 622 983 q 576 994 590 983 l 442 1107 l 433 1107 l 299 994 q 269 983 285 983 z "},"Ẩ":{"ha":875,"x_min":44,"x_max":832,"o":"m 828 61 q 832 40 832 49 q 806 4 832 17 q 785 0 796 0 q 749 28 761 0 l 661 235 l 214 235 l 128 28 q 92 0 117 0 q 71 4 82 0 q 44 40 44 17 q 49 61 44 49 l 388 875 q 436 908 401 908 l 440 908 q 486 875 475 908 l 828 61 m 249 321 l 625 321 l 436 772 l 249 321 m 269 983 q 241 995 253 983 q 229 1024 229 1007 q 247 1057 229 1046 l 382 1169 q 432 1188 404 1188 l 443 1188 q 493 1169 471 1188 l 628 1057 q 646 1024 646 1046 q 634 995 646 1007 q 606 983 622 983 q 576 994 590 983 l 442 1107 l 433 1107 l 299 994 q 269 983 285 983 m 564 1154 q 538 1162 546 1154 q 531 1188 531 1169 q 549 1247 531 1226 q 596 1286 567 1268 q 622 1305 617 1299 q 628 1322 628 1311 q 617 1365 628 1354 q 575 1375 607 1375 q 533 1365 543 1375 q 524 1322 524 1354 q 515 1297 524 1304 q 489 1289 507 1289 q 463 1297 471 1289 q 456 1322 456 1304 q 575 1442 456 1442 q 696 1322 696 1442 q 678 1267 696 1286 q 632 1228 661 1247 q 603 1208 610 1215 q 597 1188 597 1200 q 590 1162 597 1169 q 564 1154 582 1154 z "},"Ẫ":{"ha":875,"x_min":44,"x_max":832,"o":"m 828 61 q 832 40 832 49 q 806 4 832 17 q 785 0 796 0 q 749 28 761 0 l 661 235 l 214 235 l 128 28 q 92 0 117 0 q 71 4 82 0 q 44 40 44 17 q 49 61 44 49 l 388 875 q 436 908 401 908 l 440 908 q 486 875 475 908 l 828 61 m 249 321 l 625 321 l 436 772 l 249 321 m 269 983 q 241 995 253 983 q 229 1024 229 1007 q 247 1057 229 1046 l 382 1169 q 432 1188 404 1188 l 443 1188 q 493 1169 471 1188 l 628 1057 q 646 1024 646 1046 q 634 995 646 1007 q 606 983 622 983 q 576 994 590 983 l 442 1107 l 433 1107 l 299 994 q 269 983 285 983 m 531 1225 q 469 1240 494 1225 q 424 1278 444 1256 q 393 1304 406 1297 q 364 1311 381 1311 q 330 1300 343 1311 q 306 1257 317 1289 q 261 1231 292 1222 q 238 1242 246 1233 q 231 1264 231 1251 q 233 1279 231 1268 q 285 1360 254 1335 q 364 1386 317 1386 q 428 1370 403 1386 q 476 1331 454 1354 q 506 1306 497 1311 q 531 1300 515 1300 q 561 1311 549 1300 q 583 1350 574 1322 q 618 1381 594 1381 q 647 1371 636 1381 q 658 1347 658 1361 q 656 1332 658 1343 q 606 1251 636 1278 q 531 1225 576 1225 z "},"Ȁ":{"ha":875,"x_min":44,"x_max":832,"o":"m 240 1139 q 229 1163 229 1153 q 244 1189 229 1176 q 268 1200 256 1200 q 294 1185 283 1200 l 397 1063 q 407 1039 407 1053 q 393 1013 407 1025 q 368 1003 382 1003 q 343 1018 353 1003 l 240 1139 m 397 1139 q 386 1163 386 1153 q 401 1189 386 1176 q 425 1200 413 1200 q 451 1185 440 1200 l 554 1063 q 564 1039 564 1053 q 550 1013 564 1025 q 525 1003 539 1003 q 500 1018 510 1003 l 397 1139 m 828 61 q 832 40 832 49 q 806 4 832 17 q 785 0 796 0 q 749 28 761 0 l 661 235 l 214 235 l 128 28 q 92 0 117 0 q 71 4 82 0 q 44 40 44 17 q 49 61 44 49 l 388 875 q 436 908 401 908 l 440 908 q 486 875 475 908 l 828 61 m 249 321 l 625 321 l 436 772 l 249 321 z "},"Ä":{"ha":875,"x_min":44,"x_max":832,"o":"m 828 61 q 832 40 832 49 q 806 4 832 17 q 785 0 796 0 q 749 28 761 0 l 661 235 l 214 235 l 128 28 q 92 0 117 0 q 71 4 82 0 q 44 40 44 17 q 49 61 44 49 l 388 875 q 436 908 401 908 l 440 908 q 486 875 475 908 l 828 61 m 249 321 l 625 321 l 436 772 l 249 321 m 317 1021 q 272 1067 272 1021 l 272 1096 q 317 1139 272 1139 l 344 1139 q 388 1096 388 1139 l 388 1067 q 376 1033 388 1044 q 344 1021 365 1021 l 317 1021 m 531 1021 q 486 1067 486 1021 l 486 1096 q 531 1139 486 1139 l 558 1139 q 601 1096 601 1139 l 601 1067 q 590 1033 601 1044 q 558 1021 579 1021 l 531 1021 z "},"Ạ":{"ha":875,"x_min":44,"x_max":832,"o":"m 828 61 q 832 40 832 49 q 806 4 832 17 q 785 0 796 0 q 749 28 761 0 l 661 235 l 214 235 l 128 28 q 92 0 117 0 q 71 4 82 0 q 44 40 44 17 q 49 61 44 49 l 388 875 q 436 908 401 908 l 440 908 q 486 875 475 908 l 828 61 m 249 321 l 625 321 l 436 772 l 249 321 m 424 -212 q 379 -167 379 -212 l 379 -137 q 424 -94 379 -94 l 451 -94 q 494 -137 494 -94 l 494 -167 q 483 -201 494 -189 q 451 -212 472 -212 l 424 -212 z "},"À":{"ha":875,"x_min":44,"x_max":832,"o":"m 828 61 q 832 40 832 49 q 806 4 832 17 q 785 0 796 0 q 749 28 761 0 l 661 235 l 214 235 l 128 28 q 92 0 117 0 q 71 4 82 0 q 44 40 44 17 q 49 61 44 49 l 388 875 q 436 908 401 908 l 440 908 q 486 875 475 908 l 828 61 m 249 321 l 625 321 l 436 772 l 249 321 m 486 982 q 460 971 472 971 q 431 988 443 971 l 317 1122 q 306 1149 306 1133 q 321 1178 306 1167 q 347 1189 335 1189 q 376 1172 364 1189 l 490 1038 q 501 1011 501 1026 q 486 982 501 993 z "},"Ả":{"ha":875,"x_min":44,"x_max":832,"o":"m 828 61 q 832 40 832 49 q 806 4 832 17 q 785 0 796 0 q 749 28 761 0 l 661 235 l 214 235 l 128 28 q 92 0 117 0 q 71 4 82 0 q 44 40 44 17 q 49 61 44 49 l 388 875 q 436 908 401 908 l 440 908 q 486 875 475 908 l 828 61 m 249 321 l 625 321 l 436 772 l 249 321 m 438 985 q 412 992 419 985 q 404 1018 404 1000 q 422 1078 404 1057 q 469 1117 440 1099 q 496 1135 490 1129 q 501 1153 501 1142 q 491 1195 501 1185 q 449 1206 481 1206 q 407 1195 417 1206 q 397 1153 397 1185 q 389 1127 397 1135 q 363 1119 381 1119 q 337 1127 344 1119 q 329 1153 329 1135 q 449 1272 329 1272 q 569 1153 569 1272 q 552 1097 569 1117 q 506 1058 535 1078 q 477 1038 483 1046 q 471 1018 471 1031 q 463 992 471 1000 q 438 985 456 985 z "},"Ȃ":{"ha":875,"x_min":44,"x_max":832,"o":"m 828 61 q 832 40 832 49 q 806 4 832 17 q 785 0 796 0 q 749 28 761 0 l 661 235 l 214 235 l 128 28 q 92 0 117 0 q 71 4 82 0 q 44 40 44 17 q 49 61 44 49 l 388 875 q 436 908 401 908 l 440 908 q 486 875 475 908 l 828 61 m 249 321 l 625 321 l 436 772 l 249 321 m 433 1219 q 569 1182 522 1219 q 617 1068 617 1144 l 617 1053 q 576 1014 617 1014 q 538 1046 538 1014 l 538 1068 q 515 1127 538 1110 q 436 1146 493 1144 q 358 1128 381 1146 q 336 1068 336 1110 l 336 1053 q 296 1014 336 1014 q 257 1053 257 1014 l 257 1068 q 302 1181 257 1142 q 433 1219 347 1219 z "},"Ā":{"ha":875,"x_min":44,"x_max":832,"o":"m 828 61 q 832 40 832 49 q 806 4 832 17 q 785 0 796 0 q 749 28 761 0 l 661 235 l 214 235 l 128 28 q 92 0 117 0 q 71 4 82 0 q 44 40 44 17 q 49 61 44 49 l 388 875 q 436 908 401 908 l 440 908 q 486 875 475 908 l 828 61 m 249 321 l 625 321 l 436 772 l 249 321 m 258 1053 q 215 1096 215 1053 q 258 1139 215 1139 l 610 1139 q 653 1096 653 1139 q 610 1053 653 1053 l 258 1053 z "},"Ą":{"ha":875,"x_min":44,"x_max":933,"o":"m 893 -125 q 922 -136 910 -125 q 933 -164 933 -147 q 922 -193 933 -179 q 858 -236 893 -221 q 790 -251 824 -251 q 697 -217 735 -251 q 658 -131 658 -182 q 690 -43 658 -89 l 746 33 l 661 235 l 214 235 l 128 28 q 92 0 117 0 q 71 4 82 0 q 44 40 44 17 q 49 61 44 49 l 388 875 q 436 908 401 908 l 440 908 q 486 875 475 908 l 828 61 q 832 39 833 49 q 833 31 833 36 q 825 7 833 15 l 754 -90 q 738 -131 738 -112 q 752 -160 738 -149 q 790 -172 767 -172 q 865 -136 831 -172 q 893 -125 876 -125 m 249 321 l 625 321 l 436 772 l 249 321 z "},"Å":{"ha":875,"x_min":44,"x_max":832,"o":"m 828 61 q 832 40 832 49 q 806 4 832 17 q 785 0 796 0 q 749 28 761 0 l 661 235 l 214 235 l 128 28 q 92 0 117 0 q 71 4 82 0 q 44 40 44 17 q 49 61 44 49 l 388 875 q 436 908 401 908 l 440 908 q 486 875 475 908 l 828 61 m 249 321 l 625 321 l 436 772 l 249 321 m 435 988 q 356 1015 383 988 q 328 1094 328 1043 q 356 1172 328 1144 q 435 1200 383 1200 q 513 1172 485 1200 q 540 1094 540 1144 q 513 1015 540 1043 q 435 988 485 988 m 435 1056 q 465 1063 458 1056 q 472 1094 472 1071 q 465 1125 472 1118 q 435 1132 458 1132 q 403 1125 410 1132 q 396 1094 396 1118 q 403 1063 396 1069 q 435 1056 411 1056 z "},"Ǻ":{"ha":875,"x_min":44,"x_max":832,"o":"m 828 61 q 832 40 832 49 q 806 4 832 17 q 785 0 796 0 q 749 28 761 0 l 661 235 l 214 235 l 128 28 q 92 0 117 0 q 71 4 82 0 q 44 40 44 17 q 49 61 44 49 l 388 875 q 436 908 401 908 l 440 908 q 486 875 475 908 l 828 61 m 249 321 l 625 321 l 436 772 l 249 321 m 435 988 q 356 1015 383 988 q 328 1094 328 1043 q 356 1172 328 1144 q 435 1200 383 1200 q 513 1172 485 1200 q 540 1094 540 1144 q 513 1015 540 1043 q 435 988 485 988 m 435 1056 q 465 1063 458 1056 q 472 1094 472 1071 q 465 1125 472 1118 q 435 1132 458 1132 q 403 1125 410 1132 q 396 1094 396 1118 q 403 1063 396 1069 q 435 1056 411 1056 m 401 1283 q 386 1313 386 1294 q 397 1339 386 1328 l 511 1474 q 540 1490 524 1490 q 567 1479 553 1490 q 582 1450 582 1468 q 571 1424 582 1435 l 457 1289 q 428 1272 444 1272 q 401 1283 415 1272 z "},"Ã":{"ha":875,"x_min":44,"x_max":832,"o":"m 828 61 q 832 40 832 49 q 806 4 832 17 q 785 0 796 0 q 749 28 761 0 l 661 235 l 214 235 l 128 28 q 92 0 117 0 q 71 4 82 0 q 44 40 44 17 q 49 61 44 49 l 388 875 q 436 908 401 908 l 440 908 q 486 875 475 908 l 828 61 m 249 321 l 625 321 l 436 772 l 249 321 m 529 1008 q 468 1024 493 1008 q 422 1061 443 1039 q 392 1088 404 1081 q 363 1094 379 1094 q 328 1083 342 1094 q 304 1040 315 1072 q 260 1014 290 1006 q 237 1026 244 1017 q 229 1047 229 1035 q 232 1063 229 1051 q 284 1144 253 1118 q 363 1169 315 1169 q 427 1153 401 1169 q 475 1114 453 1138 q 505 1089 496 1094 q 529 1083 514 1083 q 560 1094 547 1083 q 582 1133 572 1106 q 617 1164 593 1164 q 646 1154 635 1164 q 657 1131 657 1144 q 654 1115 657 1126 q 605 1035 635 1061 q 529 1008 575 1008 z "},"Æ":{"ha":1164,"x_min":44,"x_max":1101,"o":"m 618 0 q 575 43 575 0 l 575 235 l 246 235 l 126 24 q 92 0 115 0 q 68 7 79 0 q 44 42 44 19 q 51 65 44 56 l 511 879 q 563 908 529 908 l 1058 908 q 1101 865 1101 908 q 1058 822 1101 822 l 661 822 l 661 503 l 894 503 q 938 460 938 503 q 894 417 938 417 l 661 417 l 661 86 l 1058 86 q 1101 43 1101 86 q 1058 0 1101 0 l 618 0 m 294 321 l 575 321 l 575 806 l 565 806 l 294 321 z "},"Ǽ":{"ha":1164,"x_min":44,"x_max":1101,"o":"m 618 0 q 575 43 575 0 l 575 235 l 246 235 l 126 24 q 92 0 115 0 q 68 7 79 0 q 44 42 44 19 q 51 65 44 56 l 511 879 q 563 908 529 908 l 1058 908 q 1101 865 1101 908 q 1058 822 1101 822 l 661 822 l 661 503 l 894 503 q 938 460 938 503 q 894 417 938 417 l 661 417 l 661 86 l 1058 86 q 1101 43 1101 86 q 1058 0 1101 0 l 618 0 m 294 321 l 575 321 l 575 806 l 565 806 l 294 321 m 689 994 q 674 1024 674 1006 q 685 1050 674 1039 l 799 1185 q 828 1201 811 1201 q 854 1190 840 1201 q 869 1161 869 1179 q 858 1135 869 1146 l 744 1000 q 715 983 732 983 q 689 994 703 983 z "},"B":{"ha":883,"x_min":135,"x_max":806,"o":"m 689 510 q 806 290 806 457 l 806 246 q 742 63 806 125 q 558 0 679 0 l 178 0 q 135 43 135 0 l 135 865 q 178 908 135 908 l 540 908 q 699 855 644 908 q 754 699 754 801 l 754 661 q 689 510 754 558 m 221 535 l 558 535 l 563 535 q 569 536 564 536 q 668 661 668 538 l 668 699 q 638 794 668 765 q 540 822 608 822 l 221 822 l 221 535 m 719 290 q 682 412 719 375 q 558 449 644 449 l 221 449 l 221 86 l 558 86 q 681 124 643 86 q 719 246 719 161 l 719 290 z "},"C":{"ha":936,"x_min":111,"x_max":842,"o":"m 407 0 q 183 72 254 0 q 111 296 111 143 l 111 613 q 182 839 111 768 q 406 908 253 910 l 574 908 q 767 855 703 908 q 839 685 831 801 q 831 652 842 664 q 797 640 819 640 q 753 683 760 640 q 707 792 747 763 q 574 822 667 822 l 406 822 q 281 803 326 824 q 217 738 236 783 q 197 613 197 693 l 197 296 q 217 172 197 217 q 283 106 238 126 q 407 86 328 86 l 574 86 q 707 116 667 86 q 753 225 747 146 q 766 258 756 247 q 797 268 776 268 q 831 256 819 268 q 839 224 842 244 q 767 53 831 107 q 574 0 703 0 l 407 0 z "},"Ć":{"ha":936,"x_min":111,"x_max":839,"o":"m 407 0 q 183 72 254 0 q 111 296 111 143 l 111 613 q 182 839 111 768 q 406 908 253 910 l 574 908 q 767 855 703 908 q 839 685 831 801 q 831 652 842 664 q 797 640 819 640 q 753 683 760 640 q 707 792 747 763 q 574 822 667 822 l 406 822 q 281 803 326 824 q 217 738 236 783 q 197 613 197 693 l 197 296 q 217 172 197 217 q 283 106 238 126 q 407 86 328 86 l 574 86 q 707 116 667 86 q 753 225 747 146 q 766 258 756 247 q 797 268 776 268 q 831 256 819 268 q 839 224 842 244 q 767 53 831 107 q 574 0 703 0 l 407 0 m 453 994 q 438 1024 438 1006 q 449 1050 438 1039 l 563 1185 q 592 1201 575 1201 q 618 1190 604 1201 q 633 1161 633 1179 q 622 1135 633 1146 l 508 1000 q 479 983 496 983 q 453 994 467 983 z "},"Č":{"ha":936,"x_min":111,"x_max":839,"o":"m 407 0 q 183 72 254 0 q 111 296 111 143 l 111 613 q 182 839 111 768 q 406 908 253 910 l 574 908 q 767 855 703 908 q 839 685 831 801 q 831 652 842 664 q 797 640 819 640 q 753 683 760 640 q 707 792 747 763 q 574 822 667 822 l 406 822 q 281 803 326 824 q 217 738 236 783 q 197 613 197 693 l 197 296 q 217 172 197 217 q 283 106 238 126 q 407 86 328 86 l 574 86 q 707 116 667 86 q 753 225 747 146 q 766 258 756 247 q 797 268 776 268 q 831 256 819 268 q 839 224 842 244 q 767 53 831 107 q 574 0 703 0 l 407 0 m 335 1193 q 364 1182 350 1193 l 499 1069 l 507 1069 l 642 1182 q 671 1193 656 1193 q 699 1181 688 1193 q 711 1153 711 1169 q 693 1119 711 1131 l 558 1007 q 508 989 536 989 l 497 989 q 447 1007 469 989 l 313 1119 q 294 1153 294 1131 q 306 1181 294 1169 q 335 1193 318 1193 z "},"Ç":{"ha":936,"x_min":111,"x_max":842,"o":"m 797 268 q 831 256 819 268 q 839 224 842 244 q 767 53 831 107 q 574 0 703 0 l 569 0 q 601 -29 575 -11 q 648 -72 629 -49 q 667 -135 667 -94 q 629 -250 667 -212 q 515 -287 592 -287 q 390 -162 390 -287 q 429 -124 390 -124 q 467 -162 467 -124 q 476 -201 467 -192 q 515 -210 486 -210 q 575 -195 560 -210 q 590 -135 590 -181 q 584 -115 590 -122 q 558 -92 578 -107 q 514 -55 532 -75 q 490 0 496 -35 l 407 0 q 183 72 254 0 q 111 296 111 143 l 111 613 q 182 839 111 768 q 406 908 253 910 l 574 908 q 767 855 703 908 q 839 685 831 801 q 831 652 842 664 q 797 640 819 640 q 753 683 760 640 q 707 792 747 763 q 574 822 667 822 l 406 822 q 281 803 326 824 q 217 738 236 783 q 197 613 197 693 l 197 296 q 217 172 197 217 q 283 106 238 126 q 407 86 328 86 l 574 86 q 707 116 667 86 q 753 225 747 146 q 766 258 756 247 q 797 268 776 268 z "},"Ĉ":{"ha":936,"x_min":111,"x_max":839,"o":"m 407 0 q 183 72 254 0 q 111 296 111 143 l 111 613 q 182 839 111 768 q 406 908 253 910 l 574 908 q 767 855 703 908 q 839 685 831 801 q 831 652 842 664 q 797 640 819 640 q 753 683 760 640 q 707 792 747 763 q 574 822 667 822 l 406 822 q 281 803 326 824 q 217 738 236 783 q 197 613 197 693 l 197 296 q 217 172 197 217 q 283 106 238 126 q 407 86 328 86 l 574 86 q 707 116 667 86 q 753 225 747 146 q 766 258 756 247 q 797 268 776 268 q 831 256 819 268 q 839 224 842 244 q 767 53 831 107 q 574 0 703 0 l 407 0 m 360 985 q 332 996 343 985 q 321 1022 321 1007 q 331 1049 321 1035 l 436 1172 q 482 1194 454 1194 l 500 1194 q 547 1172 526 1194 l 653 1049 q 661 1022 661 1036 q 650 996 661 1007 q 624 985 639 985 q 594 997 604 985 l 497 1117 l 485 1117 l 389 997 q 360 985 376 985 z "},"Ċ":{"ha":936,"x_min":111,"x_max":839,"o":"m 407 0 q 183 72 254 0 q 111 296 111 143 l 111 613 q 182 839 111 768 q 406 908 253 910 l 574 908 q 767 855 703 908 q 839 685 831 801 q 831 652 842 664 q 797 640 819 640 q 753 683 760 640 q 707 792 747 763 q 574 822 667 822 l 406 822 q 281 803 326 824 q 217 738 236 783 q 197 613 197 693 l 197 296 q 217 172 197 217 q 283 106 238 126 q 407 86 328 86 l 574 86 q 707 116 667 86 q 753 225 747 146 q 766 258 756 247 q 797 268 776 268 q 831 256 819 268 q 839 224 842 244 q 767 53 831 107 q 574 0 703 0 l 407 0 m 472 1031 q 419 1085 419 1031 l 419 1121 q 433 1159 419 1146 q 472 1172 446 1172 l 506 1172 q 544 1158 531 1172 q 557 1121 557 1144 l 557 1085 q 544 1044 557 1058 q 506 1031 531 1031 l 472 1031 z "},"D":{"ha":961,"x_min":135,"x_max":850,"o":"m 178 0 q 135 43 135 0 l 135 865 q 178 908 135 908 l 513 908 q 769 828 688 908 q 850 571 850 747 l 850 338 q 769 81 850 163 q 513 0 688 0 l 178 0 m 513 86 q 660 110 606 86 q 740 189 715 135 q 764 338 764 243 l 764 571 q 740 719 764 665 q 660 798 715 774 q 513 822 606 822 l 221 822 l 221 86 l 513 86 z "},"Ǳ":{"ha":1794,"x_min":135,"x_max":1729,"o":"m 178 0 q 135 43 135 0 l 135 865 q 178 908 135 908 l 513 908 q 769 828 688 908 q 850 571 850 747 l 850 338 q 769 81 850 163 q 513 0 688 0 l 178 0 m 513 86 q 660 110 606 86 q 740 189 715 135 q 764 338 764 243 l 764 571 q 740 719 764 665 q 660 798 715 774 q 513 822 606 822 l 221 822 l 221 86 l 513 86 m 1688 213 q 1719 201 1708 213 q 1729 167 1731 189 q 1665 42 1718 85 q 1519 0 1611 0 l 1032 0 q 989 43 989 0 q 1007 86 989 60 l 1565 822 l 1179 822 q 1094 802 1124 822 q 1057 738 1065 782 q 1013 696 1050 696 q 979 708 990 696 q 971 742 968 719 q 1034 866 981 824 q 1179 908 1088 908 l 1640 908 q 1683 865 1683 908 q 1667 821 1683 843 l 1113 86 l 1519 86 q 1606 106 1576 86 q 1642 171 1635 126 q 1656 202 1646 192 q 1688 213 1667 213 z "},"Ǆ":{"ha":1794,"x_min":135,"x_max":1729,"o":"m 178 0 q 135 43 135 0 l 135 865 q 178 908 135 908 l 513 908 q 769 828 688 908 q 850 571 850 747 l 850 338 q 769 81 850 163 q 513 0 688 0 l 178 0 m 513 86 q 660 110 606 86 q 740 189 715 135 q 764 338 764 243 l 764 571 q 740 719 764 665 q 660 798 715 774 q 513 822 606 822 l 221 822 l 221 86 l 513 86 m 1688 213 q 1719 201 1708 213 q 1729 167 1731 189 q 1665 42 1718 85 q 1519 0 1611 0 l 1032 0 q 989 43 989 0 q 1007 86 989 60 l 1565 822 l 1179 822 q 1094 802 1124 822 q 1057 738 1065 782 q 1013 696 1050 696 q 979 708 990 696 q 971 742 968 719 q 1034 866 981 824 q 1179 908 1088 908 l 1640 908 q 1683 865 1683 908 q 1667 821 1683 843 l 1113 86 l 1519 86 q 1606 106 1576 86 q 1642 171 1635 126 q 1656 202 1646 192 q 1688 213 1667 213 m 1186 1193 q 1215 1182 1201 1193 l 1350 1069 l 1358 1069 l 1493 1182 q 1522 1193 1507 1193 q 1551 1181 1539 1193 q 1563 1153 1563 1169 q 1544 1119 1563 1131 l 1410 1007 q 1360 989 1388 989 l 1349 989 q 1299 1007 1321 989 l 1164 1119 q 1146 1153 1146 1131 q 1158 1181 1146 1169 q 1186 1193 1169 1193 z "},"Ð":{"ha":961,"x_min":17,"x_max":850,"o":"m 513 908 q 769 828 688 908 q 850 571 850 747 l 850 338 q 769 81 850 163 q 513 0 688 0 l 178 0 q 135 43 135 0 l 135 418 l 56 418 q 17 457 17 418 q 56 496 17 496 l 135 496 l 135 865 q 178 908 135 908 l 513 908 m 764 571 q 740 719 764 665 q 660 798 715 774 q 513 822 606 822 l 221 822 l 221 496 l 417 496 q 454 457 454 496 q 417 418 454 418 l 221 418 l 221 86 l 513 86 q 660 110 606 86 q 740 189 715 135 q 764 338 764 243 l 764 571 z "},"Ď":{"ha":961,"x_min":135,"x_max":850,"o":"m 178 0 q 135 43 135 0 l 135 865 q 178 908 135 908 l 513 908 q 769 828 688 908 q 850 571 850 747 l 850 338 q 769 81 850 163 q 513 0 688 0 l 178 0 m 513 86 q 660 110 606 86 q 740 189 715 135 q 764 338 764 243 l 764 571 q 740 719 764 665 q 660 798 715 774 q 513 822 606 822 l 221 822 l 221 86 l 513 86 m 294 1193 q 324 1182 310 1193 l 458 1069 l 467 1069 l 601 1182 q 631 1193 615 1193 q 659 1181 647 1193 q 671 1153 671 1169 q 653 1119 671 1131 l 518 1007 q 468 989 496 989 l 457 989 q 407 1007 429 989 l 272 1119 q 254 1153 254 1131 q 266 1181 254 1169 q 294 1193 278 1193 z "},"Đ":{"ha":961,"x_min":17,"x_max":850,"o":"m 513 908 q 769 828 688 908 q 850 571 850 747 l 850 338 q 769 81 850 163 q 513 0 688 0 l 178 0 q 135 43 135 0 l 135 418 l 56 418 q 17 457 17 418 q 56 496 17 496 l 135 496 l 135 865 q 178 908 135 908 l 513 908 m 764 571 q 740 719 764 665 q 660 798 715 774 q 513 822 606 822 l 221 822 l 221 496 l 417 496 q 454 457 454 496 q 417 418 454 418 l 221 418 l 221 86 l 513 86 q 660 110 606 86 q 740 189 715 135 q 764 338 764 243 l 764 571 z "},"ǲ":{"ha":1606,"x_min":135,"x_max":1556,"o":"m 178 0 q 135 43 135 0 l 135 865 q 178 908 135 908 l 513 908 q 769 828 688 908 q 850 571 850 747 l 850 338 q 769 81 850 163 q 513 0 688 0 l 178 0 m 513 86 q 660 110 606 86 q 740 189 715 135 q 764 338 764 243 l 764 571 q 740 719 764 665 q 660 798 715 774 q 513 822 606 822 l 221 822 l 221 86 l 513 86 m 1514 185 q 1547 173 1536 185 q 1556 140 1558 161 q 1374 0 1532 0 l 1007 0 q 964 43 964 0 q 982 88 964 64 l 1385 585 l 1121 585 q 1053 573 1074 585 q 1026 528 1032 561 q 1011 496 1021 506 q 982 486 1001 486 q 948 498 960 486 q 939 531 936 510 q 994 637 949 603 q 1121 671 1039 671 l 1461 671 q 1504 628 1504 671 q 1486 583 1504 607 l 1088 88 l 1374 86 q 1440 99 1417 86 q 1468 144 1463 113 q 1484 175 1474 165 q 1514 185 1494 185 z "},"ǅ":{"ha":1606,"x_min":135,"x_max":1556,"o":"m 178 0 q 135 43 135 0 l 135 865 q 178 908 135 908 l 513 908 q 769 828 688 908 q 850 571 850 747 l 850 338 q 769 81 850 163 q 513 0 688 0 l 178 0 m 513 86 q 660 110 606 86 q 740 189 715 135 q 764 338 764 243 l 764 571 q 740 719 764 665 q 660 798 715 774 q 513 822 606 822 l 221 822 l 221 86 l 513 86 m 1514 185 q 1547 173 1536 185 q 1556 140 1558 161 q 1374 0 1532 0 l 1007 0 q 964 43 964 0 q 982 88 964 64 l 1385 585 l 1121 585 q 1053 573 1074 585 q 1026 528 1032 561 q 1011 496 1021 506 q 982 486 1001 486 q 948 498 960 486 q 939 531 936 510 q 994 637 949 603 q 1121 671 1039 671 l 1461 671 q 1504 628 1504 671 q 1486 583 1504 607 l 1088 88 l 1374 86 q 1440 99 1417 86 q 1468 144 1463 113 q 1484 175 1474 165 q 1514 185 1494 185 m 1099 956 q 1128 944 1114 956 l 1263 832 l 1271 832 l 1406 944 q 1435 956 1419 956 q 1463 944 1451 956 q 1475 915 1475 932 q 1457 882 1475 893 l 1322 769 q 1272 751 1300 751 l 1261 751 q 1211 769 1233 751 l 1076 882 q 1058 915 1058 893 q 1070 944 1058 932 q 1099 956 1082 956 z "},"E":{"ha":797,"x_min":135,"x_max":735,"o":"m 692 86 q 735 43 735 86 q 692 0 735 0 l 178 0 q 135 43 135 0 l 135 865 q 178 908 135 908 l 692 908 q 735 865 735 908 q 692 822 735 822 l 221 822 l 221 503 l 528 503 q 571 460 571 503 q 528 417 571 417 l 221 417 l 221 86 l 692 86 z "},"É":{"ha":797,"x_min":135,"x_max":735,"o":"m 692 86 q 735 43 735 86 q 692 0 735 0 l 178 0 q 135 43 135 0 l 135 865 q 178 908 135 908 l 692 908 q 735 865 735 908 q 692 822 735 822 l 221 822 l 221 503 l 528 503 q 571 460 571 503 q 528 417 571 417 l 221 417 l 221 86 l 692 86 m 421 994 q 406 1024 406 1006 q 417 1050 406 1039 l 531 1185 q 560 1201 543 1201 q 586 1190 572 1201 q 601 1161 601 1179 q 590 1135 601 1146 l 476 1000 q 447 983 464 983 q 421 994 435 983 z "},"Ĕ":{"ha":797,"x_min":135,"x_max":735,"o":"m 692 86 q 735 43 735 86 q 692 0 735 0 l 178 0 q 135 43 135 0 l 135 865 q 178 908 135 908 l 692 908 q 735 865 735 908 q 692 822 735 822 l 221 822 l 221 503 l 528 503 q 571 460 571 503 q 528 417 571 417 l 221 417 l 221 86 l 692 86 m 464 982 q 333 1021 378 982 q 288 1133 288 1060 l 288 1149 q 326 1188 288 1188 q 367 1149 367 1188 l 367 1133 q 389 1074 367 1092 q 467 1056 411 1056 q 546 1074 524 1057 q 568 1133 568 1092 l 568 1156 q 607 1188 568 1188 q 647 1149 647 1188 l 647 1133 q 600 1019 647 1057 q 464 982 553 982 z "},"Ě":{"ha":797,"x_min":135,"x_max":735,"o":"m 692 86 q 735 43 735 86 q 692 0 735 0 l 178 0 q 135 43 135 0 l 135 865 q 178 908 135 908 l 692 908 q 735 865 735 908 q 692 822 735 822 l 221 822 l 221 503 l 528 503 q 571 460 571 503 q 528 417 571 417 l 221 417 l 221 86 l 692 86 m 303 1193 q 332 1182 318 1193 l 467 1069 l 475 1069 l 610 1182 q 639 1193 624 1193 q 667 1181 656 1193 q 679 1153 679 1169 q 661 1119 679 1131 l 526 1007 q 476 989 504 989 l 465 989 q 415 1007 438 989 l 281 1119 q 263 1153 263 1131 q 274 1181 263 1169 q 303 1193 286 1193 z "},"Ê":{"ha":797,"x_min":135,"x_max":735,"o":"m 692 86 q 735 43 735 86 q 692 0 735 0 l 178 0 q 135 43 135 0 l 135 865 q 178 908 135 908 l 692 908 q 735 865 735 908 q 692 822 735 822 l 221 822 l 221 503 l 528 503 q 571 460 571 503 q 528 417 571 417 l 221 417 l 221 86 l 692 86 m 288 983 q 259 995 271 983 q 247 1024 247 1007 q 265 1057 247 1046 l 400 1169 q 450 1188 422 1188 l 461 1188 q 511 1169 489 1188 l 646 1057 q 664 1024 664 1046 q 652 995 664 1007 q 624 983 640 983 q 594 994 608 983 l 460 1107 l 451 1107 l 317 994 q 288 983 303 983 z "},"Ế":{"ha":797,"x_min":135,"x_max":735,"o":"m 692 86 q 735 43 735 86 q 692 0 735 0 l 178 0 q 135 43 135 0 l 135 865 q 178 908 135 908 l 692 908 q 735 865 735 908 q 692 822 735 822 l 221 822 l 221 503 l 528 503 q 571 460 571 503 q 528 417 571 417 l 221 417 l 221 86 l 692 86 m 611 1124 q 583 1137 596 1124 q 569 1165 569 1150 q 581 1193 569 1181 l 661 1288 q 692 1303 674 1303 q 720 1290 707 1303 q 733 1261 733 1276 q 722 1233 733 1249 l 642 1140 q 611 1124 628 1124 m 290 983 q 262 995 274 983 q 250 1024 250 1007 q 268 1057 250 1046 l 403 1169 q 453 1188 425 1188 l 464 1188 q 514 1169 492 1188 l 649 1057 q 667 1024 667 1046 q 655 995 667 1007 q 626 983 643 983 q 597 994 611 983 l 463 1107 l 454 1107 l 319 994 q 290 983 306 983 z "},"Ệ":{"ha":797,"x_min":135,"x_max":735,"o":"m 692 86 q 735 43 735 86 q 692 0 735 0 l 178 0 q 135 43 135 0 l 135 865 q 178 908 135 908 l 692 908 q 735 865 735 908 q 692 822 735 822 l 221 822 l 221 503 l 528 503 q 571 460 571 503 q 528 417 571 417 l 221 417 l 221 86 l 692 86 m 433 -212 q 389 -167 389 -212 l 389 -137 q 433 -94 389 -94 l 461 -94 q 504 -137 504 -94 l 504 -167 q 493 -201 504 -189 q 461 -212 482 -212 l 433 -212 m 288 983 q 259 995 271 983 q 247 1024 247 1007 q 265 1057 247 1046 l 400 1169 q 450 1188 422 1188 l 461 1188 q 511 1169 489 1188 l 646 1057 q 664 1024 664 1046 q 652 995 664 1007 q 624 983 640 983 q 594 994 608 983 l 460 1107 l 451 1107 l 317 994 q 288 983 303 983 z "},"Ề":{"ha":797,"x_min":135,"x_max":735,"o":"m 692 86 q 735 43 735 86 q 692 0 735 0 l 178 0 q 135 43 135 0 l 135 865 q 178 908 135 908 l 692 908 q 735 865 735 908 q 692 822 735 822 l 221 822 l 221 503 l 528 503 q 571 460 571 503 q 528 417 571 417 l 221 417 l 221 86 l 692 86 m 269 1124 q 239 1140 253 1124 l 158 1233 q 147 1261 147 1247 q 160 1290 147 1276 q 189 1303 174 1303 q 219 1288 207 1303 l 300 1193 q 311 1165 311 1181 q 298 1137 311 1150 q 269 1124 285 1124 m 289 983 q 260 995 272 983 q 249 1024 249 1007 q 267 1057 249 1046 l 401 1169 q 451 1188 424 1188 l 463 1188 q 513 1169 490 1188 l 647 1057 q 665 1024 665 1046 q 653 995 665 1007 q 625 983 642 983 q 596 994 610 983 l 461 1107 l 453 1107 l 318 994 q 289 983 304 983 z "},"Ể":{"ha":797,"x_min":135,"x_max":735,"o":"m 692 86 q 735 43 735 86 q 692 0 735 0 l 178 0 q 135 43 135 0 l 135 865 q 178 908 135 908 l 692 908 q 735 865 735 908 q 692 822 735 822 l 221 822 l 221 503 l 528 503 q 571 460 571 503 q 528 417 571 417 l 221 417 l 221 86 l 692 86 m 289 983 q 260 995 272 983 q 249 1024 249 1007 q 267 1057 249 1046 l 401 1169 q 451 1188 424 1188 l 463 1188 q 513 1169 490 1188 l 647 1057 q 665 1024 665 1046 q 653 995 665 1007 q 625 983 642 983 q 596 994 610 983 l 461 1107 l 453 1107 l 318 994 q 289 983 304 983 m 583 1154 q 558 1162 565 1154 q 550 1188 550 1169 q 568 1247 550 1226 q 615 1286 586 1268 q 642 1305 636 1299 q 647 1322 647 1311 q 637 1365 647 1354 q 594 1375 626 1375 q 553 1365 563 1375 q 543 1322 543 1354 q 535 1297 543 1304 q 508 1289 526 1289 q 483 1297 490 1289 q 475 1322 475 1304 q 594 1442 475 1442 q 715 1322 715 1442 q 698 1267 715 1286 q 651 1228 681 1247 q 623 1208 629 1215 q 617 1188 617 1200 q 609 1162 617 1169 q 583 1154 601 1154 z "},"Ễ":{"ha":797,"x_min":135,"x_max":735,"o":"m 692 86 q 735 43 735 86 q 692 0 735 0 l 178 0 q 135 43 135 0 l 135 865 q 178 908 135 908 l 692 908 q 735 865 735 908 q 692 822 735 822 l 221 822 l 221 503 l 528 503 q 571 460 571 503 q 528 417 571 417 l 221 417 l 221 86 l 692 86 m 289 983 q 260 995 272 983 q 249 1024 249 1007 q 267 1057 249 1046 l 401 1169 q 451 1188 424 1188 l 463 1188 q 513 1169 490 1188 l 647 1057 q 665 1024 665 1046 q 653 995 665 1007 q 625 983 642 983 q 596 994 610 983 l 461 1107 l 453 1107 l 318 994 q 289 983 304 983 m 550 1225 q 489 1240 514 1225 q 443 1278 464 1256 q 413 1304 425 1297 q 383 1311 400 1311 q 349 1300 363 1311 q 325 1257 336 1289 q 281 1231 311 1222 q 258 1242 265 1233 q 250 1264 250 1251 q 253 1279 250 1268 q 305 1360 274 1335 q 383 1386 336 1386 q 448 1370 422 1386 q 496 1331 474 1354 q 526 1306 517 1311 q 550 1300 535 1300 q 581 1311 568 1300 q 603 1350 593 1322 q 638 1381 614 1381 q 667 1371 656 1381 q 678 1347 678 1361 q 675 1332 678 1343 q 626 1251 656 1278 q 550 1225 596 1225 z "},"Ȅ":{"ha":797,"x_min":135,"x_max":735,"o":"m 260 1139 q 249 1163 249 1153 q 264 1189 249 1176 q 288 1200 275 1200 q 314 1185 303 1200 l 417 1063 q 426 1039 426 1053 q 413 1013 426 1025 q 388 1003 401 1003 q 363 1018 372 1003 l 260 1139 m 417 1139 q 406 1163 406 1153 q 421 1189 406 1176 q 444 1200 432 1200 q 471 1185 460 1200 l 574 1063 q 583 1039 583 1053 q 569 1013 583 1025 q 544 1003 558 1003 q 519 1018 529 1003 l 417 1139 m 692 86 q 735 43 735 86 q 692 0 735 0 l 178 0 q 135 43 135 0 l 135 865 q 178 908 135 908 l 692 908 q 735 865 735 908 q 692 822 735 822 l 221 822 l 221 503 l 528 503 q 571 460 571 503 q 528 417 571 417 l 221 417 l 221 86 l 692 86 z "},"Ë":{"ha":797,"x_min":135,"x_max":735,"o":"m 692 86 q 735 43 735 86 q 692 0 735 0 l 178 0 q 135 43 135 0 l 135 865 q 178 908 135 908 l 692 908 q 735 865 735 908 q 692 822 735 822 l 221 822 l 221 503 l 528 503 q 571 460 571 503 q 528 417 571 417 l 221 417 l 221 86 l 692 86 m 336 1021 q 292 1067 292 1021 l 292 1096 q 336 1139 292 1139 l 364 1139 q 407 1096 407 1139 l 407 1067 q 396 1033 407 1044 q 364 1021 385 1021 l 336 1021 m 550 1021 q 506 1067 506 1021 l 506 1096 q 550 1139 506 1139 l 578 1139 q 621 1096 621 1139 l 621 1067 q 610 1033 621 1044 q 578 1021 599 1021 l 550 1021 z "},"Ė":{"ha":797,"x_min":135,"x_max":735,"o":"m 692 86 q 735 43 735 86 q 692 0 735 0 l 178 0 q 135 43 135 0 l 135 865 q 178 908 135 908 l 692 908 q 735 865 735 908 q 692 822 735 822 l 221 822 l 221 503 l 528 503 q 571 460 571 503 q 528 417 571 417 l 221 417 l 221 86 l 692 86 m 440 1031 q 388 1085 388 1031 l 388 1121 q 401 1159 388 1146 q 440 1172 414 1172 l 474 1172 q 512 1158 499 1172 q 525 1121 525 1144 l 525 1085 q 512 1044 525 1058 q 474 1031 499 1031 l 440 1031 z "},"Ẹ":{"ha":797,"x_min":135,"x_max":735,"o":"m 692 86 q 735 43 735 86 q 692 0 735 0 l 178 0 q 135 43 135 0 l 135 865 q 178 908 135 908 l 692 908 q 735 865 735 908 q 692 822 735 822 l 221 822 l 221 503 l 528 503 q 571 460 571 503 q 528 417 571 417 l 221 417 l 221 86 l 692 86 m 433 -212 q 389 -167 389 -212 l 389 -137 q 433 -94 389 -94 l 461 -94 q 504 -137 504 -94 l 504 -167 q 493 -201 504 -189 q 461 -212 482 -212 l 433 -212 z "},"È":{"ha":797,"x_min":135,"x_max":735,"o":"m 692 86 q 735 43 735 86 q 692 0 735 0 l 178 0 q 135 43 135 0 l 135 865 q 178 908 135 908 l 692 908 q 735 865 735 908 q 692 822 735 822 l 221 822 l 221 503 l 528 503 q 571 460 571 503 q 528 417 571 417 l 221 417 l 221 86 l 692 86 m 506 982 q 479 971 492 971 q 450 988 463 971 l 336 1122 q 325 1149 325 1133 q 340 1178 325 1167 q 367 1189 354 1189 q 396 1172 383 1189 l 510 1038 q 521 1011 521 1026 q 506 982 521 993 z "},"Ẻ":{"ha":797,"x_min":135,"x_max":735,"o":"m 692 86 q 735 43 735 86 q 692 0 735 0 l 178 0 q 135 43 135 0 l 135 865 q 178 908 135 908 l 692 908 q 735 865 735 908 q 692 822 735 822 l 221 822 l 221 503 l 528 503 q 571 460 571 503 q 528 417 571 417 l 221 417 l 221 86 l 692 86 m 457 985 q 431 992 439 985 q 424 1018 424 1000 q 442 1078 424 1057 q 489 1117 460 1099 q 515 1135 510 1129 q 521 1153 521 1142 q 510 1195 521 1185 q 468 1206 500 1206 q 426 1195 436 1206 q 417 1153 417 1185 q 408 1127 417 1135 q 382 1119 400 1119 q 356 1127 364 1119 q 349 1153 349 1135 q 468 1272 349 1272 q 589 1153 589 1272 q 572 1097 589 1117 q 525 1058 554 1078 q 497 1038 503 1046 q 490 1018 490 1031 q 483 992 490 1000 q 457 985 475 985 z "},"Ȇ":{"ha":797,"x_min":135,"x_max":735,"o":"m 692 86 q 735 43 735 86 q 692 0 735 0 l 178 0 q 135 43 135 0 l 135 865 q 178 908 135 908 l 692 908 q 735 865 735 908 q 692 822 735 822 l 221 822 l 221 503 l 528 503 q 571 460 571 503 q 528 417 571 417 l 221 417 l 221 86 l 692 86 m 453 1219 q 589 1182 542 1219 q 636 1068 636 1144 l 636 1053 q 596 1014 636 1014 q 557 1046 557 1014 l 557 1068 q 535 1127 557 1110 q 456 1146 513 1144 q 378 1128 400 1146 q 356 1068 356 1110 l 356 1053 q 315 1014 356 1014 q 276 1053 276 1014 l 276 1068 q 322 1181 276 1142 q 453 1219 367 1219 z "},"Ē":{"ha":797,"x_min":135,"x_max":735,"o":"m 692 86 q 735 43 735 86 q 692 0 735 0 l 178 0 q 135 43 135 0 l 135 865 q 178 908 135 908 l 692 908 q 735 865 735 908 q 692 822 735 822 l 221 822 l 221 503 l 528 503 q 571 460 571 503 q 528 417 571 417 l 221 417 l 221 86 l 692 86 m 278 1053 q 235 1096 235 1053 q 278 1139 235 1139 l 629 1139 q 672 1096 672 1139 q 629 1053 672 1053 l 278 1053 z "},"Ę":{"ha":797,"x_min":135,"x_max":849,"o":"m 808 -99 q 837 -110 825 -99 q 849 -137 849 -121 q 838 -167 849 -153 q 774 -210 808 -194 q 706 -225 739 -225 q 612 -190 650 -225 q 574 -104 574 -156 q 606 -17 574 -62 l 618 0 l 178 0 q 135 43 135 0 l 135 865 q 178 908 135 908 l 692 908 q 735 865 735 908 q 692 822 735 822 l 221 822 l 221 503 l 528 503 q 571 460 571 503 q 528 417 571 417 l 221 417 l 221 86 l 682 86 q 708 96 692 96 q 737 85 725 96 q 749 57 749 74 q 740 33 749 42 l 728 15 q 727 15 728 15 q 726 14 726 15 l 669 -64 q 653 -104 653 -86 q 667 -134 653 -122 q 706 -146 682 -146 q 781 -110 746 -146 q 808 -99 792 -99 z "},"Ẽ":{"ha":797,"x_min":135,"x_max":735,"o":"m 692 86 q 735 43 735 86 q 692 0 735 0 l 178 0 q 135 43 135 0 l 135 865 q 178 908 135 908 l 692 908 q 735 865 735 908 q 692 822 735 822 l 221 822 l 221 503 l 528 503 q 571 460 571 503 q 528 417 571 417 l 221 417 l 221 86 l 692 86 m 549 1008 q 488 1024 513 1008 q 442 1061 463 1039 q 411 1088 424 1081 q 382 1094 399 1094 q 348 1083 361 1094 q 324 1040 335 1072 q 279 1014 310 1006 q 256 1026 264 1017 q 249 1047 249 1035 q 251 1063 249 1051 q 303 1144 272 1118 q 382 1169 335 1169 q 447 1153 421 1169 q 494 1114 472 1138 q 524 1089 515 1094 q 549 1083 533 1083 q 579 1094 567 1083 q 601 1133 592 1106 q 636 1164 613 1164 q 665 1154 654 1164 q 676 1131 676 1144 q 674 1115 676 1126 q 624 1035 654 1061 q 549 1008 594 1008 z "},"F":{"ha":724,"x_min":135,"x_max":724,"o":"m 178 0 q 135 43 135 0 l 135 865 q 178 908 135 908 l 681 908 q 724 865 724 908 q 681 822 724 822 l 221 822 l 221 503 l 525 503 q 568 460 568 503 q 525 417 568 417 l 221 417 l 221 43 q 178 0 221 0 z "},"G":{"ha":939,"x_min":111,"x_max":842,"o":"m 407 0 q 183 72 254 0 q 111 296 111 143 l 111 613 q 182 839 111 768 q 406 908 253 910 l 574 908 q 767 855 703 908 q 839 685 831 801 q 831 652 842 664 q 797 640 819 640 q 753 683 760 640 q 707 792 747 763 q 574 822 667 822 l 406 822 q 281 803 326 824 q 217 738 236 783 q 197 613 197 693 l 197 296 q 217 172 197 217 q 283 106 238 126 q 407 86 328 86 l 574 86 q 683 103 644 86 q 739 158 722 119 q 756 268 756 197 l 756 349 l 617 350 q 574 393 574 350 q 617 436 574 436 l 799 435 q 842 392 842 435 l 842 268 q 778 64 842 128 q 574 0 714 0 l 407 0 z "},"Ğ":{"ha":939,"x_min":111,"x_max":842,"o":"m 407 0 q 183 72 254 0 q 111 296 111 143 l 111 613 q 182 839 111 768 q 406 908 253 910 l 574 908 q 767 855 703 908 q 839 685 831 801 q 831 652 842 664 q 797 640 819 640 q 753 683 760 640 q 707 792 747 763 q 574 822 667 822 l 406 822 q 281 803 326 824 q 217 738 236 783 q 197 613 197 693 l 197 296 q 217 172 197 217 q 283 106 238 126 q 407 86 328 86 l 574 86 q 683 103 644 86 q 739 158 722 119 q 756 268 756 197 l 756 349 l 617 350 q 574 393 574 350 q 617 436 574 436 l 799 435 q 842 392 842 435 l 842 268 q 778 64 842 128 q 574 0 714 0 l 407 0 m 490 982 q 359 1021 404 982 q 314 1133 314 1060 l 314 1149 q 353 1188 314 1188 q 393 1149 393 1188 l 393 1133 q 415 1074 393 1092 q 493 1056 438 1056 q 572 1074 550 1057 q 594 1133 594 1092 l 594 1156 q 633 1188 594 1188 q 674 1149 674 1188 l 674 1133 q 626 1019 674 1057 q 490 982 579 982 z "},"Ǧ":{"ha":939,"x_min":111,"x_max":842,"o":"m 407 0 q 183 72 254 0 q 111 296 111 143 l 111 613 q 182 839 111 768 q 406 908 253 910 l 574 908 q 767 855 703 908 q 839 685 831 801 q 831 652 842 664 q 797 640 819 640 q 753 683 760 640 q 707 792 747 763 q 574 822 667 822 l 406 822 q 281 803 326 824 q 217 738 236 783 q 197 613 197 693 l 197 296 q 217 172 197 217 q 283 106 238 126 q 407 86 328 86 l 574 86 q 683 103 644 86 q 739 158 722 119 q 756 268 756 197 l 756 349 l 617 350 q 574 393 574 350 q 617 436 574 436 l 799 435 q 842 392 842 435 l 842 268 q 778 64 842 128 q 574 0 714 0 l 407 0 m 351 1194 q 381 1182 368 1194 l 476 1063 l 489 1063 l 586 1182 q 615 1194 596 1194 q 642 1183 631 1194 q 653 1157 653 1172 q 644 1131 653 1143 l 539 1007 q 492 985 518 985 l 474 985 q 428 1007 446 985 l 322 1131 q 313 1157 313 1146 q 324 1183 313 1172 q 351 1194 335 1194 z "},"Ĝ":{"ha":939,"x_min":111,"x_max":842,"o":"m 407 0 q 183 72 254 0 q 111 296 111 143 l 111 613 q 182 839 111 768 q 406 908 253 910 l 574 908 q 767 855 703 908 q 839 685 831 801 q 831 652 842 664 q 797 640 819 640 q 753 683 760 640 q 707 792 747 763 q 574 822 667 822 l 406 822 q 281 803 326 824 q 217 738 236 783 q 197 613 197 693 l 197 296 q 217 172 197 217 q 283 106 238 126 q 407 86 328 86 l 574 86 q 683 103 644 86 q 739 158 722 119 q 756 268 756 197 l 756 349 l 617 350 q 574 393 574 350 q 617 436 574 436 l 799 435 q 842 392 842 435 l 842 268 q 778 64 842 128 q 574 0 714 0 l 407 0 m 354 985 q 326 996 338 985 q 315 1022 315 1007 q 325 1049 315 1035 l 431 1172 q 476 1194 449 1194 l 494 1194 q 542 1172 521 1194 l 647 1049 q 656 1022 656 1036 q 644 996 656 1007 q 618 985 633 985 q 589 997 599 985 l 492 1117 l 479 1117 l 383 997 q 354 985 371 985 z "},"Ģ":{"ha":939,"x_min":111,"x_max":842,"o":"m 407 0 q 183 72 254 0 q 111 296 111 143 l 111 613 q 182 839 111 768 q 406 908 253 910 l 574 908 q 767 855 703 908 q 839 685 831 801 q 831 652 842 664 q 797 640 819 640 q 753 683 760 640 q 707 792 747 763 q 574 822 667 822 l 406 822 q 281 803 326 824 q 217 738 236 783 q 197 613 197 693 l 197 296 q 217 172 197 217 q 283 106 238 126 q 407 86 328 86 l 574 86 q 683 103 644 86 q 739 158 722 119 q 756 268 756 197 l 756 349 l 617 350 q 574 393 574 350 q 617 436 574 436 l 799 435 q 842 392 842 435 l 842 268 q 778 64 842 128 q 574 0 714 0 l 407 0 m 561 -129 q 557 -149 561 -140 l 558 -149 l 501 -272 q 472 -293 490 -293 q 449 -284 458 -293 q 442 -260 439 -275 l 469 -103 q 504 -68 469 -68 l 526 -68 q 561 -104 561 -68 l 561 -129 z "},"Ġ":{"ha":939,"x_min":111,"x_max":842,"o":"m 407 0 q 183 72 254 0 q 111 296 111 143 l 111 613 q 182 839 111 768 q 406 908 253 910 l 574 908 q 767 855 703 908 q 839 685 831 801 q 831 652 842 664 q 797 640 819 640 q 753 683 760 640 q 707 792 747 763 q 574 822 667 822 l 406 822 q 281 803 326 824 q 217 738 236 783 q 197 613 197 693 l 197 296 q 217 172 197 217 q 283 106 238 126 q 407 86 328 86 l 574 86 q 683 103 644 86 q 739 158 722 119 q 756 268 756 197 l 756 349 l 617 350 q 574 393 574 350 q 617 436 574 436 l 799 435 q 842 392 842 435 l 842 268 q 778 64 842 128 q 574 0 714 0 l 407 0 m 467 1031 q 414 1085 414 1031 l 414 1121 q 427 1159 414 1146 q 467 1172 440 1172 l 500 1172 q 538 1158 525 1172 q 551 1121 551 1144 l 551 1085 q 538 1044 551 1058 q 500 1031 525 1031 l 467 1031 z "},"H":{"ha":1018,"x_min":135,"x_max":883,"o":"m 178 0 q 147 13 160 0 q 135 43 135 25 l 135 865 q 147 897 135 885 q 178 908 160 908 q 209 897 197 908 q 221 865 221 885 l 221 504 l 797 504 l 797 865 q 810 897 797 885 q 840 908 822 908 q 872 897 860 908 q 883 865 883 885 l 883 43 q 872 13 883 25 q 840 0 860 0 q 810 13 822 0 q 797 43 797 25 l 797 418 l 221 418 l 221 43 q 209 13 221 25 q 178 0 197 0 z "},"Ħ":{"ha":1018,"x_min":63,"x_max":957,"o":"m 921 710 q 957 674 957 710 q 921 639 957 639 l 883 639 l 883 43 q 872 13 883 25 q 840 0 860 0 q 810 13 822 0 q 797 43 797 25 l 797 418 l 221 418 l 221 43 q 209 13 221 25 q 178 0 197 0 q 147 13 160 0 q 135 43 135 25 l 135 639 l 97 639 q 63 674 63 639 q 97 710 63 710 l 135 710 l 135 865 q 147 897 135 885 q 178 908 160 908 q 209 897 197 908 q 221 865 221 885 l 221 710 l 797 710 l 797 865 q 810 897 797 885 q 840 908 822 908 q 872 897 860 908 q 883 865 883 885 l 883 710 l 921 710 m 797 504 l 797 639 l 221 639 l 221 504 l 797 504 z "},"Ĥ":{"ha":1018,"x_min":135,"x_max":883,"o":"m 178 0 q 147 13 160 0 q 135 43 135 25 l 135 865 q 147 897 135 885 q 178 908 160 908 q 209 897 197 908 q 221 865 221 885 l 221 504 l 797 504 l 797 865 q 810 897 797 885 q 840 908 822 908 q 872 897 860 908 q 883 865 883 885 l 883 43 q 872 13 883 25 q 840 0 860 0 q 810 13 822 0 q 797 43 797 25 l 797 418 l 221 418 l 221 43 q 209 13 221 25 q 178 0 197 0 m 381 985 q 353 996 364 985 q 342 1022 342 1007 q 351 1049 342 1035 l 457 1172 q 503 1194 475 1194 l 521 1194 q 568 1172 547 1194 l 674 1049 q 682 1022 682 1036 q 671 996 682 1007 q 644 985 660 985 q 615 997 625 985 l 518 1117 l 506 1117 l 410 997 q 381 985 397 985 z "},"I":{"ha":356,"x_min":135,"x_max":221,"o":"m 178 0 q 135 43 135 0 l 135 867 q 178 910 135 910 q 221 867 221 910 l 221 43 q 178 0 221 0 z "},"Í":{"ha":356,"x_min":126,"x_max":322,"o":"m 178 0 q 135 43 135 0 l 135 867 q 178 910 135 910 q 221 867 221 910 l 221 43 q 178 0 221 0 m 142 994 q 126 1024 126 1006 q 138 1050 126 1039 l 251 1185 q 281 1201 264 1201 q 307 1190 293 1201 q 322 1161 322 1179 q 311 1135 322 1146 l 197 1000 q 168 983 185 983 q 142 994 156 983 z "},"Ĭ":{"ha":356,"x_min":8,"x_max":368,"o":"m 178 0 q 135 43 135 0 l 135 867 q 178 910 135 910 q 221 867 221 910 l 221 43 q 178 0 221 0 m 185 982 q 53 1021 99 982 q 8 1133 8 1060 l 8 1149 q 47 1188 8 1188 q 88 1149 88 1188 l 88 1133 q 110 1074 88 1092 q 188 1056 132 1056 q 267 1074 244 1057 q 289 1133 289 1092 l 289 1156 q 328 1188 289 1188 q 368 1149 368 1188 l 368 1133 q 321 1019 368 1057 q 185 982 274 982 z "},"Î":{"ha":356,"x_min":10,"x_max":350,"o":"m 178 0 q 135 43 135 0 l 135 867 q 178 910 135 910 q 221 867 221 910 l 221 43 q 178 0 221 0 m 49 985 q 21 996 32 985 q 10 1022 10 1007 q 19 1049 10 1035 l 125 1172 q 171 1194 143 1194 l 189 1194 q 236 1172 215 1194 l 342 1049 q 350 1022 350 1036 q 339 996 350 1007 q 313 985 328 985 q 283 997 293 985 l 186 1117 l 174 1117 l 78 997 q 49 985 65 985 z "},"Ȉ":{"ha":356,"x_min":-31,"x_max":304,"o":"m 133 1013 q 108 1003 122 1003 q 83 1018 93 1003 l -19 1139 q -31 1163 -31 1153 q -15 1189 -31 1176 q 8 1200 -4 1200 q 35 1185 24 1200 l 138 1063 q 147 1039 147 1053 q 133 1013 147 1025 m 290 1013 q 265 1003 279 1003 q 240 1018 250 1003 l 138 1139 q 126 1163 126 1153 q 142 1189 126 1176 q 165 1200 153 1200 q 192 1185 181 1200 l 294 1063 q 304 1039 304 1053 q 290 1013 304 1025 m 178 0 q 135 43 135 0 l 135 867 q 178 910 135 910 q 221 867 221 910 l 221 43 q 178 0 221 0 z "},"Ï":{"ha":356,"x_min":13,"x_max":342,"o":"m 178 0 q 135 43 135 0 l 135 867 q 178 910 135 910 q 221 867 221 910 l 221 43 q 178 0 221 0 m 57 1021 q 13 1067 13 1021 l 13 1096 q 57 1139 13 1139 l 85 1139 q 128 1096 128 1139 l 128 1067 q 117 1033 128 1044 q 85 1021 106 1021 l 57 1021 m 271 1021 q 226 1067 226 1021 l 226 1096 q 271 1139 226 1139 l 299 1139 q 342 1096 342 1139 l 342 1067 q 331 1033 342 1044 q 299 1021 319 1021 l 271 1021 z "},"İ":{"ha":356,"x_min":108,"x_max":246,"o":"m 178 0 q 135 43 135 0 l 135 867 q 178 910 135 910 q 221 867 221 910 l 221 43 q 178 0 221 0 m 161 1031 q 108 1085 108 1031 l 108 1121 q 122 1159 108 1146 q 161 1172 135 1172 l 194 1172 q 233 1158 219 1172 q 246 1121 246 1144 l 246 1085 q 233 1044 246 1058 q 194 1031 219 1031 l 161 1031 z "},"Ị":{"ha":356,"x_min":119,"x_max":235,"o":"m 178 0 q 135 43 135 0 l 135 867 q 178 910 135 910 q 221 867 221 910 l 221 43 q 178 0 221 0 m 164 -212 q 119 -167 119 -212 l 119 -137 q 164 -94 119 -94 l 192 -94 q 235 -137 235 -94 l 235 -167 q 224 -201 235 -189 q 192 -212 213 -212 l 164 -212 z "},"Ì":{"ha":356,"x_min":46,"x_max":242,"o":"m 178 0 q 135 43 135 0 l 135 867 q 178 910 135 910 q 221 867 221 910 l 221 43 q 178 0 221 0 m 226 982 q 200 971 213 971 q 171 988 183 971 l 57 1122 q 46 1149 46 1133 q 61 1178 46 1167 q 88 1189 75 1189 q 117 1172 104 1189 l 231 1038 q 242 1011 242 1026 q 226 982 242 993 z "},"Ỉ":{"ha":356,"x_min":69,"x_max":310,"o":"m 178 0 q 135 43 135 0 l 135 867 q 178 910 135 910 q 221 867 221 910 l 221 43 q 178 0 221 0 m 178 985 q 152 992 160 985 q 144 1018 144 1000 q 163 1078 144 1057 q 210 1117 181 1099 q 236 1135 231 1129 q 242 1153 242 1142 q 231 1195 242 1185 q 189 1206 221 1206 q 147 1195 157 1206 q 138 1153 138 1185 q 129 1127 138 1135 q 103 1119 121 1119 q 77 1127 85 1119 q 69 1153 69 1135 q 189 1272 69 1272 q 310 1153 310 1272 q 292 1097 310 1117 q 246 1058 275 1078 q 217 1038 224 1046 q 211 1018 211 1031 q 203 992 211 1000 q 178 985 196 985 z "},"Ȋ":{"ha":356,"x_min":-3,"x_max":357,"o":"m 178 0 q 135 43 135 0 l 135 867 q 178 910 135 910 q 221 867 221 910 l 221 43 q 178 0 221 0 m 174 1219 q 310 1182 263 1219 q 357 1068 357 1144 l 357 1053 q 317 1014 357 1014 q 278 1046 278 1014 l 278 1068 q 256 1127 278 1110 q 176 1146 233 1144 q 99 1128 121 1146 q 76 1068 76 1110 l 76 1053 q 36 1014 76 1014 q -3 1053 -3 1014 l -3 1068 q 42 1181 -3 1142 q 174 1219 88 1219 z "},"Ī":{"ha":356,"x_min":35,"x_max":321,"o":"m 178 0 q 135 43 135 0 l 135 867 q 178 910 135 910 q 221 867 221 910 l 221 43 q 178 0 221 0 m 76 1053 q 46 1064 57 1053 q 35 1094 35 1075 q 46 1126 35 1115 q 76 1138 57 1138 l 279 1138 q 321 1094 321 1138 q 279 1053 321 1053 l 76 1053 z "},"Į":{"ha":356,"x_min":42,"x_max":317,"o":"m 276 -121 q 305 -132 293 -121 q 317 -160 317 -143 q 306 -189 317 -175 q 242 -232 276 -217 q 174 -247 207 -247 q 80 -212 118 -247 q 42 -126 42 -178 q 74 -39 42 -85 l 135 44 l 135 867 q 178 910 135 910 q 221 867 221 910 l 221 43 q 206 8 221 19 l 138 -86 q 121 -126 121 -108 q 135 -156 121 -144 q 174 -168 150 -168 q 249 -132 214 -168 q 276 -121 260 -121 z "},"Ĩ":{"ha":356,"x_min":0,"x_max":357,"o":"m 178 0 q 135 43 135 0 l 135 867 q 178 910 135 910 q 221 867 221 910 l 221 43 q 178 0 221 0 m 247 1013 q 207 1024 224 1013 q 164 1060 190 1036 q 140 1083 149 1076 q 121 1090 131 1090 q 96 1080 106 1090 q 75 1042 86 1069 q 31 1017 60 1008 q 8 1028 15 1019 q 0 1050 0 1038 q 3 1064 0 1056 q 51 1140 25 1117 q 117 1164 76 1164 q 160 1151 140 1164 q 203 1114 179 1138 q 226 1094 214 1103 q 246 1085 238 1085 q 265 1094 257 1085 q 282 1126 272 1103 q 325 1154 294 1160 q 349 1144 340 1153 q 357 1122 357 1135 q 354 1107 357 1118 q 247 1013 321 1013 z "},"J":{"ha":768,"x_min":35,"x_max":647,"o":"m 304 0 q 111 53 175 0 q 38 224 47 107 q 81 268 35 268 q 124 225 119 268 q 171 116 131 146 q 304 86 211 86 l 379 86 q 489 103 450 86 q 544 158 528 119 q 561 268 561 197 l 561 865 q 604 908 561 908 q 647 865 647 908 l 647 268 q 583 64 647 128 q 379 0 519 0 l 304 0 z "},"Ĵ":{"ha":768,"x_min":38,"x_max":775,"o":"m 304 0 q 111 53 175 0 q 38 224 47 107 q 81 268 35 268 q 124 225 119 268 q 171 116 131 146 q 304 86 211 86 l 379 86 q 489 103 450 86 q 544 158 528 119 q 561 268 561 197 l 561 865 q 604 908 561 908 q 647 865 647 908 l 647 268 q 583 64 647 128 q 379 0 519 0 l 304 0 m 474 985 q 446 996 457 985 q 435 1022 435 1007 q 444 1049 435 1035 l 550 1172 q 596 1194 568 1194 l 614 1194 q 661 1172 640 1194 l 767 1049 q 775 1022 775 1036 q 764 996 775 1007 q 738 985 753 985 q 708 997 718 985 l 611 1117 l 599 1117 l 503 997 q 474 985 490 985 z "},"K":{"ha":781,"x_min":135,"x_max":743,"o":"m 731 71 q 743 42 743 57 q 725 10 743 24 q 697 -3 711 -3 q 664 17 679 -3 l 310 456 l 221 364 l 221 43 q 178 0 221 0 q 135 43 135 0 l 135 865 q 178 908 135 908 q 221 865 221 908 l 221 488 l 615 893 q 646 908 629 908 q 675 894 661 908 q 690 864 690 881 q 676 833 690 847 l 369 518 l 731 71 z "},"Ķ":{"ha":781,"x_min":135,"x_max":743,"o":"m 731 71 q 743 42 743 57 q 725 10 743 24 q 697 -3 711 -3 q 664 17 679 -3 l 310 456 l 221 364 l 221 43 q 178 0 221 0 q 135 43 135 0 l 135 865 q 178 908 135 908 q 221 865 221 908 l 221 488 l 615 893 q 646 908 629 908 q 675 894 661 908 q 690 864 690 881 q 676 833 690 847 l 369 518 l 731 71 m 464 -129 q 460 -149 464 -140 l 461 -149 l 404 -272 q 375 -293 393 -293 q 351 -284 361 -293 q 344 -260 342 -275 l 372 -103 q 407 -68 372 -68 l 429 -68 q 464 -104 464 -68 l 464 -129 z "},"L":{"ha":711,"x_min":135,"x_max":674,"o":"m 178 0 q 135 43 135 0 l 135 865 q 178 908 135 908 q 221 865 221 908 l 221 86 l 631 86 q 674 43 674 86 q 631 0 674 0 l 178 0 z "},"Ǉ":{"ha":1479,"x_min":135,"x_max":1358,"o":"m 178 0 q 135 43 135 0 l 135 865 q 178 908 135 908 q 221 865 221 908 l 221 86 l 631 86 q 674 43 674 86 q 631 0 674 0 l 178 0 m 1015 0 q 822 53 886 0 q 749 224 758 107 q 792 268 746 268 q 835 225 831 268 q 882 116 842 146 q 1015 86 922 86 l 1090 86 q 1200 103 1161 86 q 1256 158 1239 119 q 1272 268 1272 197 l 1272 865 q 1315 908 1272 908 q 1358 865 1358 908 l 1358 268 q 1294 64 1358 128 q 1090 0 1231 0 l 1015 0 z "},"Ĺ":{"ha":711,"x_min":126,"x_max":674,"o":"m 178 0 q 135 43 135 0 l 135 865 q 178 908 135 908 q 221 865 221 908 l 221 86 l 631 86 q 674 43 674 86 q 631 0 674 0 l 178 0 m 142 994 q 126 1024 126 1006 q 138 1050 126 1039 l 251 1185 q 281 1201 264 1201 q 307 1190 293 1201 q 322 1161 322 1179 q 311 1135 322 1146 l 197 1000 q 168 983 185 983 q 142 994 156 983 z "},"Ľ":{"ha":711,"x_min":135,"x_max":674,"o":"m 178 0 q 135 43 135 0 l 135 865 q 178 908 135 908 q 221 865 221 908 l 221 86 l 631 86 q 674 43 674 86 q 631 0 674 0 l 178 0 m 482 846 q 479 828 482 836 l 481 826 l 425 706 q 396 685 414 685 q 373 694 382 685 q 367 718 364 703 l 392 863 l 392 869 q 426 904 392 904 l 449 904 q 482 869 482 904 l 482 846 z "},"Ļ":{"ha":711,"x_min":135,"x_max":674,"o":"m 178 0 q 135 43 135 0 l 135 865 q 178 908 135 908 q 221 865 221 908 l 221 86 l 631 86 q 674 43 674 86 q 631 0 674 0 l 178 0 m 485 -129 q 481 -149 485 -140 l 482 -149 l 425 -272 q 396 -293 414 -293 q 372 -284 382 -293 q 365 -260 363 -275 l 393 -103 q 428 -68 393 -68 l 450 -68 q 485 -104 485 -68 l 485 -129 z "},"Ŀ":{"ha":711,"x_min":135,"x_max":674,"o":"m 178 0 q 135 43 135 0 l 135 865 q 178 908 135 908 q 221 865 221 908 l 221 86 l 631 86 q 674 43 674 86 q 631 0 674 0 l 178 0 m 471 425 q 426 471 426 425 l 426 500 q 471 543 426 543 l 499 543 q 542 500 542 543 l 542 471 q 531 437 542 449 q 499 425 519 425 l 471 425 z "},"ǈ":{"ha":975,"x_min":135,"x_max":865,"o":"m 178 0 q 135 43 135 0 l 135 865 q 178 908 135 908 q 221 865 221 908 l 221 86 l 631 86 q 674 43 674 86 q 631 0 674 0 l 178 0 m 600 -235 q 612 -203 600 -214 q 644 -192 624 -192 q 731 -169 708 -192 q 754 -82 754 -146 l 754 628 q 797 671 754 671 q 828 660 817 671 q 840 628 840 649 l 840 -82 q 792 -230 840 -182 q 644 -278 744 -278 q 612 -267 624 -278 q 600 -235 600 -256 m 781 793 q 728 847 728 793 l 728 883 q 741 922 728 908 q 781 935 754 935 l 814 935 q 852 921 839 935 q 865 883 865 907 l 865 847 q 852 807 865 821 q 814 793 839 793 l 781 793 z "},"Ł":{"ha":711,"x_min":10,"x_max":674,"o":"m 631 86 q 674 43 674 86 q 631 0 674 0 l 178 0 q 135 43 135 0 l 135 335 l 78 292 q 50 282 64 282 q 19 300 33 282 q 10 328 10 314 q 28 358 10 344 l 135 439 l 135 865 q 178 908 135 908 q 221 865 221 908 l 221 504 l 361 611 q 388 621 375 621 q 418 603 406 621 q 429 575 429 588 q 411 544 429 560 l 221 400 l 221 86 l 631 86 z "},"M":{"ha":1113,"x_min":135,"x_max":978,"o":"m 940 908 q 978 865 978 908 l 978 43 q 935 0 978 0 q 892 43 892 0 l 892 733 l 604 300 q 553 272 586 272 q 508 300 526 272 l 221 733 l 221 43 q 178 0 221 0 q 135 43 135 0 l 135 865 q 178 908 135 908 q 225 881 207 908 l 558 376 l 889 881 q 940 908 907 908 z "},"N":{"ha":1001,"x_min":135,"x_max":867,"o":"m 824 908 q 867 865 867 908 l 867 43 q 824 0 867 0 q 779 25 800 0 l 221 743 l 221 43 q 178 0 221 0 q 135 43 135 0 l 135 865 q 178 908 135 908 q 221 883 201 908 l 781 164 l 781 865 q 824 908 781 908 z "},"Ǌ":{"ha":1769,"x_min":135,"x_max":1649,"o":"m 824 908 q 867 865 867 908 l 867 43 q 824 0 867 0 q 779 25 800 0 l 221 743 l 221 43 q 178 0 221 0 q 135 43 135 0 l 135 865 q 178 908 135 908 q 221 883 201 908 l 781 164 l 781 865 q 824 908 781 908 m 1306 0 q 1113 53 1176 0 q 1039 224 1049 107 q 1082 268 1036 268 q 1125 225 1121 268 q 1172 116 1132 146 q 1306 86 1213 86 l 1381 86 q 1490 103 1451 86 q 1546 158 1529 119 q 1563 268 1563 197 l 1563 865 q 1606 908 1563 908 q 1649 865 1649 908 l 1649 268 q 1585 64 1649 128 q 1381 0 1521 0 l 1306 0 z "},"Ń":{"ha":1001,"x_min":135,"x_max":867,"o":"m 824 908 q 867 865 867 908 l 867 43 q 824 0 867 0 q 779 25 800 0 l 221 743 l 221 43 q 178 0 221 0 q 135 43 135 0 l 135 865 q 178 908 135 908 q 221 883 201 908 l 781 164 l 781 865 q 824 908 781 908 m 469 994 q 454 1024 454 1006 q 465 1050 454 1039 l 579 1185 q 608 1201 592 1201 q 635 1190 621 1201 q 650 1161 650 1179 q 639 1135 650 1146 l 525 1000 q 496 983 513 983 q 469 994 483 983 z "},"Ň":{"ha":1001,"x_min":135,"x_max":867,"o":"m 824 908 q 867 865 867 908 l 867 43 q 824 0 867 0 q 779 25 800 0 l 221 743 l 221 43 q 178 0 221 0 q 135 43 135 0 l 135 865 q 178 908 135 908 q 221 883 201 908 l 781 164 l 781 865 q 824 908 781 908 m 351 1193 q 381 1182 367 1193 l 515 1069 l 524 1069 l 658 1182 q 688 1193 672 1193 q 716 1181 704 1193 q 728 1153 728 1169 q 710 1119 728 1131 l 575 1007 q 525 989 553 989 l 514 989 q 464 1007 486 989 l 329 1119 q 311 1153 311 1131 q 323 1181 311 1169 q 351 1193 335 1193 z "},"Ņ":{"ha":1001,"x_min":135,"x_max":867,"o":"m 824 908 q 867 865 867 908 l 867 43 q 824 0 867 0 q 779 25 800 0 l 221 743 l 221 43 q 178 0 221 0 q 135 43 135 0 l 135 865 q 178 908 135 908 q 221 883 201 908 l 781 164 l 781 865 q 824 908 781 908 m 578 -129 q 574 -149 578 -140 l 575 -149 l 518 -272 q 489 -293 507 -293 q 465 -284 475 -293 q 458 -260 456 -275 l 486 -103 q 521 -68 486 -68 l 543 -68 q 578 -104 578 -68 l 578 -129 z "},"Ŋ":{"ha":1001,"x_min":135,"x_max":867,"o":"m 824 908 q 867 865 867 908 l 867 -93 q 822 -233 867 -187 q 682 -278 776 -278 l 524 -278 q 397 -244 442 -278 q 342 -139 351 -210 q 350 -105 339 -117 q 383 -93 361 -93 q 413 -103 403 -93 q 428 -135 422 -112 q 455 -179 433 -167 q 524 -192 476 -192 l 682 -192 q 760 -172 740 -192 q 781 -93 781 -151 l 781 24 l 779 25 l 221 743 l 221 43 q 178 0 221 0 q 135 43 135 0 l 135 865 q 178 908 135 908 q 221 883 201 908 l 781 164 l 781 865 q 824 908 781 908 z "},"ǋ":{"ha":1357,"x_min":135,"x_max":1247,"o":"m 824 908 q 867 865 867 908 l 867 43 q 824 0 867 0 q 779 25 800 0 l 221 743 l 221 43 q 178 0 221 0 q 135 43 135 0 l 135 865 q 178 908 135 908 q 221 883 201 908 l 781 164 l 781 865 q 824 908 781 908 m 982 -235 q 994 -203 982 -214 q 1026 -192 1006 -192 q 1113 -169 1090 -192 q 1136 -82 1136 -146 l 1136 628 q 1179 671 1136 671 q 1210 660 1199 671 q 1222 628 1222 649 l 1222 -82 q 1174 -230 1222 -182 q 1026 -278 1126 -278 q 994 -267 1006 -278 q 982 -235 982 -256 m 1163 793 q 1110 847 1110 793 l 1110 883 q 1123 922 1110 908 q 1163 935 1136 935 l 1196 935 q 1234 921 1221 935 q 1247 883 1247 907 l 1247 847 q 1234 807 1247 821 q 1196 793 1221 793 l 1163 793 z "},"Ñ":{"ha":1001,"x_min":135,"x_max":867,"o":"m 824 908 q 867 865 867 908 l 867 43 q 824 0 867 0 q 779 25 800 0 l 221 743 l 221 43 q 178 0 221 0 q 135 43 135 0 l 135 865 q 178 908 135 908 q 221 883 201 908 l 781 164 l 781 865 q 824 908 781 908 m 597 1008 q 536 1024 561 1008 q 490 1061 511 1039 q 460 1088 472 1081 q 431 1094 447 1094 q 397 1083 410 1094 q 372 1040 383 1072 q 328 1014 358 1006 q 305 1026 313 1017 q 297 1047 297 1035 q 300 1063 297 1051 q 352 1144 321 1118 q 431 1169 383 1169 q 495 1153 469 1169 q 543 1114 521 1138 q 573 1089 564 1094 q 597 1083 582 1083 q 628 1094 615 1083 q 650 1133 640 1106 q 685 1164 661 1164 q 714 1154 703 1164 q 725 1131 725 1144 q 722 1115 725 1126 q 673 1035 703 1061 q 597 1008 643 1008 z "},"O":{"ha":981,"x_min":111,"x_max":869,"o":"m 407 0 q 183 72 254 0 q 111 296 111 143 l 111 614 q 183 839 111 768 q 407 908 254 910 l 574 908 q 798 838 726 908 q 869 613 869 767 l 869 296 q 798 72 869 143 q 574 0 726 0 l 407 0 m 574 86 q 698 106 653 86 q 763 172 743 126 q 783 296 783 217 l 783 613 q 763 737 783 692 q 698 802 743 782 q 574 822 653 822 l 406 822 q 281 803 326 824 q 217 738 236 783 q 197 614 197 693 l 197 296 q 217 172 197 217 q 283 106 238 126 q 407 86 328 86 l 574 86 z "},"Ó":{"ha":981,"x_min":111,"x_max":869,"o":"m 407 0 q 183 72 254 0 q 111 296 111 143 l 111 614 q 183 839 111 768 q 407 908 254 910 l 574 908 q 798 838 726 908 q 869 613 869 767 l 869 296 q 798 72 869 143 q 574 0 726 0 l 407 0 m 574 86 q 698 106 653 86 q 763 172 743 126 q 783 296 783 217 l 783 613 q 763 737 783 692 q 698 802 743 782 q 574 822 653 822 l 406 822 q 281 803 326 824 q 217 738 236 783 q 197 614 197 693 l 197 296 q 217 172 197 217 q 283 106 238 126 q 407 86 328 86 l 574 86 m 454 994 q 439 1024 439 1006 q 450 1050 439 1039 l 564 1185 q 593 1201 576 1201 q 619 1190 606 1201 q 635 1161 635 1179 q 624 1135 635 1146 l 510 1000 q 481 983 497 983 q 454 994 468 983 z "},"Ŏ":{"ha":981,"x_min":111,"x_max":869,"o":"m 407 0 q 183 72 254 0 q 111 296 111 143 l 111 614 q 183 839 111 768 q 407 908 254 910 l 574 908 q 798 838 726 908 q 869 613 869 767 l 869 296 q 798 72 869 143 q 574 0 726 0 l 407 0 m 574 86 q 698 106 653 86 q 763 172 743 126 q 783 296 783 217 l 783 613 q 763 737 783 692 q 698 802 743 782 q 574 822 653 822 l 406 822 q 281 803 326 824 q 217 738 236 783 q 197 614 197 693 l 197 296 q 217 172 197 217 q 283 106 238 126 q 407 86 328 86 l 574 86 m 497 982 q 366 1021 411 982 q 321 1133 321 1060 l 321 1149 q 360 1188 321 1188 q 400 1149 400 1188 l 400 1133 q 422 1074 400 1092 q 500 1056 444 1056 q 579 1074 557 1057 q 601 1133 601 1092 l 601 1156 q 640 1188 601 1188 q 681 1149 681 1188 l 681 1133 q 633 1019 681 1057 q 497 982 586 982 z "},"Ô":{"ha":981,"x_min":111,"x_max":869,"o":"m 407 0 q 183 72 254 0 q 111 296 111 143 l 111 614 q 183 839 111 768 q 407 908 254 910 l 574 908 q 798 838 726 908 q 869 613 869 767 l 869 296 q 798 72 869 143 q 574 0 726 0 l 407 0 m 574 86 q 698 106 653 86 q 763 172 743 126 q 783 296 783 217 l 783 613 q 763 737 783 692 q 698 802 743 782 q 574 822 653 822 l 406 822 q 281 803 326 824 q 217 738 236 783 q 197 614 197 693 l 197 296 q 217 172 197 217 q 283 106 238 126 q 407 86 328 86 l 574 86 m 321 983 q 292 995 304 983 q 281 1024 281 1007 q 299 1057 281 1046 l 433 1169 q 483 1188 456 1188 l 494 1188 q 544 1169 522 1188 l 679 1057 q 697 1024 697 1046 q 685 995 697 1007 q 657 983 674 983 q 628 994 642 983 l 493 1107 l 485 1107 l 350 994 q 321 983 336 983 z "},"Ố":{"ha":981,"x_min":111,"x_max":869,"o":"m 407 0 q 183 72 254 0 q 111 296 111 143 l 111 614 q 183 839 111 768 q 407 908 254 910 l 574 908 q 798 838 726 908 q 869 613 869 767 l 869 296 q 798 72 869 143 q 574 0 726 0 l 407 0 m 574 86 q 698 106 653 86 q 763 172 743 126 q 783 296 783 217 l 783 613 q 763 737 783 692 q 698 802 743 782 q 574 822 653 822 l 406 822 q 281 803 326 824 q 217 738 236 783 q 197 614 197 693 l 197 296 q 217 172 197 217 q 283 106 238 126 q 407 86 328 86 l 574 86 m 644 1124 q 616 1137 629 1124 q 603 1165 603 1150 q 614 1193 603 1181 l 694 1288 q 725 1303 707 1303 q 753 1290 740 1303 q 767 1261 767 1276 q 756 1233 767 1249 l 675 1140 q 644 1124 661 1124 m 324 983 q 295 995 307 983 q 283 1024 283 1007 q 301 1057 283 1046 l 436 1169 q 486 1188 458 1188 l 497 1188 q 547 1169 525 1188 l 682 1057 q 700 1024 700 1046 q 688 995 700 1007 q 660 983 676 983 q 631 994 644 983 l 496 1107 l 488 1107 l 353 994 q 324 983 339 983 z "},"Ộ":{"ha":981,"x_min":111,"x_max":869,"o":"m 407 0 q 183 72 254 0 q 111 296 111 143 l 111 614 q 183 839 111 768 q 407 908 254 910 l 574 908 q 798 838 726 908 q 869 613 869 767 l 869 296 q 798 72 869 143 q 574 0 726 0 l 407 0 m 574 86 q 698 106 653 86 q 763 172 743 126 q 783 296 783 217 l 783 613 q 763 737 783 692 q 698 802 743 782 q 574 822 653 822 l 406 822 q 281 803 326 824 q 217 738 236 783 q 197 614 197 693 l 197 296 q 217 172 197 217 q 283 106 238 126 q 407 86 328 86 l 574 86 m 469 -212 q 425 -167 425 -212 l 425 -137 q 469 -94 425 -94 l 497 -94 q 540 -137 540 -94 l 540 -167 q 529 -201 540 -189 q 497 -212 518 -212 l 469 -212 m 321 983 q 292 995 304 983 q 281 1024 281 1007 q 299 1057 281 1046 l 433 1169 q 483 1188 456 1188 l 494 1188 q 544 1169 522 1188 l 679 1057 q 697 1024 697 1046 q 685 995 697 1007 q 657 983 674 983 q 628 994 642 983 l 493 1107 l 485 1107 l 350 994 q 321 983 336 983 z "},"Ồ":{"ha":981,"x_min":111,"x_max":869,"o":"m 407 0 q 183 72 254 0 q 111 296 111 143 l 111 614 q 183 839 111 768 q 407 908 254 910 l 574 908 q 798 838 726 908 q 869 613 869 767 l 869 296 q 798 72 869 143 q 574 0 726 0 l 407 0 m 574 86 q 698 106 653 86 q 763 172 743 126 q 783 296 783 217 l 783 613 q 763 737 783 692 q 698 802 743 782 q 574 822 653 822 l 406 822 q 281 803 326 824 q 217 738 236 783 q 197 614 197 693 l 197 296 q 217 172 197 217 q 283 106 238 126 q 407 86 328 86 l 574 86 m 303 1124 q 272 1140 286 1124 l 192 1233 q 181 1261 181 1247 q 194 1290 181 1276 q 222 1303 207 1303 q 253 1288 240 1303 l 333 1193 q 344 1165 344 1181 q 331 1137 344 1150 q 303 1124 318 1124 m 322 983 q 294 995 306 983 q 282 1024 282 1007 q 300 1057 282 1046 l 435 1169 q 485 1188 457 1188 l 496 1188 q 546 1169 524 1188 l 681 1057 q 699 1024 699 1046 q 687 995 699 1007 q 658 983 675 983 q 629 994 643 983 l 494 1107 l 486 1107 l 351 994 q 322 983 338 983 z "},"Ổ":{"ha":981,"x_min":111,"x_max":869,"o":"m 407 0 q 183 72 254 0 q 111 296 111 143 l 111 614 q 183 839 111 768 q 407 908 254 910 l 574 908 q 798 838 726 908 q 869 613 869 767 l 869 296 q 798 72 869 143 q 574 0 726 0 l 407 0 m 574 86 q 698 106 653 86 q 763 172 743 126 q 783 296 783 217 l 783 613 q 763 737 783 692 q 698 802 743 782 q 574 822 653 822 l 406 822 q 281 803 326 824 q 217 738 236 783 q 197 614 197 693 l 197 296 q 217 172 197 217 q 283 106 238 126 q 407 86 328 86 l 574 86 m 322 983 q 294 995 306 983 q 282 1024 282 1007 q 300 1057 282 1046 l 435 1169 q 485 1188 457 1188 l 496 1188 q 546 1169 524 1188 l 681 1057 q 699 1024 699 1046 q 687 995 699 1007 q 658 983 675 983 q 629 994 643 983 l 494 1107 l 486 1107 l 351 994 q 322 983 338 983 m 617 1154 q 591 1162 599 1154 q 583 1188 583 1169 q 601 1247 583 1226 q 649 1286 619 1268 q 675 1305 669 1299 q 681 1322 681 1311 q 670 1365 681 1354 q 628 1375 660 1375 q 586 1365 596 1375 q 576 1322 576 1354 q 568 1297 576 1304 q 542 1289 560 1289 q 516 1297 524 1289 q 508 1322 508 1304 q 628 1442 508 1442 q 749 1322 749 1442 q 731 1267 749 1286 q 685 1228 714 1247 q 656 1208 663 1215 q 650 1188 650 1200 q 642 1162 650 1169 q 617 1154 635 1154 z "},"Ỗ":{"ha":981,"x_min":111,"x_max":869,"o":"m 407 0 q 183 72 254 0 q 111 296 111 143 l 111 614 q 183 839 111 768 q 407 908 254 910 l 574 908 q 798 838 726 908 q 869 613 869 767 l 869 296 q 798 72 869 143 q 574 0 726 0 l 407 0 m 574 86 q 698 106 653 86 q 763 172 743 126 q 783 296 783 217 l 783 613 q 763 737 783 692 q 698 802 743 782 q 574 822 653 822 l 406 822 q 281 803 326 824 q 217 738 236 783 q 197 614 197 693 l 197 296 q 217 172 197 217 q 283 106 238 126 q 407 86 328 86 l 574 86 m 322 983 q 294 995 306 983 q 282 1024 282 1007 q 300 1057 282 1046 l 435 1169 q 485 1188 457 1188 l 496 1188 q 546 1169 524 1188 l 681 1057 q 699 1024 699 1046 q 687 995 699 1007 q 658 983 675 983 q 629 994 643 983 l 494 1107 l 486 1107 l 351 994 q 322 983 338 983 m 583 1225 q 522 1240 547 1225 q 476 1278 497 1256 q 446 1304 458 1297 q 417 1311 433 1311 q 383 1300 396 1311 q 358 1257 369 1289 q 314 1231 344 1222 q 291 1242 299 1233 q 283 1264 283 1251 q 286 1279 283 1268 q 338 1360 307 1335 q 417 1386 369 1386 q 481 1370 456 1386 q 529 1331 507 1354 q 559 1306 550 1311 q 583 1300 568 1300 q 614 1311 601 1300 q 636 1350 626 1322 q 671 1381 647 1381 q 700 1371 689 1381 q 711 1347 711 1361 q 708 1332 711 1343 q 659 1251 689 1278 q 583 1225 629 1225 z "},"Ȍ":{"ha":981,"x_min":111,"x_max":869,"o":"m 446 1013 q 421 1003 435 1003 q 396 1018 406 1003 l 293 1139 q 282 1163 282 1153 q 297 1189 282 1176 q 321 1200 308 1200 q 347 1185 336 1200 l 450 1063 q 460 1039 460 1053 q 446 1013 460 1025 m 603 1013 q 578 1003 592 1003 q 553 1018 563 1003 l 450 1139 q 439 1163 439 1153 q 454 1189 439 1176 q 478 1200 465 1200 q 504 1185 493 1200 l 607 1063 q 617 1039 617 1053 q 603 1013 617 1025 m 407 0 q 183 72 254 0 q 111 296 111 143 l 111 614 q 183 839 111 768 q 407 908 254 910 l 574 908 q 798 838 726 908 q 869 613 869 767 l 869 296 q 798 72 869 143 q 574 0 726 0 l 407 0 m 574 86 q 698 106 653 86 q 763 172 743 126 q 783 296 783 217 l 783 613 q 763 737 783 692 q 698 802 743 782 q 574 822 653 822 l 406 822 q 281 803 326 824 q 217 738 236 783 q 197 614 197 693 l 197 296 q 217 172 197 217 q 283 106 238 126 q 407 86 328 86 l 574 86 z "},"Ö":{"ha":981,"x_min":111,"x_max":869,"o":"m 407 0 q 183 72 254 0 q 111 296 111 143 l 111 614 q 183 839 111 768 q 407 908 254 910 l 574 908 q 798 838 726 908 q 869 613 869 767 l 869 296 q 798 72 869 143 q 574 0 726 0 l 407 0 m 574 86 q 698 106 653 86 q 763 172 743 126 q 783 296 783 217 l 783 613 q 763 737 783 692 q 698 802 743 782 q 574 822 653 822 l 406 822 q 281 803 326 824 q 217 738 236 783 q 197 614 197 693 l 197 296 q 217 172 197 217 q 283 106 238 126 q 407 86 328 86 l 574 86 m 369 1021 q 325 1067 325 1021 l 325 1096 q 369 1139 325 1139 l 397 1139 q 440 1096 440 1139 l 440 1067 q 429 1033 440 1044 q 397 1021 418 1021 l 369 1021 m 583 1021 q 539 1067 539 1021 l 539 1096 q 583 1139 539 1139 l 611 1139 q 654 1096 654 1139 l 654 1067 q 643 1033 654 1044 q 611 1021 632 1021 l 583 1021 z "},"Ȫ":{"ha":981,"x_min":111,"x_max":869,"o":"m 407 0 q 183 72 254 0 q 111 296 111 143 l 111 614 q 183 839 111 768 q 407 908 254 910 l 574 908 q 798 838 726 908 q 869 613 869 767 l 869 296 q 798 72 869 143 q 574 0 726 0 l 407 0 m 574 86 q 698 106 653 86 q 763 172 743 126 q 783 296 783 217 l 783 613 q 763 737 783 692 q 698 802 743 782 q 574 822 653 822 l 406 822 q 281 803 326 824 q 217 738 236 783 q 197 614 197 693 l 197 296 q 217 172 197 217 q 283 106 238 126 q 407 86 328 86 l 574 86 m 369 1021 q 325 1067 325 1021 l 325 1096 q 369 1139 325 1139 l 397 1139 q 440 1096 440 1139 l 440 1067 q 429 1033 440 1044 q 397 1021 418 1021 l 369 1021 m 583 1021 q 539 1067 539 1021 l 539 1096 q 583 1139 539 1139 l 611 1139 q 654 1096 654 1139 l 654 1067 q 643 1033 654 1044 q 611 1021 632 1021 l 583 1021 m 311 1231 q 268 1274 268 1231 q 311 1317 268 1317 l 663 1317 q 706 1274 706 1317 q 663 1231 706 1231 l 311 1231 z "},"Ȱ":{"ha":981,"x_min":111,"x_max":869,"o":"m 407 0 q 183 72 254 0 q 111 296 111 143 l 111 614 q 183 839 111 768 q 407 908 254 910 l 574 908 q 798 838 726 908 q 869 613 869 767 l 869 296 q 798 72 869 143 q 574 0 726 0 l 407 0 m 574 86 q 698 106 653 86 q 763 172 743 126 q 783 296 783 217 l 783 613 q 763 737 783 692 q 698 802 743 782 q 574 822 653 822 l 406 822 q 281 803 326 824 q 217 738 236 783 q 197 614 197 693 l 197 296 q 217 172 197 217 q 283 106 238 126 q 407 86 328 86 l 574 86 m 474 1031 q 421 1085 421 1031 l 421 1121 q 434 1159 421 1146 q 474 1172 447 1172 l 507 1172 q 545 1158 532 1172 q 558 1121 558 1144 l 558 1085 q 545 1044 558 1058 q 507 1031 532 1031 l 474 1031 m 311 1267 q 268 1310 268 1267 q 311 1353 268 1353 l 663 1353 q 706 1310 706 1353 q 663 1267 706 1267 l 311 1267 z "},"Ọ":{"ha":981,"x_min":111,"x_max":869,"o":"m 407 0 q 183 72 254 0 q 111 296 111 143 l 111 614 q 183 839 111 768 q 407 908 254 910 l 574 908 q 798 838 726 908 q 869 613 869 767 l 869 296 q 798 72 869 143 q 574 0 726 0 l 407 0 m 574 86 q 698 106 653 86 q 763 172 743 126 q 783 296 783 217 l 783 613 q 763 737 783 692 q 698 802 743 782 q 574 822 653 822 l 406 822 q 281 803 326 824 q 217 738 236 783 q 197 614 197 693 l 197 296 q 217 172 197 217 q 283 106 238 126 q 407 86 328 86 l 574 86 m 469 -212 q 425 -167 425 -212 l 425 -137 q 469 -94 425 -94 l 497 -94 q 540 -137 540 -94 l 540 -167 q 529 -201 540 -189 q 497 -212 518 -212 l 469 -212 z "},"Ò":{"ha":981,"x_min":111,"x_max":869,"o":"m 407 0 q 183 72 254 0 q 111 296 111 143 l 111 614 q 183 839 111 768 q 407 908 254 910 l 574 908 q 798 838 726 908 q 869 613 869 767 l 869 296 q 798 72 869 143 q 574 0 726 0 l 407 0 m 574 86 q 698 106 653 86 q 763 172 743 126 q 783 296 783 217 l 783 613 q 763 737 783 692 q 698 802 743 782 q 574 822 653 822 l 406 822 q 281 803 326 824 q 217 738 236 783 q 197 614 197 693 l 197 296 q 217 172 197 217 q 283 106 238 126 q 407 86 328 86 l 574 86 m 539 982 q 513 971 525 971 q 483 988 496 971 l 369 1122 q 358 1149 358 1133 q 374 1178 358 1167 q 400 1189 388 1189 q 429 1172 417 1189 l 543 1038 q 554 1011 554 1026 q 539 982 554 993 z "},"Ỏ":{"ha":981,"x_min":111,"x_max":869,"o":"m 407 0 q 183 72 254 0 q 111 296 111 143 l 111 614 q 183 839 111 768 q 407 908 254 910 l 574 908 q 798 838 726 908 q 869 613 869 767 l 869 296 q 798 72 869 143 q 574 0 726 0 l 407 0 m 574 86 q 698 106 653 86 q 763 172 743 126 q 783 296 783 217 l 783 613 q 763 737 783 692 q 698 802 743 782 q 574 822 653 822 l 406 822 q 281 803 326 824 q 217 738 236 783 q 197 614 197 693 l 197 296 q 217 172 197 217 q 283 106 238 126 q 407 86 328 86 l 574 86 m 490 985 q 465 992 472 985 q 457 1018 457 1000 q 475 1078 457 1057 q 522 1117 493 1099 q 549 1135 543 1129 q 554 1153 554 1142 q 544 1195 554 1185 q 501 1206 533 1206 q 460 1195 469 1206 q 450 1153 450 1185 q 442 1127 450 1135 q 415 1119 433 1119 q 390 1127 397 1119 q 382 1153 382 1135 q 501 1272 382 1272 q 622 1153 622 1272 q 605 1097 622 1117 q 558 1058 588 1078 q 530 1038 536 1046 q 524 1018 524 1031 q 516 992 524 1000 q 490 985 508 985 z "},"Ơ":{"ha":981,"x_min":111,"x_max":932,"o":"m 890 967 q 932 926 932 967 l 932 901 q 839 781 932 804 q 869 613 869 715 l 869 296 q 798 72 869 143 q 574 0 726 0 l 407 0 q 183 72 254 0 q 111 296 111 143 l 111 614 q 183 839 111 768 q 407 908 254 910 l 574 908 q 792 844 719 908 q 836 859 824 846 q 849 901 849 872 l 849 935 q 890 967 849 967 m 783 613 q 763 737 783 692 q 698 802 743 782 q 574 822 653 822 l 406 822 q 281 803 326 824 q 217 738 236 783 q 197 614 197 693 l 197 296 q 217 172 197 217 q 283 106 238 126 q 407 86 328 86 l 574 86 q 698 106 653 86 q 763 172 743 126 q 783 296 783 217 l 783 613 z "},"Ớ":{"ha":981,"x_min":111,"x_max":932,"o":"m 890 967 q 932 926 932 967 l 932 901 q 839 781 932 804 q 869 613 869 715 l 869 296 q 798 72 869 143 q 574 0 726 0 l 407 0 q 183 72 254 0 q 111 296 111 143 l 111 614 q 183 839 111 768 q 407 908 254 910 l 574 908 q 792 844 719 908 q 836 859 824 846 q 849 901 849 872 l 849 935 q 890 967 849 967 m 783 613 q 763 737 783 692 q 698 802 743 782 q 574 822 653 822 l 406 822 q 281 803 326 824 q 217 738 236 783 q 197 614 197 693 l 197 296 q 217 172 197 217 q 283 106 238 126 q 407 86 328 86 l 574 86 q 698 106 653 86 q 763 172 743 126 q 783 296 783 217 l 783 613 m 454 994 q 439 1024 439 1006 q 450 1050 439 1039 l 564 1185 q 593 1201 576 1201 q 619 1190 606 1201 q 635 1161 635 1179 q 624 1135 635 1146 l 510 1000 q 481 983 497 983 q 454 994 468 983 z "},"Ợ":{"ha":981,"x_min":111,"x_max":932,"o":"m 890 967 q 932 926 932 967 l 932 901 q 839 781 932 804 q 869 613 869 715 l 869 296 q 798 72 869 143 q 574 0 726 0 l 407 0 q 183 72 254 0 q 111 296 111 143 l 111 614 q 183 839 111 768 q 407 908 254 910 l 574 908 q 792 844 719 908 q 836 859 824 846 q 849 901 849 872 l 849 935 q 890 967 849 967 m 783 613 q 763 737 783 692 q 698 802 743 782 q 574 822 653 822 l 406 822 q 281 803 326 824 q 217 738 236 783 q 197 614 197 693 l 197 296 q 217 172 197 217 q 283 106 238 126 q 407 86 328 86 l 574 86 q 698 106 653 86 q 763 172 743 126 q 783 296 783 217 l 783 613 m 469 -212 q 425 -167 425 -212 l 425 -137 q 469 -94 425 -94 l 497 -94 q 540 -137 540 -94 l 540 -167 q 529 -201 540 -189 q 497 -212 518 -212 l 469 -212 z "},"Ờ":{"ha":981,"x_min":111,"x_max":932,"o":"m 890 967 q 932 926 932 967 l 932 901 q 839 781 932 804 q 869 613 869 715 l 869 296 q 798 72 869 143 q 574 0 726 0 l 407 0 q 183 72 254 0 q 111 296 111 143 l 111 614 q 183 839 111 768 q 407 908 254 910 l 574 908 q 792 844 719 908 q 836 859 824 846 q 849 901 849 872 l 849 935 q 890 967 849 967 m 783 613 q 763 737 783 692 q 698 802 743 782 q 574 822 653 822 l 406 822 q 281 803 326 824 q 217 738 236 783 q 197 614 197 693 l 197 296 q 217 172 197 217 q 283 106 238 126 q 407 86 328 86 l 574 86 q 698 106 653 86 q 763 172 743 126 q 783 296 783 217 l 783 613 m 539 982 q 513 971 525 971 q 483 988 496 971 l 369 1122 q 358 1149 358 1133 q 374 1178 358 1167 q 400 1189 388 1189 q 429 1172 417 1189 l 543 1038 q 554 1011 554 1026 q 539 982 554 993 z "},"Ở":{"ha":981,"x_min":111,"x_max":932,"o":"m 890 967 q 932 926 932 967 l 932 901 q 839 781 932 804 q 869 613 869 715 l 869 296 q 798 72 869 143 q 574 0 726 0 l 407 0 q 183 72 254 0 q 111 296 111 143 l 111 614 q 183 839 111 768 q 407 908 254 910 l 574 908 q 792 844 719 908 q 836 859 824 846 q 849 901 849 872 l 849 935 q 890 967 849 967 m 783 613 q 763 737 783 692 q 698 802 743 782 q 574 822 653 822 l 406 822 q 281 803 326 824 q 217 738 236 783 q 197 614 197 693 l 197 296 q 217 172 197 217 q 283 106 238 126 q 407 86 328 86 l 574 86 q 698 106 653 86 q 763 172 743 126 q 783 296 783 217 l 783 613 m 490 985 q 465 992 472 985 q 457 1018 457 1000 q 475 1078 457 1057 q 522 1117 493 1099 q 549 1135 543 1129 q 554 1153 554 1142 q 544 1195 554 1185 q 501 1206 533 1206 q 460 1195 469 1206 q 450 1153 450 1185 q 442 1127 450 1135 q 415 1119 433 1119 q 390 1127 397 1119 q 382 1153 382 1135 q 501 1272 382 1272 q 622 1153 622 1272 q 605 1097 622 1117 q 558 1058 588 1078 q 530 1038 536 1046 q 524 1018 524 1031 q 516 992 524 1000 q 490 985 508 985 z "},"Ỡ":{"ha":981,"x_min":111,"x_max":932,"o":"m 890 967 q 932 926 932 967 l 932 901 q 839 781 932 804 q 869 613 869 715 l 869 296 q 798 72 869 143 q 574 0 726 0 l 407 0 q 183 72 254 0 q 111 296 111 143 l 111 614 q 183 839 111 768 q 407 908 254 910 l 574 908 q 792 844 719 908 q 836 859 824 846 q 849 901 849 872 l 849 935 q 890 967 849 967 m 783 613 q 763 737 783 692 q 698 802 743 782 q 574 822 653 822 l 406 822 q 281 803 326 824 q 217 738 236 783 q 197 614 197 693 l 197 296 q 217 172 197 217 q 283 106 238 126 q 407 86 328 86 l 574 86 q 698 106 653 86 q 763 172 743 126 q 783 296 783 217 l 783 613 m 582 1008 q 521 1024 546 1008 q 475 1061 496 1039 q 444 1088 457 1081 q 415 1094 432 1094 q 381 1083 394 1094 q 357 1040 368 1072 q 313 1014 343 1006 q 290 1026 297 1017 q 282 1047 282 1035 q 285 1063 282 1051 q 337 1144 306 1118 q 415 1169 368 1169 q 480 1153 454 1169 q 528 1114 506 1138 q 558 1089 549 1094 q 582 1083 567 1083 q 613 1094 600 1083 q 635 1133 625 1106 q 669 1164 646 1164 q 699 1154 688 1164 q 710 1131 710 1144 q 707 1115 710 1126 q 658 1035 688 1061 q 582 1008 628 1008 z "},"Ő":{"ha":981,"x_min":111,"x_max":869,"o":"m 407 0 q 183 72 254 0 q 111 296 111 143 l 111 614 q 183 839 111 768 q 407 908 254 910 l 574 908 q 798 838 726 908 q 869 613 869 767 l 869 296 q 798 72 869 143 q 574 0 726 0 l 407 0 m 574 86 q 698 106 653 86 q 763 172 743 126 q 783 296 783 217 l 783 613 q 763 737 783 692 q 698 802 743 782 q 574 822 653 822 l 406 822 q 281 803 326 824 q 217 738 236 783 q 197 614 197 693 l 197 296 q 217 172 197 217 q 283 106 238 126 q 407 86 328 86 l 574 86 z "},"Ȏ":{"ha":981,"x_min":111,"x_max":869,"o":"m 407 0 q 183 72 254 0 q 111 296 111 143 l 111 614 q 183 839 111 768 q 407 908 254 910 l 574 908 q 798 838 726 908 q 869 613 869 767 l 869 296 q 798 72 869 143 q 574 0 726 0 l 407 0 m 574 86 q 698 106 653 86 q 763 172 743 126 q 783 296 783 217 l 783 613 q 763 737 783 692 q 698 802 743 782 q 574 822 653 822 l 406 822 q 281 803 326 824 q 217 738 236 783 q 197 614 197 693 l 197 296 q 217 172 197 217 q 283 106 238 126 q 407 86 328 86 l 574 86 m 486 1219 q 622 1182 575 1219 q 669 1068 669 1144 l 669 1053 q 629 1014 669 1014 q 590 1046 590 1014 l 590 1068 q 568 1127 590 1110 q 489 1146 546 1144 q 411 1128 433 1146 q 389 1068 389 1110 l 389 1053 q 349 1014 389 1014 q 310 1053 310 1014 l 310 1068 q 355 1181 310 1142 q 486 1219 400 1219 z "},"Ō":{"ha":981,"x_min":111,"x_max":869,"o":"m 407 0 q 183 72 254 0 q 111 296 111 143 l 111 614 q 183 839 111 768 q 407 908 254 910 l 574 908 q 798 838 726 908 q 869 613 869 767 l 869 296 q 798 72 869 143 q 574 0 726 0 l 407 0 m 574 86 q 698 106 653 86 q 763 172 743 126 q 783 296 783 217 l 783 613 q 763 737 783 692 q 698 802 743 782 q 574 822 653 822 l 406 822 q 281 803 326 824 q 217 738 236 783 q 197 614 197 693 l 197 296 q 217 172 197 217 q 283 106 238 126 q 407 86 328 86 l 574 86 m 311 1053 q 268 1096 268 1053 q 311 1139 268 1139 l 663 1139 q 706 1096 706 1139 q 663 1053 706 1053 l 311 1053 z "},"Ǫ":{"ha":981,"x_min":111,"x_max":869,"o":"m 661 -62 q 644 -103 644 -85 q 659 -133 644 -121 q 697 -144 674 -144 q 772 -108 738 -144 q 800 -97 783 -97 q 828 -108 817 -97 q 840 -136 840 -119 q 829 -165 840 -151 q 765 -208 800 -193 q 697 -224 731 -224 q 603 -189 642 -224 q 565 -103 565 -154 q 597 -15 565 -61 l 610 1 q 574 0 597 0 l 407 0 q 183 72 254 0 q 111 296 111 143 l 111 614 q 183 839 111 768 q 407 908 254 910 l 574 908 q 798 838 726 908 q 869 613 869 767 l 869 296 q 834 120 869 188 q 724 24 799 53 l 661 -62 m 574 86 q 698 106 653 86 q 763 172 743 126 q 783 296 783 217 l 783 613 q 763 737 783 692 q 698 802 743 782 q 574 822 653 822 l 406 822 q 281 803 326 824 q 217 738 236 783 q 197 614 197 693 l 197 296 q 217 172 197 217 q 283 106 238 126 q 407 86 328 86 l 574 86 z "},"Ø":{"ha":981,"x_min":111,"x_max":869,"o":"m 775 857 q 869 613 869 789 l 869 296 q 798 72 869 143 q 574 0 726 0 l 407 0 q 265 21 324 0 l 232 -33 q 199 -56 218 -56 q 175 -47 188 -56 q 153 -14 153 -35 q 160 10 153 -4 l 192 63 q 111 296 111 135 l 111 614 q 183 839 111 768 q 407 908 254 910 l 574 908 q 700 893 643 908 l 736 951 q 768 974 749 974 q 793 965 781 974 q 814 933 814 953 q 806 908 814 921 l 775 857 m 197 296 q 238 138 197 183 l 653 815 q 574 822 625 822 l 406 822 q 281 803 326 824 q 217 738 236 783 q 197 614 197 693 l 197 296 m 783 613 q 771 719 783 678 q 729 783 758 760 l 311 96 q 407 86 349 86 l 574 86 q 698 106 653 86 q 763 172 743 126 q 783 296 783 217 l 783 613 z "},"Ǿ":{"ha":981,"x_min":111,"x_max":869,"o":"m 775 857 q 869 613 869 789 l 869 296 q 798 72 869 143 q 574 0 726 0 l 407 0 q 265 21 324 0 l 232 -33 q 199 -56 218 -56 q 175 -47 188 -56 q 153 -14 153 -35 q 160 10 153 -4 l 192 63 q 111 296 111 135 l 111 614 q 183 839 111 768 q 407 908 254 910 l 574 908 q 700 893 643 908 l 736 951 q 768 974 749 974 q 793 965 781 974 q 814 933 814 953 q 806 908 814 921 l 775 857 m 197 296 q 238 138 197 183 l 653 815 q 574 822 625 822 l 406 822 q 281 803 326 824 q 217 738 236 783 q 197 614 197 693 l 197 296 m 783 613 q 771 719 783 678 q 729 783 758 760 l 311 96 q 407 86 349 86 l 574 86 q 698 106 653 86 q 763 172 743 126 q 783 296 783 217 l 783 613 m 454 994 q 439 1024 439 1006 q 450 1050 439 1039 l 564 1185 q 593 1201 576 1201 q 619 1190 606 1201 q 635 1161 635 1179 q 624 1135 635 1146 l 510 1000 q 481 983 497 983 q 454 994 468 983 z "},"Õ":{"ha":981,"x_min":111,"x_max":869,"o":"m 407 0 q 183 72 254 0 q 111 296 111 143 l 111 614 q 183 839 111 768 q 407 908 254 910 l 574 908 q 798 838 726 908 q 869 613 869 767 l 869 296 q 798 72 869 143 q 574 0 726 0 l 407 0 m 574 86 q 698 106 653 86 q 763 172 743 126 q 783 296 783 217 l 783 613 q 763 737 783 692 q 698 802 743 782 q 574 822 653 822 l 406 822 q 281 803 326 824 q 217 738 236 783 q 197 614 197 693 l 197 296 q 217 172 197 217 q 283 106 238 126 q 407 86 328 86 l 574 86 m 582 1008 q 521 1024 546 1008 q 475 1061 496 1039 q 444 1088 457 1081 q 415 1094 432 1094 q 381 1083 394 1094 q 357 1040 368 1072 q 313 1014 343 1006 q 290 1026 297 1017 q 282 1047 282 1035 q 285 1063 282 1051 q 337 1144 306 1118 q 415 1169 368 1169 q 480 1153 454 1169 q 528 1114 506 1138 q 558 1089 549 1094 q 582 1083 567 1083 q 613 1094 600 1083 q 635 1133 625 1106 q 669 1164 646 1164 q 699 1154 688 1164 q 710 1131 710 1144 q 707 1115 710 1126 q 658 1035 688 1061 q 582 1008 628 1008 z "},"Ȭ":{"ha":981,"x_min":111,"x_max":869,"o":"m 407 0 q 183 72 254 0 q 111 296 111 143 l 111 614 q 183 839 111 768 q 407 908 254 910 l 574 908 q 798 838 726 908 q 869 613 869 767 l 869 296 q 798 72 869 143 q 574 0 726 0 l 407 0 m 574 86 q 698 106 653 86 q 763 172 743 126 q 783 296 783 217 l 783 613 q 763 737 783 692 q 698 802 743 782 q 574 822 653 822 l 406 822 q 281 803 326 824 q 217 738 236 783 q 197 614 197 693 l 197 296 q 217 172 197 217 q 283 106 238 126 q 407 86 328 86 l 574 86 m 582 1008 q 521 1024 546 1008 q 475 1061 496 1039 q 444 1088 457 1081 q 415 1094 432 1094 q 381 1083 394 1094 q 357 1040 368 1072 q 313 1014 343 1006 q 290 1026 297 1017 q 282 1047 282 1035 q 285 1063 282 1051 q 337 1144 306 1118 q 415 1169 368 1169 q 480 1153 454 1169 q 528 1114 506 1138 q 558 1089 549 1094 q 582 1083 567 1083 q 613 1094 600 1083 q 635 1133 625 1106 q 669 1164 646 1164 q 699 1154 688 1164 q 710 1131 710 1144 q 707 1115 710 1126 q 658 1035 688 1061 q 582 1008 628 1008 m 311 1282 q 268 1325 268 1282 q 311 1368 268 1368 l 663 1368 q 706 1325 706 1368 q 663 1282 706 1282 l 311 1282 z "},"Œ":{"ha":1176,"x_min":111,"x_max":1114,"o":"m 1071 86 q 1114 43 1114 86 q 1071 0 1114 0 l 407 0 q 183 72 254 0 q 111 296 111 143 l 111 614 q 182 838 111 768 q 407 908 253 908 l 1071 908 q 1114 865 1114 908 q 1071 822 1114 822 l 669 822 l 669 503 l 907 503 q 950 460 950 503 q 907 417 950 417 l 669 417 l 669 86 l 1071 86 m 197 296 q 217 172 197 217 q 283 106 238 126 q 407 86 328 86 l 583 86 l 583 822 l 407 822 q 283 803 328 822 q 217 738 238 783 q 197 614 197 693 l 197 296 z "},"P":{"ha":800,"x_min":135,"x_max":750,"o":"m 503 908 q 687 846 624 908 q 750 661 750 783 l 750 619 q 687 435 750 499 q 503 372 624 372 l 221 372 l 221 43 q 178 0 221 0 q 135 43 135 0 l 135 865 q 178 908 135 908 l 503 908 m 664 661 q 626 784 664 746 q 503 822 588 822 l 221 822 l 221 458 l 503 458 q 626 497 588 458 q 664 619 664 535 l 664 661 z "},"Þ":{"ha":733,"x_min":135,"x_max":683,"o":"m 436 776 q 620 713 557 776 q 683 529 683 650 l 683 488 q 620 303 683 365 q 436 240 557 240 l 221 240 l 221 43 q 178 0 221 0 q 135 43 135 0 l 135 865 q 178 908 135 908 q 221 865 221 908 l 221 776 l 436 776 m 597 529 q 559 652 597 614 q 436 690 521 690 l 221 690 l 221 326 l 436 326 q 559 365 521 326 q 597 488 597 403 l 597 529 z "},"Q":{"ha":983,"x_min":111,"x_max":872,"o":"m 860 -12 q 872 -40 872 -25 q 858 -68 872 -54 q 832 -81 846 -81 q 804 -67 818 -81 l 718 22 q 574 0 661 0 l 407 0 q 183 72 254 0 q 111 296 111 143 l 111 614 q 183 839 111 768 q 407 908 254 910 l 574 908 q 798 838 726 908 q 869 613 869 767 l 869 296 q 788 63 869 132 l 860 -12 m 574 86 q 651 92 622 86 l 601 143 q 589 169 589 156 q 603 197 589 185 q 629 210 615 210 q 658 197 643 210 l 729 124 q 771 189 758 147 q 783 296 783 231 l 783 613 q 763 737 783 692 q 698 802 743 782 q 574 822 653 822 l 406 822 q 281 803 326 824 q 217 738 236 783 q 197 614 197 693 l 197 296 q 217 172 197 217 q 283 106 238 126 q 407 86 328 86 l 574 86 z "},"R":{"ha":838,"x_min":135,"x_max":761,"o":"m 754 57 q 761 32 761 47 q 740 -3 761 13 q 715 -10 731 -10 q 681 11 696 -10 l 458 372 l 221 372 l 221 43 q 178 0 221 0 q 135 43 135 0 l 135 865 q 178 908 135 908 l 503 908 q 687 846 624 908 q 750 661 750 783 l 750 619 q 701 451 750 513 q 557 376 651 389 l 754 57 m 221 458 l 503 458 q 626 497 588 458 q 664 619 664 535 l 664 661 q 626 784 664 746 q 503 822 588 822 l 221 822 l 221 458 z "},"Ŕ":{"ha":838,"x_min":135,"x_max":761,"o":"m 754 57 q 761 32 761 47 q 740 -3 761 13 q 715 -10 731 -10 q 681 11 696 -10 l 458 372 l 221 372 l 221 43 q 178 0 221 0 q 135 43 135 0 l 135 865 q 178 908 135 908 l 503 908 q 687 846 624 908 q 750 661 750 783 l 750 619 q 701 451 750 513 q 557 376 651 389 l 754 57 m 221 458 l 503 458 q 626 497 588 458 q 664 619 664 535 l 664 661 q 626 784 664 746 q 503 822 588 822 l 221 822 l 221 458 m 383 994 q 368 1024 368 1006 q 379 1050 368 1039 l 493 1185 q 522 1201 506 1201 q 549 1190 535 1201 q 564 1161 564 1179 q 553 1135 564 1146 l 439 1000 q 410 983 426 983 q 383 994 397 983 z "},"Ř":{"ha":838,"x_min":135,"x_max":761,"o":"m 754 57 q 761 32 761 47 q 740 -3 761 13 q 715 -10 731 -10 q 681 11 696 -10 l 458 372 l 221 372 l 221 43 q 178 0 221 0 q 135 43 135 0 l 135 865 q 178 908 135 908 l 503 908 q 687 846 624 908 q 750 661 750 783 l 750 619 q 701 451 750 513 q 557 376 651 389 l 754 57 m 221 458 l 503 458 q 626 497 588 458 q 664 619 664 535 l 664 661 q 626 784 664 746 q 503 822 588 822 l 221 822 l 221 458 m 265 1193 q 294 1182 281 1193 l 429 1069 l 438 1069 l 572 1182 q 601 1193 586 1193 q 630 1181 618 1193 q 642 1153 642 1169 q 624 1119 642 1131 l 489 1007 q 439 989 467 989 l 428 989 q 378 1007 400 989 l 243 1119 q 225 1153 225 1131 q 237 1181 225 1169 q 265 1193 249 1193 z "},"Ŗ":{"ha":838,"x_min":135,"x_max":761,"o":"m 754 57 q 761 32 761 47 q 740 -3 761 13 q 715 -10 731 -10 q 681 11 696 -10 l 458 372 l 221 372 l 221 43 q 178 0 221 0 q 135 43 135 0 l 135 865 q 178 908 135 908 l 503 908 q 687 846 624 908 q 750 661 750 783 l 750 619 q 701 451 750 513 q 557 376 651 389 l 754 57 m 221 458 l 503 458 q 626 497 588 458 q 664 619 664 535 l 664 661 q 626 784 664 746 q 503 822 588 822 l 221 822 l 221 458 m 492 -129 q 488 -149 492 -140 l 489 -149 l 432 -272 q 403 -293 421 -293 q 379 -284 389 -293 q 372 -260 369 -275 l 400 -103 q 435 -68 400 -68 l 457 -68 q 492 -104 492 -68 l 492 -129 z "},"Ȑ":{"ha":838,"x_min":135,"x_max":761,"o":"m 222 1139 q 211 1163 211 1153 q 226 1189 211 1176 q 250 1200 238 1200 q 276 1185 265 1200 l 379 1063 q 389 1039 389 1053 q 375 1013 389 1025 q 350 1003 364 1003 q 325 1018 335 1003 l 222 1139 m 379 1139 q 368 1163 368 1153 q 383 1189 368 1176 q 407 1200 394 1200 q 433 1185 422 1200 l 536 1063 q 546 1039 546 1053 q 532 1013 546 1025 q 507 1003 521 1003 q 482 1018 492 1003 l 379 1139 m 754 57 q 761 32 761 47 q 740 -3 761 13 q 715 -10 731 -10 q 681 11 696 -10 l 458 372 l 221 372 l 221 43 q 178 0 221 0 q 135 43 135 0 l 135 865 q 178 908 135 908 l 503 908 q 687 846 624 908 q 750 661 750 783 l 750 619 q 701 451 750 513 q 557 376 651 389 l 754 57 m 221 458 l 503 458 q 626 497 588 458 q 664 619 664 535 l 664 661 q 626 784 664 746 q 503 822 588 822 l 221 822 l 221 458 z "},"Ȓ":{"ha":838,"x_min":135,"x_max":761,"o":"m 754 57 q 761 32 761 47 q 740 -3 761 13 q 715 -10 731 -10 q 681 11 696 -10 l 458 372 l 221 372 l 221 43 q 178 0 221 0 q 135 43 135 0 l 135 865 q 178 908 135 908 l 503 908 q 687 846 624 908 q 750 661 750 783 l 750 619 q 701 451 750 513 q 557 376 651 389 l 754 57 m 221 458 l 503 458 q 626 497 588 458 q 664 619 664 535 l 664 661 q 626 784 664 746 q 503 822 588 822 l 221 822 l 221 458 m 415 1219 q 551 1182 504 1219 q 599 1068 599 1144 l 599 1053 q 558 1014 599 1014 q 519 1046 519 1014 l 519 1068 q 497 1127 519 1110 q 418 1146 475 1144 q 340 1128 363 1146 q 318 1068 318 1110 l 318 1053 q 278 1014 318 1014 q 239 1053 239 1014 l 239 1068 q 284 1181 239 1142 q 415 1219 329 1219 z "},"S":{"ha":932,"x_min":110,"x_max":821,"o":"m 365 0 q 181 53 243 0 q 111 219 119 107 q 122 252 110 240 q 154 264 133 264 q 197 222 193 264 q 240 116 203 146 q 365 86 278 86 l 565 86 q 698 123 661 86 q 735 254 735 160 q 697 388 735 350 q 565 425 660 425 l 381 425 q 197 484 256 425 q 138 667 138 543 q 197 850 138 792 q 379 908 256 908 l 565 908 q 739 858 681 908 q 804 703 797 808 q 794 670 806 682 q 763 658 783 658 q 732 669 743 658 q 718 701 721 681 q 678 795 713 768 q 565 822 644 822 l 379 822 q 257 789 290 822 q 224 667 224 756 q 258 545 224 579 q 381 511 292 511 l 565 511 q 759 449 697 511 q 821 254 821 386 q 758 62 821 124 q 565 0 696 0 l 365 0 z "},"Ś":{"ha":932,"x_min":111,"x_max":821,"o":"m 365 0 q 181 53 243 0 q 111 219 119 107 q 122 252 110 240 q 154 264 133 264 q 197 222 193 264 q 240 116 203 146 q 365 86 278 86 l 565 86 q 698 123 661 86 q 735 254 735 160 q 697 388 735 350 q 565 425 660 425 l 381 425 q 197 484 256 425 q 138 667 138 543 q 197 850 138 792 q 379 908 256 908 l 565 908 q 739 858 681 908 q 804 703 797 808 q 794 670 806 682 q 763 658 783 658 q 732 669 743 658 q 718 701 721 681 q 678 795 713 768 q 565 822 644 822 l 379 822 q 257 789 290 822 q 224 667 224 756 q 258 545 224 579 q 381 511 292 511 l 565 511 q 759 449 697 511 q 821 254 821 386 q 758 62 821 124 q 565 0 696 0 l 365 0 m 435 994 q 419 1024 419 1006 q 431 1050 419 1039 l 544 1185 q 574 1201 557 1201 q 600 1190 586 1201 q 615 1161 615 1179 q 604 1135 615 1146 l 490 1000 q 461 983 478 983 q 435 994 449 983 z "},"Š":{"ha":932,"x_min":111,"x_max":821,"o":"m 365 0 q 181 53 243 0 q 111 219 119 107 q 122 252 110 240 q 154 264 133 264 q 197 222 193 264 q 240 116 203 146 q 365 86 278 86 l 565 86 q 698 123 661 86 q 735 254 735 160 q 697 388 735 350 q 565 425 660 425 l 381 425 q 197 484 256 425 q 138 667 138 543 q 197 850 138 792 q 379 908 256 908 l 565 908 q 739 858 681 908 q 804 703 797 808 q 794 670 806 682 q 763 658 783 658 q 732 669 743 658 q 718 701 721 681 q 678 795 713 768 q 565 822 644 822 l 379 822 q 257 789 290 822 q 224 667 224 756 q 258 545 224 579 q 381 511 292 511 l 565 511 q 759 449 697 511 q 821 254 821 386 q 758 62 821 124 q 565 0 696 0 l 365 0 m 317 1193 q 346 1182 332 1193 l 481 1069 l 489 1069 l 624 1182 q 653 1193 638 1193 q 681 1181 669 1193 q 693 1153 693 1169 q 675 1119 693 1131 l 540 1007 q 490 989 518 989 l 479 989 q 429 1007 451 989 l 294 1119 q 276 1153 276 1131 q 288 1181 276 1169 q 317 1193 300 1193 z "},"Ş":{"ha":932,"x_min":110,"x_max":821,"o":"m 821 254 q 758 62 821 124 q 565 0 696 0 l 550 0 q 582 -29 556 -11 q 628 -72 610 -49 q 647 -135 647 -94 q 610 -250 647 -212 q 496 -287 572 -287 q 371 -162 371 -287 q 410 -124 371 -124 q 447 -162 447 -124 q 457 -201 447 -192 q 496 -210 467 -210 q 556 -195 540 -210 q 571 -135 571 -181 q 565 -115 571 -122 q 539 -92 558 -107 q 494 -55 513 -75 q 471 0 476 -35 l 365 0 q 181 53 243 0 q 111 219 119 107 q 122 252 110 240 q 154 264 133 264 q 197 222 193 264 q 240 116 203 146 q 365 86 278 86 l 565 86 q 698 123 661 86 q 735 254 735 160 q 697 388 735 350 q 565 425 660 425 l 381 425 q 197 484 256 425 q 138 667 138 543 q 197 850 138 792 q 379 908 256 908 l 565 908 q 739 858 681 908 q 804 703 797 808 q 794 670 806 682 q 763 658 783 658 q 732 669 743 658 q 718 701 721 681 q 678 795 713 768 q 565 822 644 822 l 379 822 q 257 789 290 822 q 224 667 224 756 q 258 545 224 579 q 381 511 292 511 l 565 511 q 759 449 697 511 q 821 254 821 386 z "},"Ŝ":{"ha":932,"x_min":111,"x_max":821,"o":"m 365 0 q 181 53 243 0 q 111 219 119 107 q 122 252 110 240 q 154 264 133 264 q 197 222 193 264 q 240 116 203 146 q 365 86 278 86 l 565 86 q 698 123 661 86 q 735 254 735 160 q 697 388 735 350 q 565 425 660 425 l 381 425 q 197 484 256 425 q 138 667 138 543 q 197 850 138 792 q 379 908 256 908 l 565 908 q 739 858 681 908 q 804 703 797 808 q 794 670 806 682 q 763 658 783 658 q 732 669 743 658 q 718 701 721 681 q 678 795 713 768 q 565 822 644 822 l 379 822 q 257 789 290 822 q 224 667 224 756 q 258 545 224 579 q 381 511 292 511 l 565 511 q 759 449 697 511 q 821 254 821 386 q 758 62 821 124 q 565 0 696 0 l 365 0 m 342 985 q 314 996 325 985 q 303 1022 303 1007 q 313 1049 303 1035 l 418 1172 q 464 1194 436 1194 l 482 1194 q 529 1172 508 1194 l 635 1049 q 643 1022 643 1036 q 632 996 643 1007 q 606 985 621 985 q 576 997 586 985 l 479 1117 l 467 1117 l 371 997 q 342 985 358 985 z "},"Ș":{"ha":932,"x_min":111,"x_max":821,"o":"m 365 0 q 181 53 243 0 q 111 219 119 107 q 122 252 110 240 q 154 264 133 264 q 197 222 193 264 q 240 116 203 146 q 365 86 278 86 l 565 86 q 698 123 661 86 q 735 254 735 160 q 697 388 735 350 q 565 425 660 425 l 381 425 q 197 484 256 425 q 138 667 138 543 q 197 850 138 792 q 379 908 256 908 l 565 908 q 739 858 681 908 q 804 703 797 808 q 794 670 806 682 q 763 658 783 658 q 732 669 743 658 q 718 701 721 681 q 678 795 713 768 q 565 822 644 822 l 379 822 q 257 789 290 822 q 224 667 224 756 q 258 545 224 579 q 381 511 292 511 l 565 511 q 759 449 697 511 q 821 254 821 386 q 758 62 821 124 q 565 0 696 0 l 365 0 m 543 -129 q 539 -149 543 -140 l 540 -149 l 483 -272 q 454 -293 472 -293 q 431 -284 440 -293 q 424 -260 421 -275 l 451 -103 q 486 -68 451 -68 l 508 -68 q 543 -104 543 -68 l 543 -129 z "},"ẞ":{"ha":806,"x_min":135,"x_max":694,"o":"m 178 -12 q 147 0 160 -12 q 135 31 135 13 l 135 667 q 193 849 135 790 q 376 908 251 908 l 388 908 q 565 853 507 908 q 628 682 624 799 q 623 655 628 667 q 607 629 618 643 l 521 533 q 653 390 611 464 q 694 224 694 315 q 637 44 694 101 q 458 -12 579 -12 l 361 -12 q 331 0 343 -12 q 318 31 318 13 q 331 62 318 50 q 361 74 343 74 l 458 74 q 576 106 543 74 q 608 224 608 139 q 568 365 608 303 q 432 492 528 426 l 432 561 l 542 685 q 504 792 539 761 q 388 822 469 822 l 376 822 q 254 789 288 822 q 221 667 221 756 l 221 31 q 209 0 221 13 q 178 -12 197 -12 z "},"Ə":{"ha":981,"x_min":111,"x_max":869,"o":"m 407 0 q 183 72 254 0 q 111 296 111 143 l 111 426 l 783 426 l 783 610 q 763 734 783 689 q 698 799 743 779 q 574 819 653 819 l 407 819 q 283 799 328 819 q 217 734 238 779 q 197 610 197 689 q 185 579 197 592 q 154 567 172 567 q 124 579 136 567 q 111 610 111 592 q 183 835 111 764 q 407 906 254 906 l 574 906 q 798 835 726 906 q 869 610 869 764 l 869 296 q 798 72 869 143 q 574 0 726 0 l 407 0 m 574 86 q 698 106 653 86 q 763 172 743 126 q 783 296 783 217 l 783 340 l 197 340 l 197 296 q 217 172 197 217 q 283 106 238 126 q 407 86 328 86 l 574 86 z "},"T":{"ha":807,"x_min":31,"x_max":778,"o":"m 404 0 q 361 43 361 0 l 361 824 l 74 824 q 31 867 31 824 q 42 898 31 886 q 74 910 53 910 l 735 910 q 766 898 754 910 q 778 867 778 886 q 766 835 778 846 q 735 824 754 824 l 447 824 l 447 43 q 435 11 447 22 q 404 0 424 0 z "},"Ŧ":{"ha":807,"x_min":31,"x_max":778,"o":"m 735 910 q 766 898 754 910 q 778 867 778 886 q 766 835 778 846 q 735 824 754 824 l 447 824 l 447 494 l 585 494 q 622 456 622 494 q 585 417 622 417 l 447 417 l 447 43 q 435 11 447 22 q 404 0 424 0 q 361 43 361 0 l 361 417 l 224 417 q 185 456 185 417 q 224 494 185 494 l 361 494 l 361 824 l 74 824 q 31 867 31 824 q 42 898 31 886 q 74 910 53 910 l 735 910 z "},"Ť":{"ha":807,"x_min":31,"x_max":778,"o":"m 404 0 q 361 43 361 0 l 361 824 l 74 824 q 31 867 31 824 q 42 898 31 886 q 74 910 53 910 l 735 910 q 766 898 754 910 q 778 867 778 886 q 766 835 778 846 q 735 824 754 824 l 447 824 l 447 43 q 435 11 447 22 q 404 0 424 0 m 250 1193 q 279 1182 265 1193 l 414 1069 l 422 1069 l 557 1182 q 586 1193 571 1193 q 615 1181 603 1193 q 626 1153 626 1169 q 608 1119 626 1131 l 474 1007 q 424 989 451 989 l 413 989 q 363 1007 385 989 l 228 1119 q 210 1153 210 1131 q 222 1181 210 1169 q 250 1193 233 1193 z "},"Ţ":{"ha":807,"x_min":31,"x_max":778,"o":"m 735 910 q 766 898 754 910 q 778 867 778 886 q 766 835 778 846 q 735 824 754 824 l 447 824 l 447 43 q 440 17 447 28 q 449 -6 442 3 q 476 -29 456 -15 q 523 -72 504 -49 q 542 -135 542 -94 q 504 -250 542 -212 q 390 -287 467 -287 q 265 -162 265 -287 q 304 -124 265 -124 q 342 -162 342 -124 q 351 -201 342 -192 q 390 -210 361 -210 q 450 -195 435 -210 q 465 -135 465 -181 q 459 -115 465 -122 q 433 -92 453 -107 q 384 -47 404 -72 q 364 21 364 -22 l 364 25 q 361 43 361 33 l 361 824 l 74 824 q 31 867 31 824 q 42 898 31 886 q 74 910 53 910 l 735 910 z "},"Ț":{"ha":807,"x_min":31,"x_max":778,"o":"m 404 0 q 361 43 361 0 l 361 824 l 74 824 q 31 867 31 824 q 42 898 31 886 q 74 910 53 910 l 735 910 q 766 898 754 910 q 778 867 778 886 q 766 835 778 846 q 735 824 754 824 l 447 824 l 447 43 q 435 11 447 22 q 404 0 424 0 m 438 -129 q 433 -149 438 -140 l 435 -149 l 378 -272 q 349 -293 367 -293 q 325 -284 335 -293 q 318 -260 315 -275 l 346 -103 q 381 -68 346 -68 l 403 -68 q 438 -104 438 -68 l 438 -129 z "},"U":{"ha":1000,"x_min":121,"x_max":879,"o":"m 417 0 q 192 72 263 0 q 121 296 121 143 l 121 865 q 164 908 121 908 q 195 897 183 908 q 207 865 207 886 l 207 296 q 227 172 207 217 q 292 106 247 126 q 417 86 338 86 l 583 86 q 708 106 663 86 q 773 172 753 126 q 793 296 793 217 l 793 865 q 836 908 793 908 q 867 897 856 908 q 879 865 879 886 l 879 296 q 808 72 879 143 q 583 0 736 0 l 417 0 z "},"Ú":{"ha":1000,"x_min":121,"x_max":879,"o":"m 417 0 q 192 72 263 0 q 121 296 121 143 l 121 865 q 164 908 121 908 q 195 897 183 908 q 207 865 207 886 l 207 296 q 227 172 207 217 q 292 106 247 126 q 417 86 338 86 l 583 86 q 708 106 663 86 q 773 172 753 126 q 793 296 793 217 l 793 865 q 836 908 793 908 q 867 897 856 908 q 879 865 879 886 l 879 296 q 808 72 879 143 q 583 0 736 0 l 417 0 m 464 994 q 449 1024 449 1006 q 460 1050 449 1039 l 574 1185 q 603 1201 586 1201 q 629 1190 615 1201 q 644 1161 644 1179 q 633 1135 644 1146 l 519 1000 q 490 983 507 983 q 464 994 478 983 z "},"Ŭ":{"ha":1000,"x_min":121,"x_max":879,"o":"m 417 0 q 192 72 263 0 q 121 296 121 143 l 121 865 q 164 908 121 908 q 195 897 183 908 q 207 865 207 886 l 207 296 q 227 172 207 217 q 292 106 247 126 q 417 86 338 86 l 583 86 q 708 106 663 86 q 773 172 753 126 q 793 296 793 217 l 793 865 q 836 908 793 908 q 867 897 856 908 q 879 865 879 886 l 879 296 q 808 72 879 143 q 583 0 736 0 l 417 0 m 507 982 q 376 1021 421 982 q 331 1133 331 1060 l 331 1149 q 369 1188 331 1188 q 410 1149 410 1188 l 410 1133 q 432 1074 410 1092 q 510 1056 454 1056 q 589 1074 567 1057 q 611 1133 611 1092 l 611 1156 q 650 1188 611 1188 q 690 1149 690 1188 l 690 1133 q 643 1019 690 1057 q 507 982 596 982 z "},"Û":{"ha":1000,"x_min":121,"x_max":879,"o":"m 417 0 q 192 72 263 0 q 121 296 121 143 l 121 865 q 164 908 121 908 q 195 897 183 908 q 207 865 207 886 l 207 296 q 227 172 207 217 q 292 106 247 126 q 417 86 338 86 l 583 86 q 708 106 663 86 q 773 172 753 126 q 793 296 793 217 l 793 865 q 836 908 793 908 q 867 897 856 908 q 879 865 879 886 l 879 296 q 808 72 879 143 q 583 0 736 0 l 417 0 m 331 983 q 302 995 314 983 q 290 1024 290 1007 q 308 1057 290 1046 l 443 1169 q 493 1188 465 1188 l 504 1188 q 554 1169 532 1188 l 689 1057 q 707 1024 707 1046 q 695 995 707 1007 q 667 983 683 983 q 638 994 651 983 l 503 1107 l 494 1107 l 360 994 q 331 983 346 983 z "},"Ȕ":{"ha":1000,"x_min":121,"x_max":879,"o":"m 456 1013 q 431 1003 444 1003 q 406 1018 415 1003 l 303 1139 q 292 1163 292 1153 q 307 1189 292 1176 q 331 1200 318 1200 q 357 1185 346 1200 l 460 1063 q 469 1039 469 1053 q 456 1013 469 1025 m 613 1013 q 588 1003 601 1003 q 563 1018 572 1003 l 460 1139 q 449 1163 449 1153 q 464 1189 449 1176 q 488 1200 475 1200 q 514 1185 503 1200 l 617 1063 q 626 1039 626 1053 q 613 1013 626 1025 m 417 0 q 192 72 263 0 q 121 296 121 143 l 121 865 q 164 908 121 908 q 195 897 183 908 q 207 865 207 886 l 207 296 q 227 172 207 217 q 292 106 247 126 q 417 86 338 86 l 583 86 q 708 106 663 86 q 773 172 753 126 q 793 296 793 217 l 793 865 q 836 908 793 908 q 867 897 856 908 q 879 865 879 886 l 879 296 q 808 72 879 143 q 583 0 736 0 l 417 0 z "},"Ü":{"ha":1000,"x_min":121,"x_max":879,"o":"m 417 0 q 192 72 263 0 q 121 296 121 143 l 121 865 q 164 908 121 908 q 195 897 183 908 q 207 865 207 886 l 207 296 q 227 172 207 217 q 292 106 247 126 q 417 86 338 86 l 583 86 q 708 106 663 86 q 773 172 753 126 q 793 296 793 217 l 793 865 q 836 908 793 908 q 867 897 856 908 q 879 865 879 886 l 879 296 q 808 72 879 143 q 583 0 736 0 l 417 0 m 379 1021 q 335 1067 335 1021 l 335 1096 q 379 1139 335 1139 l 407 1139 q 450 1096 450 1139 l 450 1067 q 439 1033 450 1044 q 407 1021 428 1021 l 379 1021 m 593 1021 q 549 1067 549 1021 l 549 1096 q 593 1139 549 1139 l 621 1139 q 664 1096 664 1139 l 664 1067 q 653 1033 664 1044 q 621 1021 642 1021 l 593 1021 z "},"Ụ":{"ha":1000,"x_min":121,"x_max":879,"o":"m 417 0 q 192 72 263 0 q 121 296 121 143 l 121 865 q 164 908 121 908 q 195 897 183 908 q 207 865 207 886 l 207 296 q 227 172 207 217 q 292 106 247 126 q 417 86 338 86 l 583 86 q 708 106 663 86 q 773 172 753 126 q 793 296 793 217 l 793 865 q 836 908 793 908 q 867 897 856 908 q 879 865 879 886 l 879 296 q 808 72 879 143 q 583 0 736 0 l 417 0 m 486 -212 q 442 -167 442 -212 l 442 -137 q 486 -94 442 -94 l 514 -94 q 557 -137 557 -94 l 557 -167 q 546 -201 557 -189 q 514 -212 535 -212 l 486 -212 z "},"Ù":{"ha":1000,"x_min":121,"x_max":879,"o":"m 417 0 q 192 72 263 0 q 121 296 121 143 l 121 865 q 164 908 121 908 q 195 897 183 908 q 207 865 207 886 l 207 296 q 227 172 207 217 q 292 106 247 126 q 417 86 338 86 l 583 86 q 708 106 663 86 q 773 172 753 126 q 793 296 793 217 l 793 865 q 836 908 793 908 q 867 897 856 908 q 879 865 879 886 l 879 296 q 808 72 879 143 q 583 0 736 0 l 417 0 m 549 982 q 522 971 535 971 q 493 988 506 971 l 379 1122 q 368 1149 368 1133 q 383 1178 368 1167 q 410 1189 397 1189 q 439 1172 426 1189 l 553 1038 q 564 1011 564 1026 q 549 982 564 993 z "},"Ủ":{"ha":1000,"x_min":121,"x_max":879,"o":"m 417 0 q 192 72 263 0 q 121 296 121 143 l 121 865 q 164 908 121 908 q 195 897 183 908 q 207 865 207 886 l 207 296 q 227 172 207 217 q 292 106 247 126 q 417 86 338 86 l 583 86 q 708 106 663 86 q 773 172 753 126 q 793 296 793 217 l 793 865 q 836 908 793 908 q 867 897 856 908 q 879 865 879 886 l 879 296 q 808 72 879 143 q 583 0 736 0 l 417 0 m 500 985 q 474 992 482 985 q 467 1018 467 1000 q 485 1078 467 1057 q 532 1117 503 1099 q 558 1135 553 1129 q 564 1153 564 1142 q 553 1195 564 1185 q 511 1206 543 1206 q 469 1195 479 1206 q 460 1153 460 1185 q 451 1127 460 1135 q 425 1119 443 1119 q 399 1127 407 1119 q 392 1153 392 1135 q 511 1272 392 1272 q 632 1153 632 1272 q 615 1097 632 1117 q 568 1058 597 1078 q 540 1038 546 1046 q 533 1018 533 1031 q 526 992 533 1000 q 500 985 518 985 z "},"Ư":{"ha":1000,"x_min":121,"x_max":1000,"o":"m 958 1032 q 1000 992 1000 1032 l 1000 967 q 879 840 1000 857 l 879 296 q 808 72 879 143 q 583 0 736 0 l 417 0 q 192 72 263 0 q 121 296 121 143 l 121 865 q 164 908 121 908 q 195 897 183 908 q 207 865 207 886 l 207 296 q 227 172 207 217 q 292 106 247 126 q 417 86 338 86 l 583 86 q 708 106 663 86 q 773 172 753 126 q 793 296 793 217 l 793 865 q 836 908 793 908 q 900 921 883 908 q 917 967 917 933 l 917 1000 q 958 1032 917 1032 z "},"Ứ":{"ha":1000,"x_min":121,"x_max":1000,"o":"m 958 1032 q 1000 992 1000 1032 l 1000 967 q 879 840 1000 857 l 879 296 q 808 72 879 143 q 583 0 736 0 l 417 0 q 192 72 263 0 q 121 296 121 143 l 121 865 q 164 908 121 908 q 195 897 183 908 q 207 865 207 886 l 207 296 q 227 172 207 217 q 292 106 247 126 q 417 86 338 86 l 583 86 q 708 106 663 86 q 773 172 753 126 q 793 296 793 217 l 793 865 q 836 908 793 908 q 900 921 883 908 q 917 967 917 933 l 917 1000 q 958 1032 917 1032 m 464 994 q 449 1024 449 1006 q 460 1050 449 1039 l 574 1185 q 603 1201 586 1201 q 629 1190 615 1201 q 644 1161 644 1179 q 633 1135 644 1146 l 519 1000 q 490 983 507 983 q 464 994 478 983 z "},"Ự":{"ha":1000,"x_min":121,"x_max":1000,"o":"m 958 1032 q 1000 992 1000 1032 l 1000 967 q 879 840 1000 857 l 879 296 q 808 72 879 143 q 583 0 736 0 l 417 0 q 192 72 263 0 q 121 296 121 143 l 121 865 q 164 908 121 908 q 195 897 183 908 q 207 865 207 886 l 207 296 q 227 172 207 217 q 292 106 247 126 q 417 86 338 86 l 583 86 q 708 106 663 86 q 773 172 753 126 q 793 296 793 217 l 793 865 q 836 908 793 908 q 900 921 883 908 q 917 967 917 933 l 917 1000 q 958 1032 917 1032 m 486 -212 q 442 -167 442 -212 l 442 -137 q 486 -94 442 -94 l 514 -94 q 557 -137 557 -94 l 557 -167 q 546 -201 557 -189 q 514 -212 535 -212 l 486 -212 z "},"Ừ":{"ha":1000,"x_min":121,"x_max":1000,"o":"m 958 1032 q 1000 992 1000 1032 l 1000 967 q 879 840 1000 857 l 879 296 q 808 72 879 143 q 583 0 736 0 l 417 0 q 192 72 263 0 q 121 296 121 143 l 121 865 q 164 908 121 908 q 195 897 183 908 q 207 865 207 886 l 207 296 q 227 172 207 217 q 292 106 247 126 q 417 86 338 86 l 583 86 q 708 106 663 86 q 773 172 753 126 q 793 296 793 217 l 793 865 q 836 908 793 908 q 900 921 883 908 q 917 967 917 933 l 917 1000 q 958 1032 917 1032 m 549 982 q 522 971 535 971 q 493 988 506 971 l 379 1122 q 368 1149 368 1133 q 383 1178 368 1167 q 410 1189 397 1189 q 439 1172 426 1189 l 553 1038 q 564 1011 564 1026 q 549 982 564 993 z "},"Ử":{"ha":1000,"x_min":121,"x_max":1000,"o":"m 958 1032 q 1000 992 1000 1032 l 1000 967 q 879 840 1000 857 l 879 296 q 808 72 879 143 q 583 0 736 0 l 417 0 q 192 72 263 0 q 121 296 121 143 l 121 865 q 164 908 121 908 q 195 897 183 908 q 207 865 207 886 l 207 296 q 227 172 207 217 q 292 106 247 126 q 417 86 338 86 l 583 86 q 708 106 663 86 q 773 172 753 126 q 793 296 793 217 l 793 865 q 836 908 793 908 q 900 921 883 908 q 917 967 917 933 l 917 1000 q 958 1032 917 1032 m 500 985 q 474 992 482 985 q 467 1018 467 1000 q 485 1078 467 1057 q 532 1117 503 1099 q 558 1135 553 1129 q 564 1153 564 1142 q 553 1195 564 1185 q 511 1206 543 1206 q 469 1195 479 1206 q 460 1153 460 1185 q 451 1127 460 1135 q 425 1119 443 1119 q 399 1127 407 1119 q 392 1153 392 1135 q 511 1272 392 1272 q 632 1153 632 1272 q 615 1097 632 1117 q 568 1058 597 1078 q 540 1038 546 1046 q 533 1018 533 1031 q 526 992 533 1000 q 500 985 518 985 z "},"Ữ":{"ha":1000,"x_min":121,"x_max":1000,"o":"m 958 1032 q 1000 992 1000 1032 l 1000 967 q 879 840 1000 857 l 879 296 q 808 72 879 143 q 583 0 736 0 l 417 0 q 192 72 263 0 q 121 296 121 143 l 121 865 q 164 908 121 908 q 195 897 183 908 q 207 865 207 886 l 207 296 q 227 172 207 217 q 292 106 247 126 q 417 86 338 86 l 583 86 q 708 106 663 86 q 773 172 753 126 q 793 296 793 217 l 793 865 q 836 908 793 908 q 900 921 883 908 q 917 967 917 933 l 917 1000 q 958 1032 917 1032 m 592 1008 q 531 1024 556 1008 q 485 1061 506 1039 q 454 1088 467 1081 q 425 1094 442 1094 q 391 1083 404 1094 q 367 1040 378 1072 q 322 1014 353 1006 q 299 1026 307 1017 q 292 1047 292 1035 q 294 1063 292 1051 q 347 1144 315 1118 q 425 1169 378 1169 q 490 1153 464 1169 q 538 1114 515 1138 q 567 1089 558 1094 q 592 1083 576 1083 q 622 1094 610 1083 q 644 1133 635 1106 q 679 1164 656 1164 q 708 1154 697 1164 q 719 1131 719 1144 q 717 1115 719 1126 q 667 1035 697 1061 q 592 1008 638 1008 z "},"Ű":{"ha":1000,"x_min":121,"x_max":879,"o":"m 417 0 q 192 72 263 0 q 121 296 121 143 l 121 865 q 164 908 121 908 q 195 897 183 908 q 207 865 207 886 l 207 296 q 227 172 207 217 q 292 106 247 126 q 417 86 338 86 l 583 86 q 708 106 663 86 q 773 172 753 126 q 793 296 793 217 l 793 865 q 836 908 793 908 q 867 897 856 908 q 879 865 879 886 l 879 296 q 808 72 879 143 q 583 0 736 0 l 417 0 m 383 994 q 368 1024 368 1006 q 379 1050 368 1039 l 493 1185 q 522 1201 506 1201 q 549 1190 535 1201 q 564 1161 564 1179 q 553 1135 564 1146 l 439 1000 q 410 983 426 983 q 383 994 397 983 m 561 994 q 546 1024 546 1006 q 557 1050 546 1039 l 671 1185 q 700 1201 683 1201 q 726 1190 713 1201 q 742 1161 742 1179 q 731 1135 742 1146 l 617 1000 q 588 983 604 983 q 561 994 575 983 z "},"Ȗ":{"ha":1000,"x_min":121,"x_max":879,"o":"m 417 0 q 192 72 263 0 q 121 296 121 143 l 121 865 q 164 908 121 908 q 195 897 183 908 q 207 865 207 886 l 207 296 q 227 172 207 217 q 292 106 247 126 q 417 86 338 86 l 583 86 q 708 106 663 86 q 773 172 753 126 q 793 296 793 217 l 793 865 q 836 908 793 908 q 867 897 856 908 q 879 865 879 886 l 879 296 q 808 72 879 143 q 583 0 736 0 l 417 0 m 496 1219 q 632 1182 585 1219 q 679 1068 679 1144 l 679 1053 q 639 1014 679 1014 q 600 1046 600 1014 l 600 1068 q 578 1127 600 1110 q 499 1146 556 1144 q 421 1128 443 1146 q 399 1068 399 1110 l 399 1053 q 358 1014 399 1014 q 319 1053 319 1014 l 319 1068 q 365 1181 319 1142 q 496 1219 410 1219 z "},"Ū":{"ha":1000,"x_min":121,"x_max":879,"o":"m 417 0 q 192 72 263 0 q 121 296 121 143 l 121 865 q 164 908 121 908 q 195 897 183 908 q 207 865 207 886 l 207 296 q 227 172 207 217 q 292 106 247 126 q 417 86 338 86 l 583 86 q 708 106 663 86 q 773 172 753 126 q 793 296 793 217 l 793 865 q 836 908 793 908 q 867 897 856 908 q 879 865 879 886 l 879 296 q 808 72 879 143 q 583 0 736 0 l 417 0 m 321 1053 q 278 1096 278 1053 q 321 1139 278 1139 l 672 1139 q 715 1096 715 1139 q 672 1053 715 1053 l 321 1053 z "},"Ų":{"ha":1000,"x_min":121,"x_max":879,"o":"m 711 -58 q 694 -99 694 -81 q 709 -128 694 -117 q 747 -140 724 -140 q 778 -135 764 -140 q 810 -117 792 -129 q 829 -111 821 -111 q 859 -123 849 -111 q 869 -153 869 -135 q 854 -181 869 -169 q 747 -219 804 -219 q 653 -185 692 -219 q 615 -99 615 -150 q 647 -11 615 -57 l 660 6 q 583 0 628 0 l 417 0 q 192 72 263 0 q 121 296 121 143 l 121 865 q 164 908 121 908 q 195 897 183 908 q 207 865 207 886 l 207 296 q 227 172 207 217 q 292 106 247 126 q 417 86 338 86 l 583 86 q 708 106 663 86 q 773 172 753 126 q 793 296 793 217 l 793 865 q 836 908 793 908 q 867 897 856 908 q 879 865 879 886 l 879 296 q 818 82 879 153 l 711 -58 z "},"Ů":{"ha":1000,"x_min":121,"x_max":879,"o":"m 417 0 q 192 72 263 0 q 121 296 121 143 l 121 865 q 164 908 121 908 q 195 897 183 908 q 207 865 207 886 l 207 296 q 227 172 207 217 q 292 106 247 126 q 417 86 338 86 l 583 86 q 708 106 663 86 q 773 172 753 126 q 793 296 793 217 l 793 865 q 836 908 793 908 q 867 897 856 908 q 879 865 879 886 l 879 296 q 808 72 879 143 q 583 0 736 0 l 417 0 m 497 988 q 418 1015 446 988 q 390 1094 390 1043 q 418 1172 390 1144 q 497 1200 446 1200 q 575 1172 547 1200 q 603 1094 603 1144 q 575 1015 603 1043 q 497 988 547 988 m 497 1056 q 528 1063 521 1056 q 535 1094 535 1071 q 528 1125 535 1118 q 497 1132 521 1132 q 465 1125 472 1132 q 458 1094 458 1118 q 466 1063 458 1069 q 497 1056 474 1056 z "},"Ũ":{"ha":1000,"x_min":121,"x_max":879,"o":"m 417 0 q 192 72 263 0 q 121 296 121 143 l 121 865 q 164 908 121 908 q 195 897 183 908 q 207 865 207 886 l 207 296 q 227 172 207 217 q 292 106 247 126 q 417 86 338 86 l 583 86 q 708 106 663 86 q 773 172 753 126 q 793 296 793 217 l 793 865 q 836 908 793 908 q 867 897 856 908 q 879 865 879 886 l 879 296 q 808 72 879 143 q 583 0 736 0 l 417 0 m 592 1008 q 531 1024 556 1008 q 485 1061 506 1039 q 454 1088 467 1081 q 425 1094 442 1094 q 391 1083 404 1094 q 367 1040 378 1072 q 322 1014 353 1006 q 299 1026 307 1017 q 292 1047 292 1035 q 294 1063 292 1051 q 347 1144 315 1118 q 425 1169 378 1169 q 490 1153 464 1169 q 538 1114 515 1138 q 567 1089 558 1094 q 592 1083 576 1083 q 622 1094 610 1083 q 644 1133 635 1106 q 679 1164 656 1164 q 708 1154 697 1164 q 719 1131 719 1144 q 717 1115 719 1126 q 667 1035 697 1061 q 592 1008 638 1008 z "},"V":{"ha":860,"x_min":22,"x_max":836,"o":"m 425 0 q 383 31 396 0 l 28 847 q 22 868 22 861 q 36 897 22 885 q 71 908 50 908 q 107 882 97 908 l 432 136 l 753 882 q 788 908 763 908 q 806 906 799 908 q 836 868 836 897 q 832 847 836 858 l 475 31 q 431 0 463 0 l 425 0 z "},"W":{"ha":1207,"x_min":24,"x_max":1183,"o":"m 1150 906 q 1183 868 1183 900 l 1181 851 l 917 35 q 872 0 904 0 l 867 0 q 824 35 833 0 l 600 751 l 378 35 q 363 8 372 17 q 335 0 353 0 l 331 0 q 290 35 300 0 l 26 851 q 24 868 24 863 q 57 906 24 897 q 74 908 68 908 q 108 878 99 908 l 338 167 l 554 874 q 601 908 564 908 l 607 908 q 653 874 642 908 l 869 168 l 1099 878 q 1133 908 1108 908 q 1150 906 1139 908 z "},"Ẃ":{"ha":1207,"x_min":24,"x_max":1183,"o":"m 1150 906 q 1183 868 1183 900 l 1181 851 l 917 35 q 872 0 904 0 l 867 0 q 824 35 833 0 l 600 751 l 378 35 q 363 8 372 17 q 335 0 353 0 l 331 0 q 290 35 300 0 l 26 851 q 24 868 24 863 q 57 906 24 897 q 74 908 68 908 q 108 878 99 908 l 338 167 l 554 874 q 601 908 564 908 l 607 908 q 653 874 642 908 l 869 168 l 1099 878 q 1133 908 1108 908 q 1150 906 1139 908 m 568 994 q 553 1024 553 1006 q 564 1050 553 1039 l 678 1185 q 707 1201 690 1201 q 733 1190 719 1201 q 749 1161 749 1179 q 738 1135 749 1146 l 624 1000 q 594 983 611 983 q 568 994 582 983 z "},"Ŵ":{"ha":1207,"x_min":24,"x_max":1183,"o":"m 1150 906 q 1183 868 1183 900 l 1181 851 l 917 35 q 872 0 904 0 l 867 0 q 824 35 833 0 l 600 751 l 378 35 q 363 8 372 17 q 335 0 353 0 l 331 0 q 290 35 300 0 l 26 851 q 24 868 24 863 q 57 906 24 897 q 74 908 68 908 q 108 878 99 908 l 338 167 l 554 874 q 601 908 564 908 l 607 908 q 653 874 642 908 l 869 168 l 1099 878 q 1133 908 1108 908 q 1150 906 1139 908 m 435 983 q 406 995 418 983 q 394 1024 394 1007 q 413 1057 394 1046 l 547 1169 q 597 1188 569 1188 l 608 1188 q 658 1169 636 1188 l 793 1057 q 811 1024 811 1046 q 799 995 811 1007 q 771 983 788 983 q 742 994 756 983 l 607 1107 l 599 1107 l 464 994 q 435 983 450 983 z "},"Ẅ":{"ha":1207,"x_min":24,"x_max":1183,"o":"m 1150 906 q 1183 868 1183 900 l 1181 851 l 917 35 q 872 0 904 0 l 867 0 q 824 35 833 0 l 600 751 l 378 35 q 363 8 372 17 q 335 0 353 0 l 331 0 q 290 35 300 0 l 26 851 q 24 868 24 863 q 57 906 24 897 q 74 908 68 908 q 108 878 99 908 l 338 167 l 554 874 q 601 908 564 908 l 607 908 q 653 874 642 908 l 869 168 l 1099 878 q 1133 908 1108 908 q 1150 906 1139 908 m 483 1021 q 439 1067 439 1021 l 439 1096 q 483 1139 439 1139 l 511 1139 q 554 1096 554 1139 l 554 1067 q 543 1033 554 1044 q 511 1021 532 1021 l 483 1021 m 697 1021 q 653 1067 653 1021 l 653 1096 q 697 1139 653 1139 l 725 1139 q 768 1096 768 1139 l 768 1067 q 757 1033 768 1044 q 725 1021 746 1021 l 697 1021 z "},"Ẁ":{"ha":1207,"x_min":24,"x_max":1183,"o":"m 1150 906 q 1183 868 1183 900 l 1181 851 l 917 35 q 872 0 904 0 l 867 0 q 824 35 833 0 l 600 751 l 378 35 q 363 8 372 17 q 335 0 353 0 l 331 0 q 290 35 300 0 l 26 851 q 24 868 24 863 q 57 906 24 897 q 74 908 68 908 q 108 878 99 908 l 338 167 l 554 874 q 601 908 564 908 l 607 908 q 653 874 642 908 l 869 168 l 1099 878 q 1133 908 1108 908 q 1150 906 1139 908 m 653 982 q 626 971 639 971 q 597 988 610 971 l 483 1122 q 472 1149 472 1133 q 488 1178 472 1167 q 514 1189 501 1189 q 543 1172 531 1189 l 657 1038 q 668 1011 668 1026 q 653 982 668 993 z "},"X":{"ha":821,"x_min":68,"x_max":749,"o":"m 89 10 q 68 43 68 22 q 78 69 68 56 l 349 467 l 83 839 q 74 865 74 856 q 94 899 74 885 q 121 908 108 908 q 154 889 142 908 l 406 538 l 663 889 q 696 908 678 908 q 724 899 710 908 q 743 867 743 883 q 732 839 743 854 l 458 463 l 739 71 q 749 43 749 57 q 728 10 749 25 q 701 0 714 0 q 668 21 682 0 l 401 393 l 149 21 q 115 0 135 0 q 89 10 103 0 z "},"Y":{"ha":782,"x_min":24,"x_max":758,"o":"m 736 900 q 758 867 758 885 q 749 840 758 854 l 431 344 l 431 43 q 388 0 431 0 q 344 43 344 0 l 344 344 l 32 840 q 24 865 24 853 q 44 900 24 886 q 71 908 57 908 q 104 888 92 908 l 388 436 l 678 888 q 711 908 690 908 q 736 900 724 908 z "},"Ý":{"ha":782,"x_min":24,"x_max":758,"o":"m 736 900 q 758 867 758 885 q 749 840 758 854 l 431 344 l 431 43 q 388 0 431 0 q 344 43 344 0 l 344 344 l 32 840 q 24 865 24 853 q 44 900 24 886 q 71 908 57 908 q 104 888 92 908 l 388 436 l 678 888 q 711 908 690 908 q 736 900 724 908 m 356 994 q 340 1024 340 1006 q 351 1050 340 1039 l 465 1185 q 494 1201 478 1201 q 521 1190 507 1201 q 536 1161 536 1179 q 525 1135 536 1146 l 411 1000 q 382 983 399 983 q 356 994 369 983 z "},"Ŷ":{"ha":782,"x_min":24,"x_max":758,"o":"m 736 900 q 758 867 758 885 q 749 840 758 854 l 431 344 l 431 43 q 388 0 431 0 q 344 43 344 0 l 344 344 l 32 840 q 24 865 24 853 q 44 900 24 886 q 71 908 57 908 q 104 888 92 908 l 388 436 l 678 888 q 711 908 690 908 q 736 900 724 908 m 222 983 q 194 995 206 983 q 182 1024 182 1007 q 200 1057 182 1046 l 335 1169 q 385 1188 357 1188 l 396 1188 q 446 1169 424 1188 l 581 1057 q 599 1024 599 1046 q 587 995 599 1007 q 558 983 575 983 q 529 994 543 983 l 394 1107 l 386 1107 l 251 994 q 222 983 238 983 z "},"Ÿ":{"ha":782,"x_min":24,"x_max":758,"o":"m 736 900 q 758 867 758 885 q 749 840 758 854 l 431 344 l 431 43 q 388 0 431 0 q 344 43 344 0 l 344 344 l 32 840 q 24 865 24 853 q 44 900 24 886 q 71 908 57 908 q 104 888 92 908 l 388 436 l 678 888 q 711 908 690 908 q 736 900 724 908 m 271 1021 q 226 1067 226 1021 l 226 1096 q 271 1139 226 1139 l 299 1139 q 342 1096 342 1139 l 342 1067 q 331 1033 342 1044 q 299 1021 319 1021 l 271 1021 m 485 1021 q 440 1067 440 1021 l 440 1096 q 485 1139 440 1139 l 513 1139 q 556 1096 556 1139 l 556 1067 q 544 1033 556 1044 q 513 1021 533 1021 l 485 1021 z "},"Ỵ":{"ha":782,"x_min":24,"x_max":758,"o":"m 736 900 q 758 867 758 885 q 749 840 758 854 l 431 344 l 431 43 q 388 0 431 0 q 344 43 344 0 l 344 344 l 32 840 q 24 865 24 853 q 44 900 24 886 q 71 908 57 908 q 104 888 92 908 l 388 436 l 678 888 q 711 908 690 908 q 736 900 724 908 m 378 -212 q 333 -167 333 -212 l 333 -137 q 378 -94 333 -94 l 406 -94 q 449 -137 449 -94 l 449 -167 q 438 -201 449 -189 q 406 -212 426 -212 l 378 -212 z "},"Ỳ":{"ha":782,"x_min":24,"x_max":758,"o":"m 736 900 q 758 867 758 885 q 749 840 758 854 l 431 344 l 431 43 q 388 0 431 0 q 344 43 344 0 l 344 344 l 32 840 q 24 865 24 853 q 44 900 24 886 q 71 908 57 908 q 104 888 92 908 l 388 436 l 678 888 q 711 908 690 908 q 736 900 724 908 m 440 982 q 414 971 426 971 q 385 988 397 971 l 271 1122 q 260 1149 260 1133 q 275 1178 260 1167 q 301 1189 289 1189 q 331 1172 318 1189 l 444 1038 q 456 1011 456 1026 q 440 982 456 993 z "},"Ỷ":{"ha":782,"x_min":24,"x_max":758,"o":"m 736 900 q 758 867 758 885 q 749 840 758 854 l 431 344 l 431 43 q 388 0 431 0 q 344 43 344 0 l 344 344 l 32 840 q 24 865 24 853 q 44 900 24 886 q 71 908 57 908 q 104 888 92 908 l 388 436 l 678 888 q 711 908 690 908 q 736 900 724 908 m 392 985 q 366 992 374 985 q 358 1018 358 1000 q 376 1078 358 1057 q 424 1117 394 1099 q 450 1135 444 1129 q 456 1153 456 1142 q 445 1195 456 1185 q 403 1206 435 1206 q 361 1195 371 1206 q 351 1153 351 1185 q 343 1127 351 1135 q 317 1119 335 1119 q 291 1127 299 1119 q 283 1153 283 1135 q 403 1272 283 1272 q 524 1153 524 1272 q 506 1097 524 1117 q 460 1058 489 1078 q 431 1038 438 1046 q 425 1018 425 1031 q 417 992 425 1000 q 392 985 410 985 z "},"Ȳ":{"ha":782,"x_min":24,"x_max":758,"o":"m 736 900 q 758 867 758 885 q 749 840 758 854 l 431 344 l 431 43 q 388 0 431 0 q 344 43 344 0 l 344 344 l 32 840 q 24 865 24 853 q 44 900 24 886 q 71 908 57 908 q 104 888 92 908 l 388 436 l 678 888 q 711 908 690 908 q 736 900 724 908 m 213 1053 q 169 1096 169 1053 q 213 1139 169 1139 l 564 1139 q 607 1096 607 1139 q 564 1053 607 1053 l 213 1053 z "},"Ỹ":{"ha":782,"x_min":24,"x_max":758,"o":"m 736 900 q 758 867 758 885 q 749 840 758 854 l 431 344 l 431 43 q 388 0 431 0 q 344 43 344 0 l 344 344 l 32 840 q 24 865 24 853 q 44 900 24 886 q 71 908 57 908 q 104 888 92 908 l 388 436 l 678 888 q 711 908 690 908 q 736 900 724 908 m 483 1008 q 422 1024 447 1008 q 376 1061 397 1039 q 346 1088 358 1081 q 317 1094 333 1094 q 283 1083 296 1094 q 258 1040 269 1072 q 214 1014 244 1006 q 191 1026 199 1017 q 183 1047 183 1035 q 186 1063 183 1051 q 238 1144 207 1118 q 317 1169 269 1169 q 381 1153 356 1169 q 429 1114 407 1138 q 459 1089 450 1094 q 483 1083 468 1083 q 514 1094 501 1083 q 536 1133 526 1106 q 571 1164 547 1164 q 600 1154 589 1164 q 611 1131 611 1144 q 608 1115 611 1126 q 559 1035 589 1061 q 483 1008 529 1008 z "},"Z":{"ha":889,"x_min":63,"x_max":825,"o":"m 782 213 q 814 201 803 213 q 824 167 825 189 q 759 42 813 85 q 614 0 706 0 l 126 0 q 83 43 83 0 q 101 86 83 60 l 660 822 l 274 822 q 189 802 218 822 q 151 738 160 782 q 107 696 144 696 q 74 708 85 696 q 65 742 63 719 q 128 866 75 824 q 274 908 182 908 l 735 908 q 778 865 778 908 q 761 821 778 843 l 207 86 l 614 86 q 700 106 671 86 q 736 171 729 126 q 751 202 740 192 q 782 213 761 213 z "},"Ź":{"ha":889,"x_min":65,"x_max":824,"o":"m 782 213 q 814 201 803 213 q 824 167 825 189 q 759 42 813 85 q 614 0 706 0 l 126 0 q 83 43 83 0 q 101 86 83 60 l 660 822 l 274 822 q 189 802 218 822 q 151 738 160 782 q 107 696 144 696 q 74 708 85 696 q 65 742 63 719 q 128 866 75 824 q 274 908 182 908 l 735 908 q 778 865 778 908 q 761 821 778 843 l 207 86 l 614 86 q 700 106 671 86 q 736 171 729 126 q 751 202 740 192 q 782 213 761 213 m 435 994 q 419 1024 419 1006 q 431 1050 419 1039 l 544 1185 q 574 1201 557 1201 q 600 1190 586 1201 q 615 1161 615 1179 q 604 1135 615 1146 l 490 1000 q 461 983 478 983 q 435 994 449 983 z "},"Ž":{"ha":889,"x_min":65,"x_max":824,"o":"m 782 213 q 814 201 803 213 q 824 167 825 189 q 759 42 813 85 q 614 0 706 0 l 126 0 q 83 43 83 0 q 101 86 83 60 l 660 822 l 274 822 q 189 802 218 822 q 151 738 160 782 q 107 696 144 696 q 74 708 85 696 q 65 742 63 719 q 128 866 75 824 q 274 908 182 908 l 735 908 q 778 865 778 908 q 761 821 778 843 l 207 86 l 614 86 q 700 106 671 86 q 736 171 729 126 q 751 202 740 192 q 782 213 761 213 m 317 1193 q 346 1182 332 1193 l 481 1069 l 489 1069 l 624 1182 q 653 1193 638 1193 q 681 1181 669 1193 q 693 1153 693 1169 q 675 1119 693 1131 l 540 1007 q 490 989 518 989 l 479 989 q 429 1007 451 989 l 294 1119 q 276 1153 276 1131 q 288 1181 276 1169 q 317 1193 300 1193 z "},"Ż":{"ha":889,"x_min":65,"x_max":824,"o":"m 782 213 q 814 201 803 213 q 824 167 825 189 q 759 42 813 85 q 614 0 706 0 l 126 0 q 83 43 83 0 q 101 86 83 60 l 660 822 l 274 822 q 189 802 218 822 q 151 738 160 782 q 107 696 144 696 q 74 708 85 696 q 65 742 63 719 q 128 866 75 824 q 274 908 182 908 l 735 908 q 778 865 778 908 q 761 821 778 843 l 207 86 l 614 86 q 700 106 671 86 q 736 171 729 126 q 751 202 740 192 q 782 213 761 213 m 454 1031 q 401 1085 401 1031 l 401 1121 q 415 1159 401 1146 q 454 1172 428 1172 l 488 1172 q 526 1158 513 1172 q 539 1121 539 1144 l 539 1085 q 526 1044 539 1058 q 488 1031 513 1031 l 454 1031 z "},"a":{"ha":839,"x_min":107,"x_max":718,"o":"m 461 671 q 656 608 593 671 q 718 414 718 546 l 718 43 q 675 0 718 0 q 632 43 632 0 l 632 100 q 400 0 561 0 l 322 0 q 159 52 211 0 q 107 215 107 104 q 160 378 107 326 q 322 431 213 431 l 632 431 q 591 551 629 518 q 461 585 553 585 l 381 585 q 258 569 297 585 q 208 514 219 553 q 192 484 201 493 q 163 475 182 475 q 129 487 142 475 q 121 519 117 499 q 197 634 133 597 q 381 671 261 671 l 461 671 m 632 226 l 632 344 l 322 344 q 220 317 247 344 q 193 215 193 290 q 220 113 193 140 q 322 86 247 86 l 400 86 q 558 117 501 86 q 628 213 614 149 l 632 226 z "},"á":{"ha":839,"x_min":107,"x_max":718,"o":"m 461 671 q 656 608 593 671 q 718 414 718 546 l 718 43 q 675 0 718 0 q 632 43 632 0 l 632 100 q 400 0 561 0 l 322 0 q 159 52 211 0 q 107 215 107 104 q 160 378 107 326 q 322 431 213 431 l 632 431 q 591 551 629 518 q 461 585 553 585 l 381 585 q 258 569 297 585 q 208 514 219 553 q 192 484 201 493 q 163 475 182 475 q 129 487 142 475 q 121 519 117 499 q 197 634 133 597 q 381 671 261 671 l 461 671 m 632 226 l 632 344 l 322 344 q 220 317 247 344 q 193 215 193 290 q 220 113 193 140 q 322 86 247 86 l 400 86 q 558 117 501 86 q 628 213 614 149 l 632 226 m 376 757 q 361 786 361 768 q 372 813 361 801 l 486 947 q 515 964 499 964 q 542 953 528 964 q 557 924 557 942 q 546 897 557 908 l 432 763 q 403 746 419 746 q 376 757 390 746 z "},"ă":{"ha":839,"x_min":107,"x_max":718,"o":"m 461 671 q 656 608 593 671 q 718 414 718 546 l 718 43 q 675 0 718 0 q 632 43 632 0 l 632 100 q 400 0 561 0 l 322 0 q 159 52 211 0 q 107 215 107 104 q 160 378 107 326 q 322 431 213 431 l 632 431 q 591 551 629 518 q 461 585 553 585 l 381 585 q 258 569 297 585 q 208 514 219 553 q 192 484 201 493 q 163 475 182 475 q 129 487 142 475 q 121 519 117 499 q 197 634 133 597 q 381 671 261 671 l 461 671 m 632 226 l 632 344 l 322 344 q 220 317 247 344 q 193 215 193 290 q 220 113 193 140 q 322 86 247 86 l 400 86 q 558 117 501 86 q 628 213 614 149 l 632 226 m 419 744 q 288 783 333 744 q 243 896 243 822 l 243 911 q 282 950 243 950 q 322 911 322 950 l 322 896 q 344 836 322 854 q 422 818 367 818 q 501 837 479 819 q 524 896 524 854 l 524 918 q 563 950 524 950 q 603 911 603 950 l 603 896 q 556 782 603 819 q 419 744 508 744 z "},"ắ":{"ha":839,"x_min":107,"x_max":718,"o":"m 461 671 q 656 608 593 671 q 718 414 718 546 l 718 43 q 675 0 718 0 q 632 43 632 0 l 632 100 q 400 0 561 0 l 322 0 q 159 52 211 0 q 107 215 107 104 q 160 378 107 326 q 322 431 213 431 l 632 431 q 591 551 629 518 q 461 585 553 585 l 381 585 q 258 569 297 585 q 208 514 219 553 q 192 484 201 493 q 163 475 182 475 q 129 487 142 475 q 121 519 117 499 q 197 634 133 597 q 381 671 261 671 l 461 671 m 632 226 l 632 344 l 322 344 q 220 317 247 344 q 193 215 193 290 q 220 113 193 140 q 322 86 247 86 l 400 86 q 558 117 501 86 q 628 213 614 149 l 632 226 m 410 744 q 278 783 324 744 q 233 896 233 822 l 233 911 q 272 950 233 950 q 313 911 313 950 l 313 896 q 335 836 313 854 q 413 818 357 818 q 492 837 469 819 q 514 896 514 854 l 514 918 q 553 950 514 950 q 593 911 593 950 l 593 896 q 546 782 593 819 q 410 744 499 744 m 369 944 q 354 974 354 956 q 365 1000 354 989 l 479 1135 q 508 1151 492 1151 q 535 1140 521 1151 q 550 1111 550 1129 q 539 1085 550 1096 l 425 950 q 396 933 413 933 q 369 944 383 933 z "},"ặ":{"ha":839,"x_min":107,"x_max":718,"o":"m 461 671 q 656 608 593 671 q 718 414 718 546 l 718 43 q 675 0 718 0 q 632 43 632 0 l 632 100 q 400 0 561 0 l 322 0 q 159 52 211 0 q 107 215 107 104 q 160 378 107 326 q 322 431 213 431 l 632 431 q 591 551 629 518 q 461 585 553 585 l 381 585 q 258 569 297 585 q 208 514 219 553 q 192 484 201 493 q 163 475 182 475 q 129 487 142 475 q 121 519 117 499 q 197 634 133 597 q 381 671 261 671 l 461 671 m 632 226 l 632 344 l 322 344 q 220 317 247 344 q 193 215 193 290 q 220 113 193 140 q 322 86 247 86 l 400 86 q 558 117 501 86 q 628 213 614 149 l 632 226 m 399 -212 q 354 -167 354 -212 l 354 -137 q 399 -94 354 -94 l 426 -94 q 469 -137 469 -94 l 469 -167 q 458 -201 469 -189 q 426 -212 447 -212 l 399 -212 m 419 744 q 288 783 333 744 q 243 896 243 822 l 243 911 q 282 950 243 950 q 322 911 322 950 l 322 896 q 344 836 322 854 q 422 818 367 818 q 501 837 479 819 q 524 896 524 854 l 524 918 q 563 950 524 950 q 603 911 603 950 l 603 896 q 556 782 603 819 q 419 744 508 744 z "},"ằ":{"ha":839,"x_min":107,"x_max":718,"o":"m 461 671 q 656 608 593 671 q 718 414 718 546 l 718 43 q 675 0 718 0 q 632 43 632 0 l 632 100 q 400 0 561 0 l 322 0 q 159 52 211 0 q 107 215 107 104 q 160 378 107 326 q 322 431 213 431 l 632 431 q 591 551 629 518 q 461 585 553 585 l 381 585 q 258 569 297 585 q 208 514 219 553 q 192 484 201 493 q 163 475 182 475 q 129 487 142 475 q 121 519 117 499 q 197 634 133 597 q 381 671 261 671 l 461 671 m 632 226 l 632 344 l 322 344 q 220 317 247 344 q 193 215 193 290 q 220 113 193 140 q 322 86 247 86 l 400 86 q 558 117 501 86 q 628 213 614 149 l 632 226 m 410 744 q 278 783 324 744 q 233 896 233 822 l 233 911 q 272 950 233 950 q 313 911 313 950 l 313 896 q 335 836 313 854 q 413 818 357 818 q 492 837 469 819 q 514 896 514 854 l 514 918 q 553 950 514 950 q 593 911 593 950 l 593 896 q 546 782 593 819 q 410 744 499 744 m 431 943 q 404 932 417 932 q 375 949 388 932 l 261 1083 q 250 1110 250 1094 q 265 1139 250 1128 q 292 1150 279 1150 q 321 1133 308 1150 l 435 999 q 446 972 446 988 q 431 943 446 954 z "},"ẳ":{"ha":839,"x_min":107,"x_max":718,"o":"m 461 671 q 656 608 593 671 q 718 414 718 546 l 718 43 q 675 0 718 0 q 632 43 632 0 l 632 100 q 400 0 561 0 l 322 0 q 159 52 211 0 q 107 215 107 104 q 160 378 107 326 q 322 431 213 431 l 632 431 q 591 551 629 518 q 461 585 553 585 l 381 585 q 258 569 297 585 q 208 514 219 553 q 192 484 201 493 q 163 475 182 475 q 129 487 142 475 q 121 519 117 499 q 197 634 133 597 q 381 671 261 671 l 461 671 m 632 226 l 632 344 l 322 344 q 220 317 247 344 q 193 215 193 290 q 220 113 193 140 q 322 86 247 86 l 400 86 q 558 117 501 86 q 628 213 614 149 l 632 226 m 410 744 q 278 783 324 744 q 233 896 233 822 l 233 911 q 272 950 233 950 q 313 911 313 950 l 313 896 q 335 836 313 854 q 413 818 357 818 q 492 837 469 819 q 514 896 514 854 l 514 918 q 553 950 514 950 q 593 911 593 950 l 593 896 q 546 782 593 819 q 410 744 499 744 m 413 906 q 387 913 394 906 q 379 939 379 921 q 397 999 379 978 q 444 1038 415 1019 q 471 1056 465 1050 q 476 1074 476 1063 q 466 1116 476 1106 q 424 1126 456 1126 q 382 1116 392 1126 q 372 1074 372 1106 q 364 1048 372 1056 q 338 1040 356 1040 q 312 1048 319 1040 q 304 1074 304 1056 q 424 1193 304 1193 q 544 1074 544 1193 q 527 1018 544 1038 q 481 979 510 999 q 452 959 458 967 q 446 939 446 951 q 438 913 446 921 q 413 906 431 906 z "},"ẵ":{"ha":839,"x_min":107,"x_max":718,"o":"m 461 671 q 656 608 593 671 q 718 414 718 546 l 718 43 q 675 0 718 0 q 632 43 632 0 l 632 100 q 400 0 561 0 l 322 0 q 159 52 211 0 q 107 215 107 104 q 160 378 107 326 q 322 431 213 431 l 632 431 q 591 551 629 518 q 461 585 553 585 l 381 585 q 258 569 297 585 q 208 514 219 553 q 192 484 201 493 q 163 475 182 475 q 129 487 142 475 q 121 519 117 499 q 197 634 133 597 q 381 671 261 671 l 461 671 m 632 226 l 632 344 l 322 344 q 220 317 247 344 q 193 215 193 290 q 220 113 193 140 q 322 86 247 86 l 400 86 q 558 117 501 86 q 628 213 614 149 l 632 226 m 407 744 q 276 783 321 744 q 231 896 231 822 l 231 911 q 269 950 231 950 q 310 911 310 950 l 310 896 q 332 836 310 854 q 410 818 354 818 q 489 837 467 819 q 511 896 511 854 l 511 918 q 550 950 511 950 q 590 911 590 950 l 590 896 q 543 782 590 819 q 407 744 496 744 m 479 990 q 439 1002 456 990 q 396 1038 422 1014 q 372 1061 381 1054 q 353 1068 363 1068 q 328 1058 338 1068 q 307 1019 318 1047 q 263 994 292 986 q 240 1006 247 997 q 232 1028 232 1015 q 235 1042 232 1033 q 283 1118 257 1094 q 349 1142 308 1142 q 392 1128 372 1142 q 435 1092 411 1115 q 458 1072 446 1081 q 478 1063 469 1063 q 497 1072 489 1063 q 514 1104 504 1081 q 557 1132 526 1138 q 581 1122 572 1131 q 589 1100 589 1113 q 586 1085 589 1096 q 479 990 553 990 z "},"â":{"ha":839,"x_min":107,"x_max":718,"o":"m 461 671 q 656 608 593 671 q 718 414 718 546 l 718 43 q 675 0 718 0 q 632 43 632 0 l 632 100 q 400 0 561 0 l 322 0 q 159 52 211 0 q 107 215 107 104 q 160 378 107 326 q 322 431 213 431 l 632 431 q 591 551 629 518 q 461 585 553 585 l 381 585 q 258 569 297 585 q 208 514 219 553 q 192 484 201 493 q 163 475 182 475 q 129 487 142 475 q 121 519 117 499 q 197 634 133 597 q 381 671 261 671 l 461 671 m 632 226 l 632 344 l 322 344 q 220 317 247 344 q 193 215 193 290 q 220 113 193 140 q 322 86 247 86 l 400 86 q 558 117 501 86 q 628 213 614 149 l 632 226 m 283 747 q 256 758 267 747 q 244 785 244 769 q 254 811 244 797 l 360 935 q 406 957 378 957 l 424 957 q 471 935 450 957 l 576 811 q 585 785 585 799 q 574 758 585 769 q 547 747 563 747 q 518 760 528 747 l 421 879 l 408 879 l 313 760 q 283 747 300 747 z "},"ấ":{"ha":839,"x_min":107,"x_max":718,"o":"m 461 671 q 656 608 593 671 q 718 414 718 546 l 718 43 q 675 0 718 0 q 632 43 632 0 l 632 100 q 400 0 561 0 l 322 0 q 159 52 211 0 q 107 215 107 104 q 160 378 107 326 q 322 431 213 431 l 632 431 q 591 551 629 518 q 461 585 553 585 l 381 585 q 258 569 297 585 q 208 514 219 553 q 192 484 201 493 q 163 475 182 475 q 129 487 142 475 q 121 519 117 499 q 197 634 133 597 q 381 671 261 671 l 461 671 m 632 226 l 632 344 l 322 344 q 220 317 247 344 q 193 215 193 290 q 220 113 193 140 q 322 86 247 86 l 400 86 q 558 117 501 86 q 628 213 614 149 l 632 226 m 558 867 q 542 897 542 882 q 553 922 542 908 l 635 1014 q 665 1029 650 1029 q 690 1018 676 1029 q 707 989 707 1006 q 696 963 707 976 l 614 872 q 583 857 600 857 q 558 867 569 857 m 281 747 q 253 758 264 747 q 242 785 242 769 q 251 811 242 797 l 357 935 q 403 957 375 957 l 421 957 q 468 935 447 957 l 574 811 q 582 785 582 799 q 571 758 582 769 q 544 747 560 747 q 515 760 525 747 l 418 879 l 406 879 l 310 760 q 281 747 297 747 z "},"ậ":{"ha":839,"x_min":107,"x_max":718,"o":"m 461 671 q 656 608 593 671 q 718 414 718 546 l 718 43 q 675 0 718 0 q 632 43 632 0 l 632 100 q 400 0 561 0 l 322 0 q 159 52 211 0 q 107 215 107 104 q 160 378 107 326 q 322 431 213 431 l 632 431 q 591 551 629 518 q 461 585 553 585 l 381 585 q 258 569 297 585 q 208 514 219 553 q 192 484 201 493 q 163 475 182 475 q 129 487 142 475 q 121 519 117 499 q 197 634 133 597 q 381 671 261 671 l 461 671 m 632 226 l 632 344 l 322 344 q 220 317 247 344 q 193 215 193 290 q 220 113 193 140 q 322 86 247 86 l 400 86 q 558 117 501 86 q 628 213 614 149 l 632 226 m 399 -212 q 354 -167 354 -212 l 354 -137 q 399 -94 354 -94 l 426 -94 q 469 -137 469 -94 l 469 -167 q 458 -201 469 -189 q 426 -212 447 -212 l 399 -212 m 283 747 q 256 758 267 747 q 244 785 244 769 q 254 811 244 797 l 360 935 q 406 957 378 957 l 424 957 q 471 935 450 957 l 576 811 q 585 785 585 799 q 574 758 585 769 q 547 747 563 747 q 518 760 528 747 l 421 879 l 408 879 l 313 760 q 283 747 300 747 z "},"ầ":{"ha":839,"x_min":107,"x_max":718,"o":"m 461 671 q 656 608 593 671 q 718 414 718 546 l 718 43 q 675 0 718 0 q 632 43 632 0 l 632 100 q 400 0 561 0 l 322 0 q 159 52 211 0 q 107 215 107 104 q 160 378 107 326 q 322 431 213 431 l 632 431 q 591 551 629 518 q 461 585 553 585 l 381 585 q 258 569 297 585 q 208 514 219 553 q 192 484 201 493 q 163 475 182 475 q 129 487 142 475 q 121 519 117 499 q 197 634 133 597 q 381 671 261 671 l 461 671 m 632 226 l 632 344 l 322 344 q 220 317 247 344 q 193 215 193 290 q 220 113 193 140 q 322 86 247 86 l 400 86 q 558 117 501 86 q 628 213 614 149 l 632 226 m 263 867 q 236 857 251 857 q 207 872 221 857 l 125 963 q 114 990 114 974 q 129 1018 114 1007 q 156 1029 143 1029 q 185 1014 169 1029 l 267 922 q 279 896 279 910 q 263 867 279 882 m 279 747 q 251 758 263 747 q 240 785 240 769 q 250 811 240 797 l 356 935 q 401 957 374 957 l 419 957 q 467 935 446 957 l 572 811 q 581 785 581 799 q 569 758 581 769 q 543 747 558 747 q 514 760 524 747 l 417 879 l 404 879 l 308 760 q 279 747 296 747 z "},"ẩ":{"ha":839,"x_min":107,"x_max":718,"o":"m 461 671 q 656 608 593 671 q 718 414 718 546 l 718 43 q 675 0 718 0 q 632 43 632 0 l 632 100 q 400 0 561 0 l 322 0 q 159 52 211 0 q 107 215 107 104 q 160 378 107 326 q 322 431 213 431 l 632 431 q 591 551 629 518 q 461 585 553 585 l 381 585 q 258 569 297 585 q 208 514 219 553 q 192 484 201 493 q 163 475 182 475 q 129 487 142 475 q 121 519 117 499 q 197 634 133 597 q 381 671 261 671 l 461 671 m 632 226 l 632 344 l 322 344 q 220 317 247 344 q 193 215 193 290 q 220 113 193 140 q 322 86 247 86 l 400 86 q 558 117 501 86 q 628 213 614 149 l 632 226 m 281 747 q 253 758 264 747 q 242 785 242 769 q 251 811 242 797 l 357 935 q 403 957 375 957 l 421 957 q 468 935 447 957 l 574 811 q 582 785 582 799 q 571 758 582 769 q 544 747 560 747 q 515 760 525 747 l 418 879 l 406 879 l 310 760 q 281 747 297 747 m 564 878 q 538 885 546 878 q 531 911 531 893 q 549 971 531 950 q 596 1010 567 992 q 622 1028 617 1022 q 628 1046 628 1035 q 617 1088 628 1078 q 575 1099 607 1099 q 533 1088 543 1099 q 524 1046 524 1078 q 515 1020 524 1028 q 489 1013 507 1013 q 463 1020 471 1013 q 456 1046 456 1028 q 575 1165 456 1165 q 696 1046 696 1165 q 678 990 696 1010 q 632 951 661 971 q 603 931 610 939 q 597 911 597 924 q 590 885 597 893 q 564 878 582 878 z "},"ẫ":{"ha":839,"x_min":107,"x_max":718,"o":"m 461 671 q 656 608 593 671 q 718 414 718 546 l 718 43 q 675 0 718 0 q 632 43 632 0 l 632 100 q 400 0 561 0 l 322 0 q 159 52 211 0 q 107 215 107 104 q 160 378 107 326 q 322 431 213 431 l 632 431 q 591 551 629 518 q 461 585 553 585 l 381 585 q 258 569 297 585 q 208 514 219 553 q 192 484 201 493 q 163 475 182 475 q 129 487 142 475 q 121 519 117 499 q 197 634 133 597 q 381 671 261 671 l 461 671 m 632 226 l 632 344 l 322 344 q 220 317 247 344 q 193 215 193 290 q 220 113 193 140 q 322 86 247 86 l 400 86 q 558 117 501 86 q 628 213 614 149 l 632 226 m 281 747 q 253 758 264 747 q 242 785 242 769 q 251 811 242 797 l 357 935 q 403 957 375 957 l 421 957 q 468 935 447 957 l 574 811 q 582 785 582 799 q 571 758 582 769 q 544 747 560 747 q 515 760 525 747 l 418 879 l 406 879 l 310 760 q 281 747 297 747 m 482 988 q 442 999 458 988 q 399 1035 425 1011 q 374 1058 383 1051 q 356 1065 365 1065 q 331 1055 340 1065 q 310 1017 321 1044 q 265 992 294 983 q 242 1003 250 994 q 235 1025 235 1013 q 238 1039 235 1031 q 285 1115 260 1092 q 351 1139 311 1139 q 394 1126 375 1139 q 438 1089 414 1113 q 460 1069 449 1078 q 481 1060 472 1060 q 499 1069 492 1060 q 517 1101 507 1078 q 560 1129 529 1135 q 583 1119 575 1128 q 592 1097 592 1110 q 589 1082 592 1093 q 482 988 556 988 z "},"ȁ":{"ha":839,"x_min":107,"x_max":718,"o":"m 215 901 q 204 925 204 915 q 219 951 204 939 q 243 963 231 963 q 269 947 258 963 l 372 825 q 382 801 382 815 q 368 775 382 788 q 343 765 357 765 q 318 781 328 765 l 215 901 m 372 901 q 361 925 361 915 q 376 951 361 939 q 400 963 388 963 q 426 947 415 963 l 529 825 q 539 801 539 815 q 525 775 539 788 q 500 765 514 765 q 475 781 485 765 l 372 901 m 461 671 q 656 608 593 671 q 718 414 718 546 l 718 43 q 675 0 718 0 q 632 43 632 0 l 632 100 q 400 0 561 0 l 322 0 q 159 52 211 0 q 107 215 107 104 q 160 378 107 326 q 322 431 213 431 l 632 431 q 591 551 629 518 q 461 585 553 585 l 381 585 q 258 569 297 585 q 208 514 219 553 q 192 484 201 493 q 163 475 182 475 q 129 487 142 475 q 121 519 117 499 q 197 634 133 597 q 381 671 261 671 l 461 671 m 632 226 l 632 344 l 322 344 q 220 317 247 344 q 193 215 193 290 q 220 113 193 140 q 322 86 247 86 l 400 86 q 558 117 501 86 q 628 213 614 149 l 632 226 z "},"ä":{"ha":839,"x_min":107,"x_max":718,"o":"m 461 671 q 656 608 593 671 q 718 414 718 546 l 718 43 q 675 0 718 0 q 632 43 632 0 l 632 100 q 400 0 561 0 l 322 0 q 159 52 211 0 q 107 215 107 104 q 160 378 107 326 q 322 431 213 431 l 632 431 q 591 551 629 518 q 461 585 553 585 l 381 585 q 258 569 297 585 q 208 514 219 553 q 192 484 201 493 q 163 475 182 475 q 129 487 142 475 q 121 519 117 499 q 197 634 133 597 q 381 671 261 671 l 461 671 m 632 226 l 632 344 l 322 344 q 220 317 247 344 q 193 215 193 290 q 220 113 193 140 q 322 86 247 86 l 400 86 q 558 117 501 86 q 628 213 614 149 l 632 226 m 292 783 q 247 829 247 783 l 247 858 q 292 901 247 901 l 319 901 q 363 858 363 901 l 363 829 q 351 795 363 807 q 319 783 340 783 l 292 783 m 506 783 q 461 829 461 783 l 461 858 q 506 901 461 901 l 533 901 q 576 858 576 901 l 576 829 q 565 795 576 807 q 533 783 554 783 l 506 783 z "},"ạ":{"ha":839,"x_min":107,"x_max":718,"o":"m 461 671 q 656 608 593 671 q 718 414 718 546 l 718 43 q 675 0 718 0 q 632 43 632 0 l 632 100 q 400 0 561 0 l 322 0 q 159 52 211 0 q 107 215 107 104 q 160 378 107 326 q 322 431 213 431 l 632 431 q 591 551 629 518 q 461 585 553 585 l 381 585 q 258 569 297 585 q 208 514 219 553 q 192 484 201 493 q 163 475 182 475 q 129 487 142 475 q 121 519 117 499 q 197 634 133 597 q 381 671 261 671 l 461 671 m 632 226 l 632 344 l 322 344 q 220 317 247 344 q 193 215 193 290 q 220 113 193 140 q 322 86 247 86 l 400 86 q 558 117 501 86 q 628 213 614 149 l 632 226 m 399 -212 q 354 -167 354 -212 l 354 -137 q 399 -94 354 -94 l 426 -94 q 469 -137 469 -94 l 469 -167 q 458 -201 469 -189 q 426 -212 447 -212 l 399 -212 z "},"à":{"ha":839,"x_min":107,"x_max":718,"o":"m 461 671 q 656 608 593 671 q 718 414 718 546 l 718 43 q 675 0 718 0 q 632 43 632 0 l 632 100 q 400 0 561 0 l 322 0 q 159 52 211 0 q 107 215 107 104 q 160 378 107 326 q 322 431 213 431 l 632 431 q 591 551 629 518 q 461 585 553 585 l 381 585 q 258 569 297 585 q 208 514 219 553 q 192 484 201 493 q 163 475 182 475 q 129 487 142 475 q 121 519 117 499 q 197 634 133 597 q 381 671 261 671 l 461 671 m 632 226 l 632 344 l 322 344 q 220 317 247 344 q 193 215 193 290 q 220 113 193 140 q 322 86 247 86 l 400 86 q 558 117 501 86 q 628 213 614 149 l 632 226 m 461 744 q 435 733 447 733 q 406 750 418 733 l 292 885 q 281 911 281 896 q 296 940 281 929 q 322 951 310 951 q 351 935 339 951 l 465 800 q 476 774 476 789 q 461 744 476 756 z "},"ả":{"ha":839,"x_min":107,"x_max":718,"o":"m 461 671 q 656 608 593 671 q 718 414 718 546 l 718 43 q 675 0 718 0 q 632 43 632 0 l 632 100 q 400 0 561 0 l 322 0 q 159 52 211 0 q 107 215 107 104 q 160 378 107 326 q 322 431 213 431 l 632 431 q 591 551 629 518 q 461 585 553 585 l 381 585 q 258 569 297 585 q 208 514 219 553 q 192 484 201 493 q 163 475 182 475 q 129 487 142 475 q 121 519 117 499 q 197 634 133 597 q 381 671 261 671 l 461 671 m 632 226 l 632 344 l 322 344 q 220 317 247 344 q 193 215 193 290 q 220 113 193 140 q 322 86 247 86 l 400 86 q 558 117 501 86 q 628 213 614 149 l 632 226 m 413 747 q 387 755 394 747 q 379 781 379 763 q 397 840 379 819 q 444 879 415 861 q 471 898 465 892 q 476 915 476 904 q 466 958 476 947 q 424 968 456 968 q 382 958 392 968 q 372 915 372 947 q 364 890 372 897 q 338 882 356 882 q 312 890 319 882 q 304 915 304 897 q 424 1035 304 1035 q 544 915 544 1035 q 527 860 544 879 q 481 821 510 840 q 452 801 458 808 q 446 781 446 793 q 438 755 446 763 q 413 747 431 747 z "},"ȃ":{"ha":839,"x_min":107,"x_max":718,"o":"m 461 671 q 656 608 593 671 q 718 414 718 546 l 718 43 q 675 0 718 0 q 632 43 632 0 l 632 100 q 400 0 561 0 l 322 0 q 159 52 211 0 q 107 215 107 104 q 160 378 107 326 q 322 431 213 431 l 632 431 q 591 551 629 518 q 461 585 553 585 l 381 585 q 258 569 297 585 q 208 514 219 553 q 192 484 201 493 q 163 475 182 475 q 129 487 142 475 q 121 519 117 499 q 197 634 133 597 q 381 671 261 671 l 461 671 m 632 226 l 632 344 l 322 344 q 220 317 247 344 q 193 215 193 290 q 220 113 193 140 q 322 86 247 86 l 400 86 q 558 117 501 86 q 628 213 614 149 l 632 226 m 408 982 q 544 944 497 982 q 592 831 592 907 l 592 815 q 551 776 592 776 q 513 808 513 776 l 513 831 q 490 890 513 872 q 411 908 468 907 q 333 890 356 908 q 311 831 311 872 l 311 815 q 271 776 311 776 q 232 815 232 776 l 232 831 q 277 943 232 904 q 408 982 322 982 z "},"ā":{"ha":839,"x_min":107,"x_max":718,"o":"m 461 671 q 656 608 593 671 q 718 414 718 546 l 718 43 q 675 0 718 0 q 632 43 632 0 l 632 100 q 400 0 561 0 l 322 0 q 159 52 211 0 q 107 215 107 104 q 160 378 107 326 q 322 431 213 431 l 632 431 q 591 551 629 518 q 461 585 553 585 l 381 585 q 258 569 297 585 q 208 514 219 553 q 192 484 201 493 q 163 475 182 475 q 129 487 142 475 q 121 519 117 499 q 197 634 133 597 q 381 671 261 671 l 461 671 m 632 226 l 632 344 l 322 344 q 220 317 247 344 q 193 215 193 290 q 220 113 193 140 q 322 86 247 86 l 400 86 q 558 117 501 86 q 628 213 614 149 l 632 226 m 233 815 q 190 858 190 815 q 233 901 190 901 l 585 901 q 628 858 628 901 q 585 815 628 815 l 233 815 z "},"ą":{"ha":839,"x_min":107,"x_max":814,"o":"m 774 -121 q 802 -132 790 -121 q 814 -160 814 -143 q 803 -189 814 -175 q 739 -232 774 -217 q 671 -247 704 -247 q 577 -212 615 -247 q 539 -126 539 -178 q 571 -39 539 -85 l 632 44 l 632 100 q 400 0 561 0 l 322 0 q 159 52 211 0 q 107 215 107 104 q 160 378 107 326 q 322 431 213 431 l 632 431 q 591 551 629 518 q 461 585 553 585 l 381 585 q 258 569 297 585 q 208 514 219 553 q 192 484 201 493 q 163 475 182 475 q 129 487 142 475 q 121 519 117 499 q 197 634 133 597 q 381 671 261 671 l 461 671 q 656 608 593 671 q 718 414 718 546 l 718 43 q 703 8 718 19 l 635 -86 q 618 -126 618 -108 q 633 -156 618 -144 q 671 -168 647 -168 q 746 -132 711 -168 q 774 -121 757 -121 m 632 226 l 632 344 l 322 344 q 220 317 247 344 q 193 215 193 290 q 220 113 193 140 q 322 86 247 86 l 400 86 q 558 117 501 86 q 628 213 614 149 l 632 226 z "},"å":{"ha":839,"x_min":107,"x_max":718,"o":"m 461 671 q 656 608 593 671 q 718 414 718 546 l 718 43 q 675 0 718 0 q 632 43 632 0 l 632 100 q 400 0 561 0 l 322 0 q 159 52 211 0 q 107 215 107 104 q 160 378 107 326 q 322 431 213 431 l 632 431 q 591 551 629 518 q 461 585 553 585 l 381 585 q 258 569 297 585 q 208 514 219 553 q 192 484 201 493 q 163 475 182 475 q 129 487 142 475 q 121 519 117 499 q 197 634 133 597 q 381 671 261 671 l 461 671 m 632 226 l 632 344 l 322 344 q 220 317 247 344 q 193 215 193 290 q 220 113 193 140 q 322 86 247 86 l 400 86 q 558 117 501 86 q 628 213 614 149 l 632 226 m 410 750 q 331 778 358 750 q 303 857 303 806 q 331 935 303 907 q 410 963 358 963 q 488 935 460 963 q 515 857 515 907 q 488 778 515 806 q 410 750 460 750 m 410 818 q 440 826 433 818 q 447 857 447 833 q 440 888 447 881 q 410 894 433 894 q 378 888 385 894 q 371 857 371 881 q 378 825 371 832 q 410 818 386 818 z "},"ǻ":{"ha":839,"x_min":107,"x_max":718,"o":"m 461 671 q 656 608 593 671 q 718 414 718 546 l 718 43 q 675 0 718 0 q 632 43 632 0 l 632 100 q 400 0 561 0 l 322 0 q 159 52 211 0 q 107 215 107 104 q 160 378 107 326 q 322 431 213 431 l 632 431 q 591 551 629 518 q 461 585 553 585 l 381 585 q 258 569 297 585 q 208 514 219 553 q 192 484 201 493 q 163 475 182 475 q 129 487 142 475 q 121 519 117 499 q 197 634 133 597 q 381 671 261 671 l 461 671 m 632 226 l 632 344 l 322 344 q 220 317 247 344 q 193 215 193 290 q 220 113 193 140 q 322 86 247 86 l 400 86 q 558 117 501 86 q 628 213 614 149 l 632 226 m 410 750 q 331 778 358 750 q 303 857 303 806 q 331 935 303 907 q 410 963 358 963 q 488 935 460 963 q 515 857 515 907 q 488 778 515 806 q 410 750 460 750 m 410 818 q 440 826 433 818 q 447 857 447 833 q 440 888 447 881 q 410 894 433 894 q 378 888 385 894 q 371 857 371 881 q 378 825 371 832 q 410 818 386 818 m 376 1046 q 361 1075 361 1057 q 372 1101 361 1090 l 486 1236 q 515 1253 499 1253 q 542 1242 528 1253 q 557 1213 557 1231 q 546 1186 557 1197 l 432 1051 q 403 1035 419 1035 q 376 1046 390 1035 z "},"ã":{"ha":839,"x_min":107,"x_max":718,"o":"m 461 671 q 656 608 593 671 q 718 414 718 546 l 718 43 q 675 0 718 0 q 632 43 632 0 l 632 100 q 400 0 561 0 l 322 0 q 159 52 211 0 q 107 215 107 104 q 160 378 107 326 q 322 431 213 431 l 632 431 q 591 551 629 518 q 461 585 553 585 l 381 585 q 258 569 297 585 q 208 514 219 553 q 192 484 201 493 q 163 475 182 475 q 129 487 142 475 q 121 519 117 499 q 197 634 133 597 q 381 671 261 671 l 461 671 m 632 226 l 632 344 l 322 344 q 220 317 247 344 q 193 215 193 290 q 220 113 193 140 q 322 86 247 86 l 400 86 q 558 117 501 86 q 628 213 614 149 l 632 226 m 504 771 q 443 786 468 771 q 397 824 418 801 q 367 850 379 843 q 338 857 354 857 q 303 846 317 857 q 279 803 290 835 q 235 776 265 768 q 212 788 219 779 q 204 810 204 797 q 207 825 204 814 q 259 906 228 881 q 338 932 290 932 q 402 916 376 932 q 450 876 428 900 q 480 851 471 857 q 504 846 489 846 q 535 857 522 846 q 557 896 547 868 q 592 926 568 926 q 621 917 610 926 q 632 893 632 907 q 629 878 632 889 q 580 797 610 824 q 504 771 550 771 z "},"æ":{"ha":1301,"x_min":107,"x_max":1190,"o":"m 854 -15 q 639 107 694 -15 q 372 -12 560 -12 l 322 -12 q 159 40 211 -12 q 107 203 107 92 q 159 366 107 314 q 322 418 211 418 l 604 418 q 563 536 600 503 q 433 569 525 569 l 381 569 q 274 559 311 569 q 220 525 236 549 q 204 460 204 501 q 192 429 204 442 q 161 417 179 417 q 131 429 143 417 q 118 460 118 442 q 181 608 118 561 q 381 656 244 656 l 433 656 q 564 628 511 656 q 647 546 617 601 q 856 654 704 656 l 939 654 q 1129 586 1068 654 q 1190 375 1190 518 q 1178 343 1190 354 q 1146 332 1167 332 l 690 332 l 690 244 q 726 109 690 147 q 854 71 763 71 l 939 71 q 1069 97 1033 71 q 1104 188 1104 122 q 1117 218 1104 206 q 1147 231 1129 231 q 1178 218 1165 231 q 1190 188 1190 206 q 1129 34 1190 83 q 939 -15 1068 -15 l 854 -15 m 1101 418 q 1058 534 1096 500 q 939 568 1021 568 l 856 568 q 730 536 767 569 q 690 418 693 503 l 1101 418 m 372 74 q 547 115 490 74 q 604 239 604 156 l 604 332 l 322 332 q 220 305 247 332 q 193 203 193 278 q 220 101 193 128 q 322 74 247 74 l 372 74 z "},"ǽ":{"ha":1301,"x_min":107,"x_max":1190,"o":"m 854 -15 q 639 107 694 -15 q 372 -12 560 -12 l 322 -12 q 159 40 211 -12 q 107 203 107 92 q 159 366 107 314 q 322 418 211 418 l 604 418 q 563 536 600 503 q 433 569 525 569 l 381 569 q 274 559 311 569 q 220 525 236 549 q 204 460 204 501 q 192 429 204 442 q 161 417 179 417 q 131 429 143 417 q 118 460 118 442 q 181 608 118 561 q 381 656 244 656 l 433 656 q 564 628 511 656 q 647 546 617 601 q 856 654 704 656 l 939 654 q 1129 586 1068 654 q 1190 375 1190 518 q 1178 343 1190 354 q 1146 332 1167 332 l 690 332 l 690 244 q 726 109 690 147 q 854 71 763 71 l 939 71 q 1069 97 1033 71 q 1104 188 1104 122 q 1117 218 1104 206 q 1147 231 1129 231 q 1178 218 1165 231 q 1190 188 1190 206 q 1129 34 1190 83 q 939 -15 1068 -15 l 854 -15 m 1101 418 q 1058 534 1096 500 q 939 568 1021 568 l 856 568 q 730 536 767 569 q 690 418 693 503 l 1101 418 m 372 74 q 547 115 490 74 q 604 239 604 156 l 604 332 l 322 332 q 220 305 247 332 q 193 203 193 278 q 220 101 193 128 q 322 74 247 74 l 372 74 m 608 757 q 593 786 593 768 q 604 813 593 801 l 718 947 q 747 964 731 964 q 774 953 760 964 q 789 924 789 942 q 778 897 789 908 l 664 763 q 635 746 651 746 q 608 757 622 746 z "},"b":{"ha":874,"x_min":135,"x_max":763,"o":"m 506 671 q 700 609 638 671 q 763 414 763 547 l 763 257 q 700 63 763 125 q 506 0 638 0 l 453 0 q 221 88 289 0 l 221 43 q 178 0 221 0 q 135 43 135 0 l 135 925 q 178 968 135 968 q 221 925 221 968 l 221 583 q 453 671 289 671 l 506 671 m 676 414 q 639 548 676 511 q 506 585 601 585 l 453 585 q 284 554 346 585 q 221 464 222 524 l 221 207 q 284 117 222 147 q 453 86 346 86 l 506 86 q 640 124 603 86 q 676 257 676 161 l 676 414 z "},"c":{"ha":792,"x_min":111,"x_max":711,"o":"m 368 0 q 174 63 236 0 q 111 257 111 125 l 111 415 q 174 610 111 547 q 368 671 236 672 l 482 671 q 640 636 585 671 q 707 528 696 601 q 699 495 711 507 q 665 483 688 483 q 636 493 646 483 q 621 524 626 503 q 580 571 611 557 q 482 585 549 585 l 368 585 q 234 549 271 586 q 197 415 197 513 l 197 257 q 235 123 197 160 q 368 86 272 86 l 482 86 q 580 100 549 86 q 621 147 611 114 q 637 178 626 168 q 667 188 647 188 q 699 176 688 188 q 707 143 711 164 q 640 35 696 69 q 482 0 585 0 l 368 0 z "},"ć":{"ha":792,"x_min":111,"x_max":708,"o":"m 368 0 q 174 63 236 0 q 111 257 111 125 l 111 415 q 174 610 111 547 q 368 671 236 672 l 482 671 q 640 636 585 671 q 707 528 696 601 q 699 495 711 507 q 665 483 688 483 q 636 493 646 483 q 621 524 626 503 q 580 571 611 557 q 482 585 549 585 l 368 585 q 234 549 271 586 q 197 415 197 513 l 197 257 q 235 123 197 160 q 368 86 272 86 l 482 86 q 580 100 549 86 q 621 147 611 114 q 637 178 626 168 q 667 188 647 188 q 699 176 688 188 q 707 143 711 164 q 640 35 696 69 q 482 0 585 0 l 368 0 m 390 757 q 375 786 375 768 q 386 813 375 801 l 500 947 q 529 964 513 964 q 556 953 542 964 q 571 924 571 942 q 560 897 571 908 l 446 763 q 417 746 433 746 q 390 757 404 746 z "},"č":{"ha":792,"x_min":111,"x_max":708,"o":"m 368 0 q 174 63 236 0 q 111 257 111 125 l 111 415 q 174 610 111 547 q 368 671 236 672 l 482 671 q 640 636 585 671 q 707 528 696 601 q 699 495 711 507 q 665 483 688 483 q 636 493 646 483 q 621 524 626 503 q 580 571 611 557 q 482 585 549 585 l 368 585 q 234 549 271 586 q 197 415 197 513 l 197 257 q 235 123 197 160 q 368 86 272 86 l 482 86 q 580 100 549 86 q 621 147 611 114 q 637 178 626 168 q 667 188 647 188 q 699 176 688 188 q 707 143 711 164 q 640 35 696 69 q 482 0 585 0 l 368 0 m 294 957 q 324 944 311 957 l 419 825 l 432 825 l 529 944 q 558 957 539 957 q 585 946 574 957 q 596 919 596 935 q 588 893 596 906 l 482 769 q 435 747 461 747 l 417 747 q 371 769 389 747 l 265 893 q 256 919 256 908 q 267 946 256 935 q 294 957 278 957 z "},"ç":{"ha":792,"x_min":111,"x_max":711,"o":"m 667 188 q 699 176 688 188 q 707 143 711 164 q 647 39 697 74 q 506 0 597 4 q 538 -29 511 -11 q 584 -72 565 -49 q 603 -135 603 -94 q 565 -250 603 -212 q 451 -287 528 -287 q 326 -162 326 -287 q 365 -124 326 -124 q 403 -162 403 -124 q 413 -201 403 -192 q 451 -210 422 -210 q 511 -195 496 -210 q 526 -135 526 -181 q 520 -115 526 -122 q 494 -92 514 -107 q 450 -55 468 -75 q 426 0 432 -35 l 368 0 q 174 63 236 0 q 111 257 111 125 l 111 415 q 174 610 111 547 q 368 671 236 672 l 482 671 q 640 636 585 671 q 707 528 696 601 q 699 495 711 507 q 665 483 688 483 q 636 493 646 483 q 621 524 626 503 q 580 571 611 557 q 482 585 549 585 l 368 585 q 234 549 271 586 q 197 415 197 513 l 197 257 q 235 123 197 160 q 368 86 272 86 l 482 86 q 580 100 549 86 q 621 147 611 114 q 637 178 626 168 q 667 188 647 188 z "},"ĉ":{"ha":792,"x_min":111,"x_max":708,"o":"m 368 0 q 174 63 236 0 q 111 257 111 125 l 111 415 q 174 610 111 547 q 368 671 236 672 l 482 671 q 640 636 585 671 q 707 528 696 601 q 699 495 711 507 q 665 483 688 483 q 636 493 646 483 q 621 524 626 503 q 580 571 611 557 q 482 585 549 585 l 368 585 q 234 549 271 586 q 197 415 197 513 l 197 257 q 235 123 197 160 q 368 86 272 86 l 482 86 q 580 100 549 86 q 621 147 611 114 q 637 178 626 168 q 667 188 647 188 q 699 176 688 188 q 707 143 711 164 q 640 35 696 69 q 482 0 585 0 l 368 0 m 297 747 q 269 758 281 747 q 258 785 258 769 q 268 811 258 797 l 374 935 q 419 957 392 957 l 438 957 q 485 935 464 957 l 590 811 q 599 785 599 799 q 588 758 599 769 q 561 747 576 747 q 532 760 542 747 l 435 879 l 422 879 l 326 760 q 297 747 314 747 z "},"ċ":{"ha":792,"x_min":111,"x_max":708,"o":"m 368 0 q 174 63 236 0 q 111 257 111 125 l 111 415 q 174 610 111 547 q 368 671 236 672 l 482 671 q 640 636 585 671 q 707 528 696 601 q 699 495 711 507 q 665 483 688 483 q 636 493 646 483 q 621 524 626 503 q 580 571 611 557 q 482 585 549 585 l 368 585 q 234 549 271 586 q 197 415 197 513 l 197 257 q 235 123 197 160 q 368 86 272 86 l 482 86 q 580 100 549 86 q 621 147 611 114 q 637 178 626 168 q 667 188 647 188 q 699 176 688 188 q 707 143 711 164 q 640 35 696 69 q 482 0 585 0 l 368 0 m 410 793 q 357 847 357 793 l 357 883 q 370 922 357 908 q 410 935 383 935 l 443 935 q 481 921 468 935 q 494 883 494 907 l 494 847 q 481 807 494 821 q 443 793 468 793 l 410 793 z "},"d":{"ha":860,"x_min":111,"x_max":739,"o":"m 696 968 q 739 925 739 968 l 739 43 q 696 0 739 0 q 653 43 653 0 l 653 85 q 421 0 589 0 l 368 0 q 174 63 236 0 q 111 257 111 125 l 111 414 q 174 608 111 546 q 368 671 236 671 l 653 671 l 653 925 q 696 968 653 968 m 421 86 q 590 118 528 86 q 653 211 653 150 l 653 585 l 368 585 q 234 547 271 585 q 197 414 197 510 l 197 257 q 235 123 197 160 q 368 86 272 86 l 421 86 z "},"ð":{"ha":850,"x_min":111,"x_max":739,"o":"m 550 921 q 692 787 647 897 q 739 450 736 676 l 739 257 q 676 63 739 125 q 482 0 614 0 l 368 0 q 174 62 236 0 q 111 256 111 124 l 111 414 q 174 610 111 549 q 368 671 236 672 l 482 671 q 644 607 585 671 q 606 773 633 721 q 528 838 578 825 l 414 867 l 324 782 q 296 769 308 769 q 268 783 281 769 q 254 811 254 800 q 269 839 254 826 l 324 889 l 206 919 q 172 957 172 928 q 175 972 172 961 q 213 1004 183 1004 q 228 1003 222 1004 l 397 960 l 478 1035 q 506 1049 492 1049 q 533 1033 521 1049 q 546 1006 546 1021 q 532 978 546 992 l 488 936 l 550 921 m 653 425 q 613 550 653 515 q 482 585 574 585 l 368 585 q 266 570 303 586 q 213 517 229 554 q 197 414 197 481 l 197 256 q 235 124 197 161 q 368 86 272 86 l 482 86 q 616 124 579 86 q 653 257 653 161 l 653 425 z "},"ď":{"ha":908,"x_min":111,"x_max":969,"o":"m 696 968 q 739 925 739 968 l 739 43 q 696 0 739 0 q 653 43 653 0 l 653 85 q 421 0 589 0 l 368 0 q 174 63 236 0 q 111 257 111 125 l 111 414 q 174 608 111 546 q 368 671 236 671 l 653 671 l 653 925 q 696 968 653 968 m 421 86 q 590 118 528 86 q 653 211 653 150 l 653 585 l 368 585 q 234 547 271 585 q 197 414 197 510 l 197 257 q 235 123 197 160 q 368 86 272 86 l 421 86 m 969 914 q 967 896 969 904 l 968 894 l 913 774 q 883 753 901 753 q 860 762 869 753 q 854 786 851 771 l 879 931 l 879 938 q 914 972 879 972 l 936 972 q 969 938 969 972 l 969 914 z "},"đ":{"ha":860,"x_min":111,"x_max":858,"o":"m 821 847 q 858 808 858 847 q 821 769 858 769 l 739 769 l 739 43 q 696 0 739 0 q 653 43 653 0 l 653 85 q 421 0 589 0 l 368 0 q 174 63 236 0 q 111 257 111 125 l 111 414 q 174 608 111 546 q 368 671 236 671 l 653 671 l 653 769 l 460 769 q 421 808 421 769 q 460 847 421 847 l 653 847 l 653 925 q 696 968 653 968 q 739 925 739 968 l 739 847 l 821 847 m 421 86 q 590 118 528 86 q 653 211 653 150 l 653 585 l 368 585 q 234 547 271 585 q 197 414 197 510 l 197 257 q 235 123 197 160 q 368 86 272 86 l 421 86 z "},"ǳ":{"ha":1518,"x_min":111,"x_max":1468,"o":"m 696 968 q 739 925 739 968 l 739 43 q 696 0 739 0 q 653 43 653 0 l 653 85 q 421 0 589 0 l 368 0 q 174 63 236 0 q 111 257 111 125 l 111 414 q 174 608 111 546 q 368 671 236 671 l 653 671 l 653 925 q 696 968 653 968 m 421 86 q 590 118 528 86 q 653 211 653 150 l 653 585 l 368 585 q 234 547 271 585 q 197 414 197 510 l 197 257 q 235 123 197 160 q 368 86 272 86 l 421 86 m 1426 185 q 1460 173 1449 185 q 1468 140 1471 161 q 1286 0 1444 0 l 919 0 q 876 43 876 0 q 894 88 876 64 l 1297 585 l 1033 585 q 965 573 986 585 q 939 528 944 561 q 924 496 933 506 q 894 486 914 486 q 860 498 872 486 q 851 531 849 510 q 906 637 861 603 q 1033 671 951 671 l 1374 671 q 1417 628 1417 671 q 1399 583 1417 607 l 1000 88 l 1286 86 q 1352 99 1329 86 q 1381 144 1375 113 q 1397 175 1386 165 q 1426 185 1407 185 z "},"ǆ":{"ha":1518,"x_min":111,"x_max":1468,"o":"m 696 968 q 739 925 739 968 l 739 43 q 696 0 739 0 q 653 43 653 0 l 653 85 q 421 0 589 0 l 368 0 q 174 63 236 0 q 111 257 111 125 l 111 414 q 174 608 111 546 q 368 671 236 671 l 653 671 l 653 925 q 696 968 653 968 m 421 86 q 590 118 528 86 q 653 211 653 150 l 653 585 l 368 585 q 234 547 271 585 q 197 414 197 510 l 197 257 q 235 123 197 160 q 368 86 272 86 l 421 86 m 1426 185 q 1460 173 1449 185 q 1468 140 1471 161 q 1286 0 1444 0 l 919 0 q 876 43 876 0 q 894 88 876 64 l 1297 585 l 1033 585 q 965 573 986 585 q 939 528 944 561 q 924 496 933 506 q 894 486 914 486 q 860 498 872 486 q 851 531 849 510 q 906 637 861 603 q 1033 671 951 671 l 1374 671 q 1417 628 1417 671 q 1399 583 1417 607 l 1000 88 l 1286 86 q 1352 99 1329 86 q 1381 144 1375 113 q 1397 175 1386 165 q 1426 185 1407 185 m 1033 957 q 1063 944 1050 957 l 1158 825 l 1171 825 l 1268 944 q 1297 957 1278 957 q 1324 946 1313 957 q 1335 919 1335 935 q 1326 893 1335 906 l 1221 769 q 1174 747 1200 747 l 1156 747 q 1110 769 1128 747 l 1004 893 q 994 919 994 908 q 1006 946 994 935 q 1033 957 1017 957 z "},"e":{"ha":850,"x_min":111,"x_max":739,"o":"m 197 301 l 197 256 q 234 123 197 160 q 368 86 271 86 l 482 86 q 602 106 564 86 q 650 174 640 126 q 663 205 653 194 q 694 215 674 215 q 728 203 717 215 q 736 171 739 192 q 663 42 725 83 q 482 0 600 0 l 368 0 q 174 62 236 0 q 111 256 111 124 l 111 414 q 174 610 111 547 q 368 671 236 672 l 482 671 q 676 608 614 671 q 739 414 739 546 l 739 344 q 696 301 739 301 l 197 301 m 197 388 l 653 388 l 653 414 q 616 548 653 511 q 482 585 579 585 l 368 585 q 266 570 303 586 q 213 517 229 554 q 197 414 197 481 l 197 388 z "},"é":{"ha":850,"x_min":111,"x_max":739,"o":"m 197 301 l 197 256 q 234 123 197 160 q 368 86 271 86 l 482 86 q 602 106 564 86 q 650 174 640 126 q 663 205 653 194 q 694 215 674 215 q 728 203 717 215 q 736 171 739 192 q 663 42 725 83 q 482 0 600 0 l 368 0 q 174 62 236 0 q 111 256 111 124 l 111 414 q 174 610 111 547 q 368 671 236 672 l 482 671 q 676 608 614 671 q 739 414 739 546 l 739 344 q 696 301 739 301 l 197 301 m 197 388 l 653 388 l 653 414 q 616 548 653 511 q 482 585 579 585 l 368 585 q 266 570 303 586 q 213 517 229 554 q 197 414 197 481 l 197 388 m 396 757 q 381 786 381 768 q 392 813 381 801 l 506 947 q 535 964 518 964 q 561 953 547 964 q 576 924 576 942 q 565 897 576 908 l 451 763 q 422 746 439 746 q 396 757 410 746 z "},"ĕ":{"ha":850,"x_min":111,"x_max":739,"o":"m 197 301 l 197 256 q 234 123 197 160 q 368 86 271 86 l 482 86 q 602 106 564 86 q 650 174 640 126 q 663 205 653 194 q 694 215 674 215 q 728 203 717 215 q 736 171 739 192 q 663 42 725 83 q 482 0 600 0 l 368 0 q 174 62 236 0 q 111 256 111 124 l 111 414 q 174 610 111 547 q 368 671 236 672 l 482 671 q 676 608 614 671 q 739 414 739 546 l 739 344 q 696 301 739 301 l 197 301 m 197 388 l 653 388 l 653 414 q 616 548 653 511 q 482 585 579 585 l 368 585 q 266 570 303 586 q 213 517 229 554 q 197 414 197 481 l 197 388 m 439 744 q 308 783 353 744 q 263 896 263 822 l 263 911 q 301 950 263 950 q 342 911 342 950 l 342 896 q 364 836 342 854 q 442 818 386 818 q 521 837 499 819 q 543 896 543 854 l 543 918 q 582 950 543 950 q 622 911 622 950 l 622 896 q 575 782 622 819 q 439 744 528 744 z "},"ě":{"ha":850,"x_min":111,"x_max":739,"o":"m 197 301 l 197 256 q 234 123 197 160 q 368 86 271 86 l 482 86 q 602 106 564 86 q 650 174 640 126 q 663 205 653 194 q 694 215 674 215 q 728 203 717 215 q 736 171 739 192 q 663 42 725 83 q 482 0 600 0 l 368 0 q 174 62 236 0 q 111 256 111 124 l 111 414 q 174 610 111 547 q 368 671 236 672 l 482 671 q 676 608 614 671 q 739 414 739 546 l 739 344 q 696 301 739 301 l 197 301 m 197 388 l 653 388 l 653 414 q 616 548 653 511 q 482 585 579 585 l 368 585 q 266 570 303 586 q 213 517 229 554 q 197 414 197 481 l 197 388 m 300 957 q 329 944 317 957 l 425 825 l 438 825 l 535 944 q 564 957 544 957 q 590 946 579 957 q 601 919 601 935 q 593 893 601 906 l 488 769 q 440 747 467 747 l 422 747 q 376 769 394 747 l 271 893 q 261 919 261 908 q 272 946 261 935 q 300 957 283 957 z "},"ê":{"ha":850,"x_min":111,"x_max":739,"o":"m 197 301 l 197 256 q 234 123 197 160 q 368 86 271 86 l 482 86 q 602 106 564 86 q 650 174 640 126 q 663 205 653 194 q 694 215 674 215 q 728 203 717 215 q 736 171 739 192 q 663 42 725 83 q 482 0 600 0 l 368 0 q 174 62 236 0 q 111 256 111 124 l 111 414 q 174 610 111 547 q 368 671 236 672 l 482 671 q 676 608 614 671 q 739 414 739 546 l 739 344 q 696 301 739 301 l 197 301 m 197 388 l 653 388 l 653 414 q 616 548 653 511 q 482 585 579 585 l 368 585 q 266 570 303 586 q 213 517 229 554 q 197 414 197 481 l 197 388 m 303 747 q 275 758 286 747 q 264 785 264 769 q 274 811 264 797 l 379 935 q 425 957 397 957 l 443 957 q 490 935 469 957 l 596 811 q 604 785 604 799 q 593 758 604 769 q 567 747 582 747 q 538 760 547 747 l 440 879 l 428 879 l 332 760 q 303 747 319 747 z "},"ế":{"ha":850,"x_min":111,"x_max":739,"o":"m 197 301 l 197 256 q 234 123 197 160 q 368 86 271 86 l 482 86 q 602 106 564 86 q 650 174 640 126 q 663 205 653 194 q 694 215 674 215 q 728 203 717 215 q 736 171 739 192 q 663 42 725 83 q 482 0 600 0 l 368 0 q 174 62 236 0 q 111 256 111 124 l 111 414 q 174 610 111 547 q 368 671 236 672 l 482 671 q 676 608 614 671 q 739 414 739 546 l 739 344 q 696 301 739 301 l 197 301 m 197 388 l 653 388 l 653 414 q 616 548 653 511 q 482 585 579 585 l 368 585 q 266 570 303 586 q 213 517 229 554 q 197 414 197 481 l 197 388 m 578 867 q 561 897 561 882 q 572 922 561 908 l 654 1014 q 685 1029 669 1029 q 710 1018 696 1029 q 726 989 726 1006 q 715 963 726 976 l 633 872 q 603 857 619 857 q 578 867 589 857 m 300 747 q 272 758 283 747 q 261 785 261 769 q 271 811 261 797 l 376 935 q 422 957 394 957 l 440 957 q 488 935 467 957 l 593 811 q 601 785 601 799 q 590 758 601 769 q 564 747 579 747 q 535 760 544 747 l 438 879 l 425 879 l 329 760 q 300 747 317 747 z "},"ệ":{"ha":850,"x_min":111,"x_max":739,"o":"m 197 301 l 197 256 q 234 123 197 160 q 368 86 271 86 l 482 86 q 602 106 564 86 q 650 174 640 126 q 663 205 653 194 q 694 215 674 215 q 728 203 717 215 q 736 171 739 192 q 663 42 725 83 q 482 0 600 0 l 368 0 q 174 62 236 0 q 111 256 111 124 l 111 414 q 174 610 111 547 q 368 671 236 672 l 482 671 q 676 608 614 671 q 739 414 739 546 l 739 344 q 696 301 739 301 l 197 301 m 197 388 l 653 388 l 653 414 q 616 548 653 511 q 482 585 579 585 l 368 585 q 266 570 303 586 q 213 517 229 554 q 197 414 197 481 l 197 388 m 418 -212 q 374 -167 374 -212 l 374 -137 q 418 -94 374 -94 l 446 -94 q 489 -137 489 -94 l 489 -167 q 478 -201 489 -189 q 446 -212 467 -212 l 418 -212 m 303 747 q 275 758 286 747 q 264 785 264 769 q 274 811 264 797 l 379 935 q 425 957 397 957 l 443 957 q 490 935 469 957 l 596 811 q 604 785 604 799 q 593 758 604 769 q 567 747 582 747 q 538 760 547 747 l 440 879 l 428 879 l 332 760 q 303 747 319 747 z "},"ề":{"ha":850,"x_min":111,"x_max":739,"o":"m 197 301 l 197 256 q 234 123 197 160 q 368 86 271 86 l 482 86 q 602 106 564 86 q 650 174 640 126 q 663 205 653 194 q 694 215 674 215 q 728 203 717 215 q 736 171 739 192 q 663 42 725 83 q 482 0 600 0 l 368 0 q 174 62 236 0 q 111 256 111 124 l 111 414 q 174 610 111 547 q 368 671 236 672 l 482 671 q 676 608 614 671 q 739 414 739 546 l 739 344 q 696 301 739 301 l 197 301 m 197 388 l 653 388 l 653 414 q 616 548 653 511 q 482 585 579 585 l 368 585 q 266 570 303 586 q 213 517 229 554 q 197 414 197 481 l 197 388 m 282 867 q 256 857 271 857 q 226 872 240 857 l 144 963 q 133 990 133 974 q 149 1018 133 1007 q 175 1029 163 1029 q 204 1014 189 1029 l 286 922 q 299 896 299 910 q 282 867 299 882 m 299 747 q 271 758 282 747 q 260 785 260 769 q 269 811 260 797 l 375 935 q 421 957 393 957 l 439 957 q 486 935 465 957 l 592 811 q 600 785 600 799 q 589 758 600 769 q 563 747 578 747 q 533 760 543 747 l 436 879 l 424 879 l 328 760 q 299 747 315 747 z "},"ể":{"ha":850,"x_min":111,"x_max":739,"o":"m 197 301 l 197 256 q 234 123 197 160 q 368 86 271 86 l 482 86 q 602 106 564 86 q 650 174 640 126 q 663 205 653 194 q 694 215 674 215 q 728 203 717 215 q 736 171 739 192 q 663 42 725 83 q 482 0 600 0 l 368 0 q 174 62 236 0 q 111 256 111 124 l 111 414 q 174 610 111 547 q 368 671 236 672 l 482 671 q 676 608 614 671 q 739 414 739 546 l 739 344 q 696 301 739 301 l 197 301 m 197 388 l 653 388 l 653 414 q 616 548 653 511 q 482 585 579 585 l 368 585 q 266 570 303 586 q 213 517 229 554 q 197 414 197 481 l 197 388 m 300 747 q 272 758 283 747 q 261 785 261 769 q 271 811 261 797 l 376 935 q 422 957 394 957 l 440 957 q 488 935 467 957 l 593 811 q 601 785 601 799 q 590 758 601 769 q 564 747 579 747 q 535 760 544 747 l 438 879 l 425 879 l 329 760 q 300 747 317 747 m 583 878 q 558 885 565 878 q 550 911 550 893 q 568 971 550 950 q 615 1010 586 992 q 642 1028 636 1022 q 647 1046 647 1035 q 637 1088 647 1078 q 594 1099 626 1099 q 553 1088 563 1099 q 543 1046 543 1078 q 535 1020 543 1028 q 508 1013 526 1013 q 483 1020 490 1013 q 475 1046 475 1028 q 594 1165 475 1165 q 715 1046 715 1165 q 698 990 715 1010 q 651 951 681 971 q 623 931 629 939 q 617 911 617 924 q 609 885 617 893 q 583 878 601 878 z "},"ễ":{"ha":850,"x_min":111,"x_max":739,"o":"m 197 301 l 197 256 q 234 123 197 160 q 368 86 271 86 l 482 86 q 602 106 564 86 q 650 174 640 126 q 663 205 653 194 q 694 215 674 215 q 728 203 717 215 q 736 171 739 192 q 663 42 725 83 q 482 0 600 0 l 368 0 q 174 62 236 0 q 111 256 111 124 l 111 414 q 174 610 111 547 q 368 671 236 672 l 482 671 q 676 608 614 671 q 739 414 739 546 l 739 344 q 696 301 739 301 l 197 301 m 197 388 l 653 388 l 653 414 q 616 548 653 511 q 482 585 579 585 l 368 585 q 266 570 303 586 q 213 517 229 554 q 197 414 197 481 l 197 388 m 300 747 q 272 758 283 747 q 261 785 261 769 q 271 811 261 797 l 376 935 q 422 957 394 957 l 440 957 q 488 935 467 957 l 593 811 q 601 785 601 799 q 590 758 601 769 q 564 747 579 747 q 535 760 544 747 l 438 879 l 425 879 l 329 760 q 300 747 317 747 m 501 988 q 461 999 478 988 q 418 1035 444 1011 q 394 1058 403 1051 q 375 1065 385 1065 q 350 1055 360 1065 q 329 1017 340 1044 q 285 992 314 983 q 262 1003 269 994 q 254 1025 254 1013 q 257 1039 254 1031 q 305 1115 279 1092 q 371 1139 331 1139 q 414 1126 394 1139 q 457 1089 433 1113 q 480 1069 468 1078 q 500 1060 492 1060 q 519 1069 511 1060 q 536 1101 526 1078 q 579 1129 549 1135 q 603 1119 594 1128 q 611 1097 611 1110 q 608 1082 611 1093 q 501 988 575 988 z "},"ȅ":{"ha":850,"x_min":111,"x_max":739,"o":"m 235 901 q 224 925 224 915 q 239 951 224 939 q 263 963 250 963 q 289 947 278 963 l 392 825 q 401 801 401 815 q 388 775 401 788 q 363 765 376 765 q 338 781 347 765 l 235 901 m 392 901 q 381 925 381 915 q 396 951 381 939 q 419 963 407 963 q 446 947 435 963 l 549 825 q 558 801 558 815 q 544 775 558 788 q 519 765 533 765 q 494 781 504 765 l 392 901 m 197 301 l 197 256 q 234 123 197 160 q 368 86 271 86 l 482 86 q 602 106 564 86 q 650 174 640 126 q 663 205 653 194 q 694 215 674 215 q 728 203 717 215 q 736 171 739 192 q 663 42 725 83 q 482 0 600 0 l 368 0 q 174 62 236 0 q 111 256 111 124 l 111 414 q 174 610 111 547 q 368 671 236 672 l 482 671 q 676 608 614 671 q 739 414 739 546 l 739 344 q 696 301 739 301 l 197 301 m 197 388 l 653 388 l 653 414 q 616 548 653 511 q 482 585 579 585 l 368 585 q 266 570 303 586 q 213 517 229 554 q 197 414 197 481 l 197 388 z "},"ë":{"ha":850,"x_min":111,"x_max":739,"o":"m 197 301 l 197 256 q 234 123 197 160 q 368 86 271 86 l 482 86 q 602 106 564 86 q 650 174 640 126 q 663 205 653 194 q 694 215 674 215 q 728 203 717 215 q 736 171 739 192 q 663 42 725 83 q 482 0 600 0 l 368 0 q 174 62 236 0 q 111 256 111 124 l 111 414 q 174 610 111 547 q 368 671 236 672 l 482 671 q 676 608 614 671 q 739 414 739 546 l 739 344 q 696 301 739 301 l 197 301 m 197 388 l 653 388 l 653 414 q 616 548 653 511 q 482 585 579 585 l 368 585 q 266 570 303 586 q 213 517 229 554 q 197 414 197 481 l 197 388 m 311 783 q 267 829 267 783 l 267 858 q 311 901 267 901 l 339 901 q 382 858 382 901 l 382 829 q 371 795 382 807 q 339 783 360 783 l 311 783 m 525 783 q 481 829 481 783 l 481 858 q 525 901 481 901 l 553 901 q 596 858 596 901 l 596 829 q 585 795 596 807 q 553 783 574 783 l 525 783 z "},"ė":{"ha":850,"x_min":111,"x_max":739,"o":"m 197 301 l 197 256 q 234 123 197 160 q 368 86 271 86 l 482 86 q 602 106 564 86 q 650 174 640 126 q 663 205 653 194 q 694 215 674 215 q 728 203 717 215 q 736 171 739 192 q 663 42 725 83 q 482 0 600 0 l 368 0 q 174 62 236 0 q 111 256 111 124 l 111 414 q 174 610 111 547 q 368 671 236 672 l 482 671 q 676 608 614 671 q 739 414 739 546 l 739 344 q 696 301 739 301 l 197 301 m 197 388 l 653 388 l 653 414 q 616 548 653 511 q 482 585 579 585 l 368 585 q 266 570 303 586 q 213 517 229 554 q 197 414 197 481 l 197 388 m 415 793 q 363 847 363 793 l 363 883 q 376 922 363 908 q 415 935 389 935 l 449 935 q 487 921 474 935 q 500 883 500 907 l 500 847 q 487 807 500 821 q 449 793 474 793 l 415 793 z "},"ẹ":{"ha":850,"x_min":111,"x_max":739,"o":"m 197 301 l 197 256 q 234 123 197 160 q 368 86 271 86 l 482 86 q 602 106 564 86 q 650 174 640 126 q 663 205 653 194 q 694 215 674 215 q 728 203 717 215 q 736 171 739 192 q 663 42 725 83 q 482 0 600 0 l 368 0 q 174 62 236 0 q 111 256 111 124 l 111 414 q 174 610 111 547 q 368 671 236 672 l 482 671 q 676 608 614 671 q 739 414 739 546 l 739 344 q 696 301 739 301 l 197 301 m 197 388 l 653 388 l 653 414 q 616 548 653 511 q 482 585 579 585 l 368 585 q 266 570 303 586 q 213 517 229 554 q 197 414 197 481 l 197 388 m 418 -212 q 374 -167 374 -212 l 374 -137 q 418 -94 374 -94 l 446 -94 q 489 -137 489 -94 l 489 -167 q 478 -201 489 -189 q 446 -212 467 -212 l 418 -212 z "},"è":{"ha":850,"x_min":111,"x_max":739,"o":"m 197 301 l 197 256 q 234 123 197 160 q 368 86 271 86 l 482 86 q 602 106 564 86 q 650 174 640 126 q 663 205 653 194 q 694 215 674 215 q 728 203 717 215 q 736 171 739 192 q 663 42 725 83 q 482 0 600 0 l 368 0 q 174 62 236 0 q 111 256 111 124 l 111 414 q 174 610 111 547 q 368 671 236 672 l 482 671 q 676 608 614 671 q 739 414 739 546 l 739 344 q 696 301 739 301 l 197 301 m 197 388 l 653 388 l 653 414 q 616 548 653 511 q 482 585 579 585 l 368 585 q 266 570 303 586 q 213 517 229 554 q 197 414 197 481 l 197 388 m 481 744 q 454 733 467 733 q 425 750 438 733 l 311 885 q 300 911 300 896 q 315 940 300 929 q 342 951 329 951 q 371 935 358 951 l 485 800 q 496 774 496 789 q 481 744 496 756 z "},"ẻ":{"ha":850,"x_min":111,"x_max":739,"o":"m 197 301 l 197 256 q 234 123 197 160 q 368 86 271 86 l 482 86 q 602 106 564 86 q 650 174 640 126 q 663 205 653 194 q 694 215 674 215 q 728 203 717 215 q 736 171 739 192 q 663 42 725 83 q 482 0 600 0 l 368 0 q 174 62 236 0 q 111 256 111 124 l 111 414 q 174 610 111 547 q 368 671 236 672 l 482 671 q 676 608 614 671 q 739 414 739 546 l 739 344 q 696 301 739 301 l 197 301 m 197 388 l 653 388 l 653 414 q 616 548 653 511 q 482 585 579 585 l 368 585 q 266 570 303 586 q 213 517 229 554 q 197 414 197 481 l 197 388 m 432 747 q 406 755 414 747 q 399 781 399 763 q 417 840 399 819 q 464 879 435 861 q 490 898 485 892 q 496 915 496 904 q 485 958 496 947 q 443 968 475 968 q 401 958 411 968 q 392 915 392 947 q 383 890 392 897 q 357 882 375 882 q 331 890 339 882 q 324 915 324 897 q 443 1035 324 1035 q 564 915 564 1035 q 547 860 564 879 q 500 821 529 840 q 472 801 478 808 q 465 781 465 793 q 458 755 465 763 q 432 747 450 747 z "},"ȇ":{"ha":850,"x_min":111,"x_max":739,"o":"m 197 301 l 197 256 q 234 123 197 160 q 368 86 271 86 l 482 86 q 602 106 564 86 q 650 174 640 126 q 663 205 653 194 q 694 215 674 215 q 728 203 717 215 q 736 171 739 192 q 663 42 725 83 q 482 0 600 0 l 368 0 q 174 62 236 0 q 111 256 111 124 l 111 414 q 174 610 111 547 q 368 671 236 672 l 482 671 q 676 608 614 671 q 739 414 739 546 l 739 344 q 696 301 739 301 l 197 301 m 197 388 l 653 388 l 653 414 q 616 548 653 511 q 482 585 579 585 l 368 585 q 266 570 303 586 q 213 517 229 554 q 197 414 197 481 l 197 388 m 428 982 q 564 944 517 982 q 611 831 611 907 l 611 815 q 571 776 611 776 q 532 808 532 776 l 532 831 q 510 890 532 872 q 431 908 488 907 q 353 890 375 908 q 331 831 331 872 l 331 815 q 290 776 331 776 q 251 815 251 776 l 251 831 q 297 943 251 904 q 428 982 342 982 z "},"ē":{"ha":850,"x_min":111,"x_max":739,"o":"m 197 301 l 197 256 q 234 123 197 160 q 368 86 271 86 l 482 86 q 602 106 564 86 q 650 174 640 126 q 663 205 653 194 q 694 215 674 215 q 728 203 717 215 q 736 171 739 192 q 663 42 725 83 q 482 0 600 0 l 368 0 q 174 62 236 0 q 111 256 111 124 l 111 414 q 174 610 111 547 q 368 671 236 672 l 482 671 q 676 608 614 671 q 739 414 739 546 l 739 344 q 696 301 739 301 l 197 301 m 197 388 l 653 388 l 653 414 q 616 548 653 511 q 482 585 579 585 l 368 585 q 266 570 303 586 q 213 517 229 554 q 197 414 197 481 l 197 388 m 253 815 q 210 858 210 815 q 253 901 210 901 l 604 901 q 647 858 647 901 q 604 815 647 815 l 253 815 z "},"ę":{"ha":850,"x_min":111,"x_max":751,"o":"m 711 -117 q 741 -128 731 -117 q 751 -158 751 -140 q 736 -186 751 -175 q 629 -225 686 -225 q 535 -190 574 -225 q 497 -104 497 -156 q 529 -17 497 -62 l 544 3 q 482 0 506 0 l 368 0 q 174 62 236 0 q 111 256 111 124 l 111 414 q 174 610 111 547 q 368 671 236 672 l 482 671 q 676 608 614 671 q 739 414 739 546 l 739 344 q 696 301 739 301 l 197 301 l 197 256 q 234 123 197 160 q 368 86 271 86 l 482 86 q 602 106 564 86 q 650 174 640 126 q 663 205 653 194 q 694 215 674 215 q 728 203 717 215 q 736 171 739 192 q 708 89 731 124 q 703 81 706 83 l 699 75 l 593 -64 q 576 -104 576 -86 q 591 -134 576 -122 q 629 -146 606 -146 q 660 -140 646 -146 q 692 -122 674 -135 q 711 -117 703 -117 m 197 388 l 653 388 l 653 414 q 616 548 653 511 q 482 585 579 585 l 368 585 q 266 570 303 586 q 213 517 229 554 q 197 414 197 481 l 197 388 z "},"ẽ":{"ha":850,"x_min":111,"x_max":739,"o":"m 197 301 l 197 256 q 234 123 197 160 q 368 86 271 86 l 482 86 q 602 106 564 86 q 650 174 640 126 q 663 205 653 194 q 694 215 674 215 q 728 203 717 215 q 736 171 739 192 q 663 42 725 83 q 482 0 600 0 l 368 0 q 174 62 236 0 q 111 256 111 124 l 111 414 q 174 610 111 547 q 368 671 236 672 l 482 671 q 676 608 614 671 q 739 414 739 546 l 739 344 q 696 301 739 301 l 197 301 m 197 388 l 653 388 l 653 414 q 616 548 653 511 q 482 585 579 585 l 368 585 q 266 570 303 586 q 213 517 229 554 q 197 414 197 481 l 197 388 m 524 771 q 463 786 488 771 q 417 824 438 801 q 386 850 399 843 q 357 857 374 857 q 323 846 336 857 q 299 803 310 835 q 254 776 285 768 q 231 788 239 779 q 224 810 224 797 q 226 825 224 814 q 278 906 247 881 q 357 932 310 932 q 422 916 396 932 q 469 876 447 900 q 499 851 490 857 q 524 846 508 846 q 554 857 542 846 q 576 896 567 868 q 611 926 588 926 q 640 917 629 926 q 651 893 651 907 q 649 878 651 889 q 599 797 629 824 q 524 771 569 771 z "},"ə":{"ha":850,"x_min":111,"x_max":739,"o":"m 482 671 q 676 609 614 671 q 739 415 739 547 l 739 257 q 676 61 739 124 q 482 0 614 -1 l 368 0 q 174 63 236 0 q 111 257 111 125 l 111 326 q 154 369 111 369 l 653 369 l 653 415 q 616 548 653 511 q 482 585 579 585 l 368 585 q 248 565 286 585 q 200 497 210 544 q 187 466 197 476 q 156 456 176 456 q 122 467 133 456 q 114 500 111 479 q 188 629 125 588 q 368 671 250 671 l 482 671 m 653 283 l 197 283 l 197 257 q 234 123 197 160 q 368 86 271 86 l 482 86 q 584 101 547 85 q 637 153 621 117 q 653 257 653 190 l 653 283 z "},"f":{"ha":481,"x_min":51,"x_max":443,"o":"m 400 671 q 443 628 443 671 q 400 585 443 585 l 236 585 l 236 43 q 193 0 236 0 q 150 43 150 0 l 150 585 l 94 585 q 51 628 51 585 q 94 671 51 671 l 150 671 l 150 715 q 211 907 150 846 q 403 968 272 968 q 443 925 443 968 q 433 893 443 904 q 403 882 422 882 q 273 846 310 882 q 236 715 236 810 l 236 671 l 400 671 z "},"g":{"ha":860,"x_min":111,"x_max":739,"o":"m 696 671 q 739 628 739 671 l 739 -93 q 694 -233 739 -187 q 554 -278 649 -278 l 296 -278 q 169 -244 214 -278 q 114 -139 124 -210 q 122 -105 111 -117 q 156 -93 133 -93 q 185 -103 175 -93 q 200 -135 194 -112 q 227 -179 206 -167 q 296 -192 249 -192 l 554 -192 q 633 -172 613 -192 q 653 -93 653 -151 l 653 92 q 421 0 582 0 l 368 0 q 174 62 236 0 q 111 256 111 124 l 111 414 q 174 610 111 547 q 368 671 236 672 l 482 671 q 653 603 601 671 l 653 628 q 696 671 653 671 m 421 86 q 590 118 528 86 q 653 211 653 150 l 653 457 q 611 556 653 526 q 482 585 569 585 l 368 585 q 266 570 303 586 q 213 517 229 554 q 197 414 197 481 l 197 256 q 234 123 197 160 q 368 86 271 86 l 421 86 z "},"ğ":{"ha":860,"x_min":111,"x_max":739,"o":"m 696 671 q 739 628 739 671 l 739 -93 q 694 -233 739 -187 q 554 -278 649 -278 l 296 -278 q 169 -244 214 -278 q 114 -139 124 -210 q 122 -105 111 -117 q 156 -93 133 -93 q 185 -103 175 -93 q 200 -135 194 -112 q 227 -179 206 -167 q 296 -192 249 -192 l 554 -192 q 633 -172 613 -192 q 653 -93 653 -151 l 653 92 q 421 0 582 0 l 368 0 q 174 62 236 0 q 111 256 111 124 l 111 414 q 174 610 111 547 q 368 671 236 672 l 482 671 q 653 603 601 671 l 653 628 q 696 671 653 671 m 421 86 q 590 118 528 86 q 653 211 653 150 l 653 457 q 611 556 653 526 q 482 585 569 585 l 368 585 q 266 570 303 586 q 213 517 229 554 q 197 414 197 481 l 197 256 q 234 123 197 160 q 368 86 271 86 l 421 86 m 432 744 q 301 783 346 744 q 256 896 256 822 l 256 911 q 294 950 256 950 q 335 911 335 950 l 335 896 q 357 836 335 854 q 435 818 379 818 q 514 837 492 819 q 536 896 536 854 l 536 918 q 575 950 536 950 q 615 911 615 950 l 615 896 q 568 782 615 819 q 432 744 521 744 z "},"ǧ":{"ha":860,"x_min":111,"x_max":739,"o":"m 696 671 q 739 628 739 671 l 739 -93 q 694 -233 739 -187 q 554 -278 649 -278 l 296 -278 q 169 -244 214 -278 q 114 -139 124 -210 q 122 -105 111 -117 q 156 -93 133 -93 q 185 -103 175 -93 q 200 -135 194 -112 q 227 -179 206 -167 q 296 -192 249 -192 l 554 -192 q 633 -172 613 -192 q 653 -93 653 -151 l 653 92 q 421 0 582 0 l 368 0 q 174 62 236 0 q 111 256 111 124 l 111 414 q 174 610 111 547 q 368 671 236 672 l 482 671 q 653 603 601 671 l 653 628 q 696 671 653 671 m 421 86 q 590 118 528 86 q 653 211 653 150 l 653 457 q 611 556 653 526 q 482 585 569 585 l 368 585 q 266 570 303 586 q 213 517 229 554 q 197 414 197 481 l 197 256 q 234 123 197 160 q 368 86 271 86 l 421 86 m 293 957 q 322 944 310 957 l 418 825 l 431 825 l 528 944 q 557 957 538 957 q 583 946 572 957 q 594 919 594 935 q 586 893 594 906 l 481 769 q 433 747 460 747 l 415 747 q 369 769 388 747 l 264 893 q 254 919 254 908 q 265 946 254 935 q 293 957 276 957 z "},"ĝ":{"ha":860,"x_min":111,"x_max":739,"o":"m 696 671 q 739 628 739 671 l 739 -93 q 694 -233 739 -187 q 554 -278 649 -278 l 296 -278 q 169 -244 214 -278 q 114 -139 124 -210 q 122 -105 111 -117 q 156 -93 133 -93 q 185 -103 175 -93 q 200 -135 194 -112 q 227 -179 206 -167 q 296 -192 249 -192 l 554 -192 q 633 -172 613 -192 q 653 -93 653 -151 l 653 92 q 421 0 582 0 l 368 0 q 174 62 236 0 q 111 256 111 124 l 111 414 q 174 610 111 547 q 368 671 236 672 l 482 671 q 653 603 601 671 l 653 628 q 696 671 653 671 m 421 86 q 590 118 528 86 q 653 211 653 150 l 653 457 q 611 556 653 526 q 482 585 569 585 l 368 585 q 266 570 303 586 q 213 517 229 554 q 197 414 197 481 l 197 256 q 234 123 197 160 q 368 86 271 86 l 421 86 m 296 747 q 268 758 279 747 q 257 785 257 769 q 267 811 257 797 l 372 935 q 418 957 390 957 l 436 957 q 483 935 463 957 l 589 811 q 597 785 597 799 q 586 758 597 769 q 560 747 575 747 q 531 760 540 747 l 433 879 l 421 879 l 325 760 q 296 747 313 747 z "},"ģ":{"ha":860,"x_min":111,"x_max":739,"o":"m 696 671 q 739 628 739 671 l 739 -93 q 694 -233 739 -187 q 554 -278 649 -278 l 296 -278 q 169 -244 214 -278 q 114 -139 124 -210 q 122 -105 111 -117 q 156 -93 133 -93 q 185 -103 175 -93 q 200 -135 194 -112 q 227 -179 206 -167 q 296 -192 249 -192 l 554 -192 q 633 -172 613 -192 q 653 -93 653 -151 l 653 92 q 421 0 582 0 l 368 0 q 174 62 236 0 q 111 256 111 124 l 111 414 q 174 610 111 547 q 368 671 236 672 l 482 671 q 653 603 601 671 l 653 628 q 696 671 653 671 m 421 86 q 590 118 528 86 q 653 211 653 150 l 653 457 q 611 556 653 526 q 482 585 569 585 l 368 585 q 266 570 303 586 q 213 517 229 554 q 197 414 197 481 l 197 256 q 234 123 197 160 q 368 86 271 86 l 421 86 m 439 988 q 463 978 453 988 q 469 954 472 969 l 442 797 q 407 763 442 763 l 385 763 q 350 799 350 763 l 350 824 q 354 843 350 835 l 353 843 l 410 967 q 439 988 419 988 z "},"ġ":{"ha":860,"x_min":111,"x_max":739,"o":"m 696 671 q 739 628 739 671 l 739 -93 q 694 -233 739 -187 q 554 -278 649 -278 l 296 -278 q 169 -244 214 -278 q 114 -139 124 -210 q 122 -105 111 -117 q 156 -93 133 -93 q 185 -103 175 -93 q 200 -135 194 -112 q 227 -179 206 -167 q 296 -192 249 -192 l 554 -192 q 633 -172 613 -192 q 653 -93 653 -151 l 653 92 q 421 0 582 0 l 368 0 q 174 62 236 0 q 111 256 111 124 l 111 414 q 174 610 111 547 q 368 671 236 672 l 482 671 q 653 603 601 671 l 653 628 q 696 671 653 671 m 421 86 q 590 118 528 86 q 653 211 653 150 l 653 457 q 611 556 653 526 q 482 585 569 585 l 368 585 q 266 570 303 586 q 213 517 229 554 q 197 414 197 481 l 197 256 q 234 123 197 160 q 368 86 271 86 l 421 86 m 408 793 q 356 847 356 793 l 356 883 q 369 922 356 908 q 408 935 382 935 l 442 935 q 480 921 467 935 q 493 883 493 907 l 493 847 q 480 807 493 821 q 442 793 467 793 l 408 793 z "},"h":{"ha":869,"x_min":135,"x_max":749,"o":"m 492 671 q 686 609 624 671 q 749 414 749 547 l 749 43 q 706 0 749 0 q 663 43 663 0 l 663 414 q 625 548 663 511 q 492 585 588 585 l 453 585 q 293 554 349 585 q 225 460 238 524 l 221 447 l 221 43 q 178 0 221 0 q 135 43 135 0 l 135 925 q 178 968 135 968 q 221 925 221 968 l 221 604 q 453 671 303 671 l 492 671 z "},"ħ":{"ha":869,"x_min":22,"x_max":749,"o":"m 492 671 q 686 609 624 671 q 749 414 749 547 l 749 43 q 706 0 749 0 q 663 43 663 0 l 663 414 q 625 548 663 511 q 492 585 588 585 l 453 585 q 293 554 349 585 q 225 460 238 524 l 221 447 l 221 43 q 178 0 221 0 q 135 43 135 0 l 135 763 l 61 763 q 22 801 22 763 q 61 840 22 840 l 135 840 l 135 925 q 178 968 135 968 q 221 925 221 968 l 221 840 l 422 840 q 460 801 460 840 q 422 763 460 763 l 221 763 l 221 604 q 453 671 303 671 l 492 671 z "},"ĥ":{"ha":869,"x_min":11,"x_max":749,"o":"m 492 671 q 686 609 624 671 q 749 414 749 547 l 749 43 q 706 0 749 0 q 663 43 663 0 l 663 414 q 625 548 663 511 q 492 585 588 585 l 453 585 q 293 554 349 585 q 225 460 238 524 l 221 447 l 221 43 q 178 0 221 0 q 135 43 135 0 l 135 925 q 178 968 135 968 q 221 925 221 968 l 221 604 q 453 671 303 671 l 492 671 m 50 1036 q 22 1047 33 1036 q 11 1074 11 1058 q 21 1100 11 1086 l 126 1224 q 172 1246 144 1246 l 190 1246 q 238 1224 217 1246 l 343 1100 q 351 1074 351 1088 q 340 1047 351 1058 q 314 1036 329 1036 q 285 1049 294 1036 l 188 1168 l 175 1168 l 79 1049 q 50 1036 67 1036 z "},"i":{"ha":356,"x_min":107,"x_max":244,"o":"m 178 0 q 135 43 135 0 l 135 628 q 178 671 135 671 q 221 628 221 671 l 221 43 q 178 0 221 0 m 160 793 q 107 847 107 793 l 107 883 q 120 922 107 908 q 160 935 133 935 l 193 935 q 231 921 218 935 q 244 883 244 907 l 244 847 q 231 807 244 821 q 193 793 218 793 l 160 793 z "},"ı":{"ha":356,"x_min":135,"x_max":221,"o":"m 178 0 q 135 43 135 0 l 135 628 q 178 671 135 671 q 221 628 221 671 l 221 43 q 178 0 221 0 z "},"í":{"ha":356,"x_min":125,"x_max":321,"o":"m 178 0 q 135 43 135 0 l 135 628 q 178 671 135 671 q 221 628 221 671 l 221 43 q 178 0 221 0 m 140 757 q 125 786 125 768 q 136 813 125 801 l 250 947 q 279 964 263 964 q 306 953 292 964 q 321 924 321 942 q 310 897 321 908 l 196 763 q 167 746 183 746 q 140 757 154 746 z "},"ĭ":{"ha":356,"x_min":7,"x_max":367,"o":"m 178 0 q 135 43 135 0 l 135 628 q 178 671 135 671 q 221 628 221 671 l 221 43 q 178 0 221 0 m 183 744 q 52 783 97 744 q 7 896 7 822 l 7 911 q 46 950 7 950 q 86 911 86 950 l 86 896 q 108 836 86 854 q 186 818 131 818 q 265 837 243 819 q 288 896 288 854 l 288 918 q 326 950 288 950 q 367 911 367 950 l 367 896 q 319 782 367 819 q 183 744 272 744 z "},"î":{"ha":356,"x_min":8,"x_max":349,"o":"m 178 0 q 135 43 135 0 l 135 628 q 178 671 135 671 q 221 628 221 671 l 221 43 q 178 0 221 0 m 47 747 q 19 758 31 747 q 8 785 8 769 q 18 811 8 797 l 124 935 q 169 957 142 957 l 188 957 q 235 935 214 957 l 340 811 q 349 785 349 799 q 338 758 349 769 q 311 747 326 747 q 282 760 292 747 l 185 879 l 172 879 l 76 760 q 47 747 64 747 z "},"ȉ":{"ha":356,"x_min":-32,"x_max":303,"o":"m 132 775 q 107 765 121 765 q 82 781 92 765 l -21 901 q -32 925 -32 915 q -17 951 -32 939 q 7 963 -6 963 q 33 947 22 963 l 136 825 q 146 801 146 815 q 132 775 146 788 m 289 775 q 264 765 278 765 q 239 781 249 765 l 136 901 q 125 925 125 915 q 140 951 125 939 q 164 963 151 963 q 190 947 179 963 l 293 825 q 303 801 303 815 q 289 775 303 788 m 178 0 q 135 43 135 0 l 135 628 q 178 671 135 671 q 221 628 221 671 l 221 43 q 178 0 221 0 z "},"ï":{"ha":356,"x_min":11,"x_max":340,"o":"m 178 0 q 135 43 135 0 l 135 628 q 178 671 135 671 q 221 628 221 671 l 221 43 q 178 0 221 0 m 56 783 q 11 829 11 783 l 11 858 q 56 901 11 901 l 83 901 q 126 858 126 901 l 126 829 q 115 795 126 807 q 83 783 104 783 l 56 783 m 269 783 q 225 829 225 783 l 225 858 q 269 901 225 901 l 297 901 q 340 858 340 901 l 340 829 q 329 795 340 807 q 297 783 318 783 l 269 783 z "},"ị":{"ha":356,"x_min":107,"x_max":244,"o":"m 178 0 q 135 43 135 0 l 135 628 q 178 671 135 671 q 221 628 221 671 l 221 43 q 178 0 221 0 m 160 793 q 107 847 107 793 l 107 883 q 120 922 107 908 q 160 935 133 935 l 193 935 q 231 921 218 935 q 244 883 244 907 l 244 847 q 231 807 244 821 q 193 793 218 793 l 160 793 m 164 -212 q 119 -167 119 -212 l 119 -137 q 164 -94 119 -94 l 192 -94 q 235 -137 235 -94 l 235 -167 q 224 -201 235 -189 q 192 -212 213 -212 l 164 -212 z "},"ì":{"ha":356,"x_min":44,"x_max":240,"o":"m 178 0 q 135 43 135 0 l 135 628 q 178 671 135 671 q 221 628 221 671 l 221 43 q 178 0 221 0 m 225 744 q 199 733 211 733 q 169 750 182 733 l 56 885 q 44 911 44 896 q 60 940 44 929 q 86 951 74 951 q 115 935 103 951 l 229 800 q 240 774 240 789 q 225 744 240 756 z "},"ỉ":{"ha":356,"x_min":68,"x_max":308,"o":"m 178 0 q 135 43 135 0 l 135 628 q 178 671 135 671 q 221 628 221 671 l 221 43 q 178 0 221 0 m 176 747 q 151 755 158 747 q 143 781 143 763 q 161 840 143 819 q 208 879 179 861 q 235 898 229 892 q 240 915 240 904 q 230 958 240 947 q 188 968 219 968 q 146 958 156 968 q 136 915 136 947 q 128 890 136 897 q 101 882 119 882 q 76 890 83 882 q 68 915 68 897 q 188 1035 68 1035 q 308 915 308 1035 q 291 860 308 879 q 244 821 274 840 q 216 801 222 808 q 210 781 210 793 q 202 755 210 763 q 176 747 194 747 z "},"ȋ":{"ha":356,"x_min":25,"x_max":329,"o":"m 178 0 q 135 43 135 0 l 135 628 q 178 671 135 671 q 221 628 221 671 l 221 43 q 178 0 221 0 m 176 940 q 290 901 250 940 q 329 788 329 861 q 289 751 329 751 q 250 788 250 751 q 234 844 250 828 q 176 861 218 861 q 120 844 136 861 q 104 788 104 828 q 64 751 104 751 q 25 788 25 751 q 64 900 25 860 q 176 940 103 940 z "},"ī":{"ha":356,"x_min":33,"x_max":319,"o":"m 178 0 q 135 43 135 0 l 135 628 q 178 671 135 671 q 221 628 221 671 l 221 43 q 178 0 221 0 m 75 815 q 44 826 56 815 q 33 857 33 838 q 44 889 33 878 q 75 900 56 900 l 278 900 q 319 857 319 900 q 278 815 319 815 l 75 815 z "},"į":{"ha":356,"x_min":42,"x_max":317,"o":"m 160 793 q 107 847 107 793 l 107 883 q 121 922 107 908 q 160 935 135 935 l 193 935 q 231 921 218 935 q 244 883 244 907 l 244 847 q 231 807 244 821 q 193 793 218 793 l 160 793 m 276 -121 q 305 -132 293 -121 q 317 -160 317 -143 q 306 -189 317 -175 q 242 -232 276 -217 q 174 -247 207 -247 q 80 -212 118 -247 q 42 -126 42 -178 q 74 -39 42 -85 l 135 44 l 135 628 q 178 671 135 671 q 221 628 221 671 l 221 43 q 206 8 221 19 l 138 -86 q 121 -126 121 -108 q 135 -156 121 -144 q 174 -168 150 -168 q 249 -132 214 -168 q 276 -121 260 -121 z "},"ĩ":{"ha":356,"x_min":-1,"x_max":356,"o":"m 178 0 q 135 43 135 0 l 135 628 q 178 671 135 671 q 221 628 221 671 l 221 43 q 178 0 221 0 m 246 775 q 206 787 222 775 q 163 822 189 799 q 138 846 147 839 q 119 853 129 853 q 94 842 104 853 q 74 804 85 832 q 29 779 58 771 q 6 791 14 782 q -1 813 -1 800 q 1 826 -1 818 q 49 903 24 879 q 115 926 75 926 q 158 913 139 926 q 201 876 178 900 q 224 856 213 865 q 244 847 236 847 q 263 856 256 847 q 281 889 271 865 q 324 917 293 922 q 347 906 339 915 q 356 885 356 897 q 353 869 356 881 q 246 775 319 775 z "},"j":{"ha":356,"x_min":-19,"x_max":246,"o":"m -19 -235 q -8 -203 -19 -214 q 25 -192 4 -192 q 112 -169 89 -192 q 135 -82 135 -146 l 135 628 q 178 671 135 671 q 209 660 197 671 q 221 628 221 649 l 221 -82 q 173 -230 221 -182 q 25 -278 125 -278 q -8 -267 4 -278 q -19 -235 -19 -256 m 161 793 q 108 847 108 793 l 108 883 q 122 922 108 908 q 161 935 135 935 l 194 935 q 233 921 219 935 q 246 883 246 907 l 246 847 q 233 807 246 821 q 194 793 219 793 l 161 793 z "},"ȷ":{"ha":356,"x_min":-19,"x_max":221,"o":"m -19 -235 q -8 -203 -19 -214 q 25 -192 4 -192 q 112 -169 89 -192 q 135 -82 135 -146 l 135 628 q 178 671 135 671 q 209 660 197 671 q 221 628 221 649 l 221 -82 q 173 -230 221 -182 q 25 -278 125 -278 q -8 -267 4 -278 q -19 -235 -19 -256 z "}}}
